<svg width="1440" height="572" viewBox="0 0 1440 572" fill="none" xmlns="http://www.w3.org/2000/svg">
<g opacity="0.2" clip-path="url(#clip0_47331_2589)">
<path d="M1175.31 540.943C1153 533.832 1131.93 527.109 1118.97 518.105C1089.9 496.658 1064.35 466.852 1045.08 431.909C1027.9 400.752 1016.64 367.109 1013.38 337.17C1010.84 313.887 1016.13 291.929 1029.1 271.894C1044.25 248.503 1070.04 227.584 1105.76 209.703C1137.62 193.751 1162.03 184.174 1182.57 179.564C1192.34 177.369 1201.31 176.27 1209.72 176.27C1219.9 176.27 1229.26 177.881 1238.22 181.12C1253.96 186.809 1268.6 197.614 1284.3 215.121C1297.84 230.229 1312.26 250.268 1332.54 282.136C1346.7 304.412 1360.86 315.836 1378.78 330.309C1405.25 351.679 1438.2 378.278 1488.58 453.673C1505.58 479.1 1492 496.321 1478.87 512.974C1470.51 523.579 1462.62 533.596 1462.09 545.563C1461.75 553.211 1465.62 562.671 1472.61 572.489H1471.62C1464.54 562.42 1460.99 553.135 1461.32 545.532C1461.87 533.32 1470.21 522.74 1478.27 512.508C1491.24 496.065 1504.64 479.064 1487.95 454.098C1437.62 378.794 1404.73 352.237 1378.3 330.903C1360.32 316.388 1346.12 304.928 1331.89 282.546C1296.96 227.635 1270.39 193.552 1237.96 181.831C1206.69 170.534 1169.72 178.541 1106.1 210.383C1039.55 243.694 1008.61 286.321 1014.14 337.083C1020.21 392.69 1055.11 470.039 1119.41 517.481C1132.27 526.413 1153.28 533.115 1175.54 540.211C1203.43 549.108 1232.04 558.235 1246.54 572.489H1245.44C1230.92 558.675 1202.76 549.697 1175.3 540.938L1175.31 540.943Z" fill="#EE7700"/>
<path d="M1088.31 516.836C1104.5 534.502 1115.11 553.12 1120.11 572.489H1119.32C1114.33 553.304 1103.79 534.86 1087.74 517.348C1053.05 479.504 1036.29 452.773 1015.99 402.932C1000.87 365.825 994.95 332.075 998.373 302.596C1000.25 286.424 1001.73 273.649 1017.35 257.405C1033.8 240.287 1065.65 219.9 1120.63 191.306C1159.24 171.225 1188.9 161.873 1213.96 161.873C1237.94 161.873 1258.82 170.555 1279.66 189.193C1288.08 196.713 1295.23 208.209 1302.81 220.38C1314.43 239.044 1327.6 260.199 1349.35 274.529C1395.2 304.734 1401.78 313.739 1417.66 335.502C1431.25 354.12 1451.79 382.253 1510.45 441.446C1532.49 462.478 1534.54 488.381 1536.52 513.434C1538.28 535.771 1539.98 557.253 1556.75 572.499H1555.58C1539.21 557.151 1537.51 535.745 1535.76 513.496C1533.79 488.585 1531.75 462.831 1509.92 441.988C1451.21 382.749 1430.65 354.585 1417.05 335.947C1401.22 314.265 1394.67 305.287 1348.93 275.158C1327.04 260.741 1313.82 239.509 1302.16 220.78C1294.61 208.66 1287.48 197.21 1279.15 189.761C1237.89 152.874 1195.02 153.478 1120.98 191.986C1066.08 220.544 1034.29 240.886 1017.9 257.938C1002.47 273.997 1000.99 286.659 999.13 302.703C995.722 332.039 1001.63 365.667 1016.7 402.651C1036.96 452.394 1053.69 479.075 1088.3 516.841L1088.31 516.836Z" fill="#EE7700"/>
<path d="M1523.71 425.958C1493.78 396.756 1462.85 366.556 1435.29 318.035C1424.88 301.203 1406.33 286.766 1386.69 271.479C1374.25 261.794 1361.39 251.777 1349.04 240.138C1337.7 228.811 1329.69 218.041 1321.94 207.63C1304.24 183.866 1288.96 163.34 1241.9 150.77C1218.73 144.58 1197.96 141.198 1159.53 158.199C1146.44 163.99 1133.48 171.485 1115.54 181.866C1093.95 194.364 1064.38 211.477 1020.06 233.604C987.05 250.083 982.429 280.171 982.358 310.233C982.261 350.384 997.918 398.086 1036.4 474.878C1044.43 490.897 1054.24 504.301 1063.73 517.265C1077.03 535.432 1089.32 552.228 1093.36 572.488H1092.55C1088.5 552.407 1076.3 535.739 1063.11 517.715C1053.6 504.731 1043.77 491.301 1035.71 475.221C1015.9 435.684 1002.69 405.136 994.126 379.08C985.525 352.901 981.539 331.02 981.59 310.233C981.621 297.141 982.378 281.859 987.73 267.739C993.661 252.099 1004.12 240.711 1019.71 232.929C1064.01 210.812 1093.57 193.704 1115.16 181.211C1133.12 170.82 1146.09 163.31 1159.22 157.503C1180.29 148.181 1196.09 144.953 1209.88 144.953C1221.38 144.953 1231.49 147.204 1242.1 150.033C1289.41 162.67 1304.77 183.293 1322.55 207.175C1330.29 217.566 1338.29 228.309 1349.58 239.59C1361.9 251.199 1374.74 261.201 1387.17 270.875C1406.86 286.203 1425.47 300.686 1435.95 317.646C1463.47 366.085 1494.37 396.244 1524.25 425.411C1527.57 428.65 1530.89 431.893 1534.22 435.167C1543.4 444.207 1550.45 459.699 1557.91 476.096C1569.85 502.336 1583.39 532.076 1610 548.258C1620.65 554.73 1630.6 557.626 1640.5 557.989V558.705C1629.84 558.311 1619.79 555.098 1609.6 548.908C1582.79 532.603 1569.2 502.751 1557.22 476.413C1549.78 460.078 1542.76 444.653 1533.68 435.71C1530.36 432.441 1527.03 429.197 1523.72 425.958H1523.71Z" fill="#EE7700"/>
<path d="M1006.04 435.757C1025.79 481.684 1046.01 528.721 1048.78 572.494H1048C1045.23 528.859 1025.05 481.904 1005.34 436.059C987.254 394.005 968.558 350.518 964.434 311.257C962.433 292.179 966.619 272.094 976.223 254.709C985.786 237.396 1000.06 223.921 1016.41 216.758C1067.81 194.242 1096.13 181.836 1140.36 151.191C1160.78 137.045 1183.87 129.959 1209.39 129.959C1224.18 129.959 1239.79 132.343 1256.15 137.111C1290.38 147.098 1305.83 165.137 1322.18 184.241C1334.59 198.739 1347.43 213.74 1369.41 226.689C1427.42 260.864 1440.48 282.137 1457.02 309.068C1477.12 341.81 1502.14 382.56 1612.7 465.645L1613.36 466.141C1623.71 473.923 1632.49 480.517 1640.49 485.853V486.769C1632.36 481.372 1623.44 474.675 1612.89 466.745L1612.23 466.249C1563.09 429.321 1526.45 397.427 1500.22 368.747C1477.54 343.959 1466.29 325.633 1456.36 309.461C1439.23 281.569 1426.86 261.416 1369.02 227.338C1346.94 214.323 1334.06 199.277 1321.6 184.732C1305.32 165.72 1289.95 147.763 1255.93 137.843C1211.58 124.909 1172.85 129.611 1140.8 151.815C1096.5 182.506 1068.16 194.918 1016.72 217.454C983.273 232.101 961.128 272.396 965.196 311.175C969.305 350.318 987.981 393.754 1006.04 435.757H1006.04Z" fill="#EE7700"/>
<path d="M950.122 368.606C933.273 328.297 918.716 293.487 923.178 268.035C928.33 238.638 938.978 218.532 956.676 204.759C972.405 192.521 991.552 186.93 1011.82 181.005C1023.59 177.567 1035.76 174.011 1047.55 169.008C1072.19 158.551 1084.14 149.337 1095.7 140.435C1102.98 134.822 1109.86 129.527 1119.58 124.109C1145.62 109.59 1176.14 94.3594 1212.06 94.3594C1214.85 94.3594 1217.68 94.4515 1220.54 94.6408C1262.48 97.4546 1298.68 111.641 1331.2 138.025C1342.67 147.331 1351.08 156.617 1359.22 165.601C1370.96 178.56 1382.05 190.802 1400.33 200.288C1429.74 215.549 1452.45 231.792 1469.77 249.949C1485.25 266.178 1495.19 282.513 1504.79 298.312C1507.58 302.896 1510.46 307.633 1513.45 312.314C1541.92 357.003 1595.35 379.074 1640.49 389.971V390.754C1616.27 384.916 1594.43 376.997 1575.43 367.128C1547.69 352.726 1526.62 334.421 1512.8 312.729C1509.81 308.037 1506.93 303.3 1504.14 298.711C1484.18 265.881 1465.32 234.867 1399.98 200.968C1381.58 191.421 1370.45 179.128 1358.66 166.117C1350.55 157.154 1342.16 147.889 1330.73 138.619C1298.34 112.337 1262.28 98.2015 1220.5 95.4031C1181.08 92.758 1147.94 109.176 1119.96 124.774C1110.3 130.162 1103.44 135.447 1096.19 141.038C1084.59 149.976 1072.6 159.216 1047.87 169.714C1036.04 174.738 1023.84 178.299 1012.05 181.742C972.513 193.294 935.161 204.207 923.95 268.168C919.524 293.4 934.04 328.118 950.843 368.315C963.251 397.993 977.312 431.626 985.698 466.559C995.092 505.707 995.875 540.384 988.067 572.492H987.274C1005 499.864 974.61 427.155 950.137 368.612L950.122 368.606Z" fill="#EE7700"/>
<path d="M968.588 564.43C990.83 493.327 962.877 430.558 927.496 351.09C924.666 344.741 921.745 338.172 918.828 331.556C908.569 308.278 903.565 284.785 903.959 261.732C904.312 241.222 908.856 225.551 912.606 216.015C919.37 198.815 932.505 185.436 951.636 176.263C964.208 170.231 979.215 166.052 997.512 163.473C1053.23 155.011 1062.38 145.884 1075.04 133.247C1083.23 125.087 1092.5 115.832 1116.41 104.577C1154.98 86.4097 1186.96 77.6816 1216.26 77.6816C1226.7 77.6816 1236.79 78.7867 1246.71 80.9662C1263.84 84.7265 1280.76 91.6332 1299.93 102.699C1318.92 113.658 1338.22 127.655 1356.25 141.152C1362.77 146.027 1369.7 152.74 1376.41 159.227C1385.1 167.648 1393.33 175.598 1400.61 179.798C1420.79 191.427 1435.17 201.726 1449.07 211.687C1460.56 219.924 1471.42 227.7 1485.05 235.942C1505.82 248.502 1518.23 267.166 1530.23 285.215C1542.72 304.006 1554.52 321.754 1574.51 330.155C1588.74 337.189 1604.35 341.379 1623.62 343.344C1629.24 343.431 1634.86 343.891 1640.49 344.602V345.37C1634.85 344.654 1629.21 344.188 1623.58 344.101C1604.19 342.126 1588.49 337.911 1574.19 330.84C1554.01 322.358 1542.15 304.518 1529.59 285.624C1517.64 267.646 1505.28 249.055 1484.66 236.582C1471 228.324 1460.14 220.538 1448.63 212.291C1434.74 202.34 1420.38 192.051 1400.23 180.443C1392.86 176.192 1384.61 168.211 1375.87 159.759C1369.18 153.287 1362.26 146.59 1355.79 141.745C1270.8 78.1216 1222.5 55.4421 1116.74 105.247C1092.95 116.446 1083.73 125.65 1075.59 133.769C1062.82 146.508 1053.6 155.712 997.62 164.21C952.787 170.518 924.426 188.04 913.317 216.276C907.014 232.305 895 275.587 919.529 331.234C922.446 337.849 925.367 344.418 928.197 350.767C945.343 389.271 961.532 425.636 970.235 460.354C979.86 498.745 979.568 531.881 969.319 564.645C968.48 567.331 967.493 569.935 966.377 572.477H965.538C966.7 569.858 967.723 567.182 968.588 564.414V564.43Z" fill="#EE7700"/>
<path d="M-200.488 247.919V246.107C-198.145 251.223 -195.428 256.58 -192.261 262.254C-158.675 322.403 -68.6932 457.263 14.4271 572.487H13.4856C-69.5579 457.345 -159.376 322.721 -192.931 262.627C-195.801 257.486 -198.298 252.6 -200.488 247.919Z" fill="#EE7700"/>
<path d="M-200.488 162.967V154.674C-197.342 189.908 -192.629 229.322 -168.56 270.624C-100.933 386.672 -31.5871 483.489 34.0955 572.488H33.1438C-32.4518 483.596 -101.696 386.887 -169.225 271.003C-191.519 232.75 -197.26 196.145 -200.488 162.967Z" fill="#EE7700"/>
<path d="M953.316 545.562C964.772 462.037 938.462 408.139 915.248 360.58C906.027 341.687 897.314 323.842 891.496 305.383C884.967 284.663 883.002 266.066 885.315 246.85C896.5 153.85 946.833 148.637 995.502 143.592C1007.91 142.308 1020.74 140.978 1032.47 138.123C1049.23 135.836 1064 122.995 1078.3 110.573C1090.74 99.7579 1102.49 89.5463 1115.2 86.1338C1154.77 72.8781 1188.91 66.2988 1219.12 66.2988C1241.03 66.2988 1260.87 69.7624 1279.21 76.6589C1334.05 97.2869 1367.6 125.855 1397.26 153.349C1415.61 170.36 1454.1 196.175 1488.05 218.957C1504.8 230.192 1520.62 240.803 1531.13 248.477C1546.13 259.436 1556.16 268.788 1564.23 276.298C1583.6 294.353 1593.87 303.91 1640.49 308.596V309.363C1593.55 304.662 1583.22 295.044 1563.7 276.856C1555.65 269.356 1545.64 260.024 1530.67 249.091C1520.18 241.427 1504.37 230.821 1487.63 219.592C1453.65 196.8 1415.14 170.963 1396.74 153.912C1365.9 125.333 1333.69 97.9724 1278.93 77.3751C1235.5 61.0395 1183.55 64.0529 1115.42 86.8654C1102.87 90.2369 1091.18 100.397 1078.8 111.151C1064.43 123.645 1049.57 136.563 1032.62 138.875C1020.87 141.735 1008.02 143.071 995.589 144.355C947.217 149.368 897.196 154.546 886.083 246.942C881.053 288.771 897.221 321.893 915.943 360.248C939.204 407.899 965.565 461.909 954.073 545.69C952.169 554.889 949.248 563.786 945.282 572.488H944.51C948.286 564.195 951.3 555.293 953.316 545.562Z" fill="#EE7700"/>
<path d="M870.414 318.527C849.375 284.024 847.175 265.146 845.399 249.976C843.977 237.805 842.953 229.011 832.628 217.08C821.719 208.541 806.512 208.792 788.911 209.084C761.23 209.539 729.849 210.056 704.379 176.387C687.714 154.352 682.101 135.126 687.233 117.598C694.381 93.1841 722.435 72.5715 775.526 52.7314C808.124 40.55 823.991 38.5905 836.158 45.2414C848.817 52.1635 857.024 68.6986 870.614 96.1003C871.949 98.7965 873.341 101.6 874.769 104.465C896.09 137.024 907.034 134.016 936.281 125.978C956.681 120.371 984.542 112.712 1030.14 112.712C1030.58 112.712 1031.03 112.712 1031.47 112.712C1031.58 112.712 1031.69 112.712 1031.79 112.712C1058.06 112.712 1067.94 102.188 1077.49 92.0074C1084.59 84.4459 1091.3 77.2987 1104.2 75.0374C1117.67 72.551 1131.41 69.3739 1144.68 66.2992C1181.22 57.8423 1215.73 49.851 1246.9 54.6345C1270.29 58.2209 1292.1 64.9639 1313.57 75.2523C1334.37 85.2133 1354.38 98.2797 1374.75 115.193C1381.32 120.652 1387.06 125.513 1392.14 129.805C1414.61 148.827 1425.88 158.373 1449.95 169.608C1481.67 184.414 1501.72 202.274 1519.41 218.032C1539.77 236.168 1555.85 250.493 1581.83 253.506C1596.01 255.154 1602.54 248.82 1608.3 243.233C1609.06 242.497 1609.78 241.806 1610.51 241.131C1617.41 231.195 1628.67 228.852 1640.48 227.936V228.704C1628.87 229.614 1617.82 231.927 1611.12 241.601C1611.1 241.622 1611.08 241.647 1611.06 241.663C1610.33 242.338 1609.61 243.039 1608.84 243.776C1602.96 249.48 1596.29 255.947 1581.74 254.259C1555.52 251.22 1539.36 236.818 1518.9 218.594C1501.24 202.873 1481.24 185.053 1449.62 170.294C1425.46 159.018 1414.16 149.446 1391.63 130.383C1386.57 126.096 1380.82 121.23 1374.25 115.777C1333.11 81.6013 1292.6 62.4161 1246.78 55.3866C1215.75 50.6287 1181.31 58.5995 1144.85 67.041C1131.56 70.1158 1117.82 73.298 1104.32 75.7895C1091.67 78.0048 1085.05 85.0598 1078.04 92.5293C1068.38 102.828 1058.39 113.474 1031.79 113.474C1031.68 113.474 1031.57 113.474 1031.46 113.474C985.197 113.321 957.035 121.062 936.481 126.71C922.118 130.659 911.737 133.509 902.47 131.166C892.989 128.772 884.777 121.154 874.098 104.839C872.645 101.933 871.259 99.129 869.918 96.4328C842.841 41.8546 837.202 30.4918 775.787 53.4425C722.942 73.1905 695.03 93.6395 687.959 117.808C682.899 135.085 688.471 154.096 704.982 175.926C730.218 209.283 761.389 208.772 788.891 208.316C806.656 208.025 822.001 207.769 833.124 216.502C833.145 216.517 833.16 216.533 833.175 216.553C843.675 228.673 844.77 238.035 846.151 249.889C847.911 264.982 850.106 283.773 871.059 318.133C897.349 361.251 923.295 407.429 934.997 452.972C940.958 476.163 942.913 497.553 940.973 518.376C939.229 537.09 934.388 554.899 926.258 572.488H925.408C965.114 486.799 922.164 403.418 870.404 318.527H870.414Z" fill="#EE7700"/>
<path d="M-200.488 75.8965C-193.55 91.6591 -188.423 106.982 -188.623 126.433C-189.569 217.75 -149.833 280.928 -97.7917 354.037C-80.4206 378.441 -63.0086 404.318 -44.5783 431.709C-30.0061 453.365 -14.9426 475.753 1.10838 498.914C19.4567 525.384 36.7101 549.875 53.1091 572.493H52.1625C35.8557 549.993 18.7046 525.645 0.473923 499.344C-15.5822 476.183 -30.6508 453.79 -45.2179 432.134C-63.6482 404.742 -81.0551 378.875 -98.421 354.477C-127.202 314.045 -148.165 282.028 -163.71 247.403C-181.669 207.395 -189.83 168.958 -189.39 126.428C-189.196 107.79 -193.944 92.9381 -200.488 77.815V75.8965Z" fill="#EE7700"/>
<path d="M1569.76 120.935C1564.42 139.982 1553.46 151.697 1538.92 153.913C1520.51 156.721 1499.13 144.034 1484.44 121.589C1479.32 116.637 1473.81 118.11 1467.43 119.819C1462.71 121.083 1457.35 122.51 1451.55 121.262C1423.12 113.665 1401.66 99.5187 1378.94 84.5388C1356.25 69.5845 1332.8 54.1238 1299.96 43.2624C1296.76 42.2033 1293.72 41.1801 1290.81 40.1978C1264.56 31.3675 1248.72 26.0417 1214.8 28.0727C1185.17 29.848 1176.86 31.7512 1165.36 34.386C1162.46 35.0511 1159.47 35.7366 1155.86 36.4836C1145.14 38.7039 1135.89 38.5505 1123.09 38.3305C1111.92 38.1412 1098.03 37.9058 1078.6 39.3076C1068.52 40.0341 1059.87 43.16 1051.49 46.1785C1045.55 48.3222 1039.93 50.3481 1034.36 51.2639C1024.99 52.7987 1017.57 51.2997 1010.39 49.8467C1004.43 48.6393 998.793 47.4985 992.632 48.3119C986.989 49.0589 981.37 50.3737 975.425 51.7653C960.96 55.147 946.004 58.6464 930.255 53.6633C903.449 45.1809 893.394 31.6182 883.673 18.5057C878.914 12.0901 874.366 5.96108 868.031 0.517578H869.193C875.241 5.86387 879.672 11.8241 884.292 18.0555C893.942 31.0708 903.919 44.5311 930.49 52.942C946.04 57.8636 960.894 54.3898 975.256 51.0286C981.222 49.6319 986.856 48.3119 992.54 47.565C998.829 46.7362 1004.52 47.8873 1010.56 49.1049C1017.66 50.5425 1025.02 52.0313 1034.25 50.5169C1039.75 49.6165 1045.33 47.6008 1051.24 45.4674C1059.67 42.4284 1068.37 39.2923 1078.56 38.5556C1098.02 37.1487 1111.93 37.384 1123.11 37.5733C1135.87 37.7882 1145.08 37.9468 1155.72 35.7417C1159.32 34.9948 1162.31 34.3092 1165.2 33.6493C1176.74 31.0094 1185.08 29.1011 1214.77 27.3207C1248.83 25.2794 1264.73 30.6257 1291.07 39.4867C1293.98 40.4639 1297.01 41.4871 1300.22 42.5512C1333.15 53.4433 1356.65 68.9348 1379.38 83.9147C1402.05 98.8587 1423.46 112.974 1451.75 120.536C1457.34 121.743 1462.38 120.397 1467.24 119.098C1473.59 117.404 1479.59 115.798 1485.02 121.093C1485.04 121.114 1485.06 121.134 1485.08 121.16C1499.6 143.379 1520.69 155.949 1538.82 153.181C1553.05 151.012 1563.78 139.491 1569.03 120.75C1575.19 98.7666 1572.81 88.0433 1570.51 77.6731C1567.13 62.4374 1563.93 48.0357 1588.16 0.52781H1589.02C1564.73 48.0766 1567.9 62.3709 1571.26 77.5093C1573.58 87.9717 1575.98 98.7871 1569.77 120.955L1569.76 120.935Z" fill="#EE7700"/>
<path d="M-168.827 72.9801C-166.709 82.5062 -164.708 91.5105 -163.091 100.239C-160.564 113.888 -159.07 128.316 -157.616 142.272C-155.918 158.628 -154.163 175.542 -150.729 191.98C-141.76 234.878 -112.953 275.919 -87.5335 312.131C-80.7027 321.862 -74.2506 331.055 -68.5916 339.727L-63.6898 347.237C-9.04382 431.013 37.8402 502.889 93.0235 572.493H91.995C78.3949 555.334 64.8767 537.509 51.2408 518.764C12.9732 466.171 -22.8486 411.25 -64.3294 347.657L-69.2312 340.146C-74.88 331.49 -81.327 322.302 -88.1577 312.571C-113.618 276.298 -142.476 235.19 -151.476 192.139C-154.92 175.665 -156.68 158.731 -158.379 142.354C-159.827 128.413 -161.321 114.001 -163.843 100.382C-165.46 91.664 -167.456 82.67 -169.574 73.1489C-174.911 49.1239 -180.416 24.357 -180.58 0.505859H-179.813C-179.649 24.2751 -174.154 48.996 -168.822 72.9801H-168.827Z" fill="#EE7700"/>
<path d="M902.931 505.681C904.599 451.717 882.347 399.641 823.556 319.953C802.209 291.011 767.493 273.488 723.541 251.305C708.968 243.948 693.9 236.341 677.695 227.541C655.202 215.324 638.931 200.968 629.322 184.863C620.511 170.098 617.4 154.1 620.066 137.314C624.175 111.478 642.042 84.8845 670.389 62.4249C698.351 40.2672 733.574 24.346 769.57 17.5928C785.176 14.6664 795.696 7.44762 804.737 0.5H805.991C796.699 7.68296 785.949 15.2957 769.713 18.3449C733.84 25.0776 698.74 40.9425 670.87 63.0235C642.677 85.3603 624.901 111.79 620.829 137.437C616.935 161.938 623.704 197.346 678.064 226.876C694.253 235.67 709.316 243.273 723.888 250.63C767.928 272.859 802.716 290.418 824.175 319.502C853.575 359.357 873.116 391.342 885.657 420.151C898.832 450.407 904.563 477.594 903.693 505.702C902.931 530.341 896.77 551.757 884.398 572.487H883.534C895.998 551.567 902.184 529.701 902.926 505.676L902.931 505.681Z" fill="#EE7700"/>
<path d="M-145.344 112.559C-144.331 122.049 -143.538 130.404 -142.837 137.771C-138.863 179.538 -111.041 242.374 -59.3691 326.278C-54.6055 334.008 -49.5554 342.214 -44.188 350.942C8.47276 436.57 56.8611 499.365 114.608 572.494H113.63C56.0271 499.549 7.7206 436.821 -44.848 351.341C-50.2154 342.618 -55.2656 334.412 -60.0292 326.677C-111.759 242.674 -139.616 179.729 -143.6 137.842C-144.301 130.475 -145.094 122.126 -146.107 112.641C-153.06 47.4056 -151.751 19.0166 -148.363 0.511719H-147.58C-150.973 18.9552 -152.303 47.2573 -145.344 112.559Z" fill="#EE7700"/>
<path d="M884.854 506.188C889.526 443.25 852.092 372.28 779.446 306.359C754.809 284.002 734.332 276.389 697.16 262.571C694.811 261.696 692.396 260.801 689.904 259.869C670.21 252.523 651.483 241.186 635.749 227.086C619.75 212.745 607.951 196.512 601.631 180.13C594.13 160.684 594.719 141.704 603.33 125.235C613.799 105.221 619.632 90.7731 624.319 79.1698C632.275 59.473 636.655 48.6218 654.041 33.8619C672.886 15.7715 695.256 14.0371 718.936 12.2005C737.029 10.7987 755.561 9.36104 773.475 0.5H775.178C756.733 10.0364 737.638 11.5149 718.998 12.9628C695.461 14.7892 673.224 16.5082 654.563 34.4247C637.3 49.0771 632.945 59.8669 625.035 79.4512C620.343 91.0749 614.5 105.538 604.016 125.583C595.507 141.852 594.934 160.618 602.353 179.854C615.088 212.873 649.564 243.999 690.18 259.153C692.672 260.084 695.087 260.98 697.436 261.855C734.695 275.704 755.223 283.337 779.968 305.791C852.788 371.876 890.314 443.066 885.622 506.239C883.954 528.714 876.918 549.905 864.71 569.223C864.019 570.318 863.308 571.402 862.586 572.482H861.527C875.184 552.238 883.094 529.932 884.859 506.183L884.854 506.188Z" fill="#EE7700"/>
<path d="M1505.96 83.1611C1475.78 95.4653 1445.2 94.0583 1415.07 78.9762C1261.48 2.09184 1207.85 12.2728 1164.76 20.4585C1154.24 22.4538 1144.31 24.3416 1133.68 24.8123C1109.41 24.444 1085.18 26.6388 1061.74 28.7619C1018.75 32.6553 978.151 36.3337 937.898 25.3853C922.794 21.2771 910.125 11.2496 898.137 0.505859H899.283C911.02 10.9682 923.423 20.6581 938.103 24.6486C978.223 35.5612 1018.76 31.8878 1061.67 27.9996C1085.13 25.8765 1109.38 23.6765 1133.67 24.05C1144.22 23.5845 1154.12 21.7017 1164.62 19.7116C1207.82 11.5054 1261.59 1.29373 1415.42 78.2957C1445.34 93.2756 1475.7 94.6723 1505.66 82.4551C1554.06 62.7224 1563.94 31.4939 1560.49 0.505859H1561.21C1562.51 12.0733 1561.83 22.3259 1559.24 31.6985C1552.98 54.2604 1535.55 71.0974 1505.96 83.1611Z" fill="#EE7700"/>
<path d="M855.253 538.128C872.711 497.855 867.876 453.631 840.481 402.941C793.474 315.973 735.385 296.578 692.963 282.417C680.069 278.114 668.935 274.395 659.479 269.412C636.454 257.281 618.786 245.259 605.473 232.658C592.594 220.471 584.09 208.029 579.475 194.61C575.116 181.942 574.307 168.594 576.999 153.799C579.439 140.379 584.812 125.665 593.423 108.823C602.904 90.2827 607.427 72.6169 611.418 57.0333C617.819 32.0464 622.875 12.3138 644.411 0.940725C644.697 0.792359 644.979 0.649109 645.26 0.505859H646.969C646.237 0.858868 645.506 1.22723 644.769 1.61605C623.53 12.8305 618.515 32.4199 612.16 57.2226C608.159 72.8471 603.621 90.5538 594.104 109.171C576.236 144.114 571.948 170.385 580.197 194.364C589.36 220.998 615.409 245.325 659.837 268.736C669.237 273.689 680.345 277.398 693.203 281.69C735.743 295.892 794.002 315.344 841.152 402.578C868.669 453.488 873.509 497.926 855.954 538.43C850.945 549.987 844.14 561.289 835.395 572.488H834.423C843.306 561.186 850.198 549.788 855.253 538.128Z" fill="#EE7700"/>
<path d="M1469.54 53.6107C1448.4 59.576 1429.78 60.589 1410.95 56.798C1393.69 53.3293 1377.65 46.2435 1359.08 38.0425C1330.47 25.4058 1294.85 9.67386 1240.26 1.93836C1222.63 -0.5634 1200.08 2.73647 1176.22 6.23074C1158.49 8.82459 1140.17 11.5054 1124.14 11.5566C1106.01 11.6129 1087.08 12.9021 1068.78 14.1504C1023.36 17.2508 976.397 20.4534 940.335 4.435C937.838 3.32482 935.341 2.00487 932.834 0.505859H934.338C936.446 1.72348 938.549 2.80298 940.647 3.73922C976.535 19.6809 1023.4 16.4834 1068.73 13.3932C1087.05 12.1449 1105.98 10.8506 1124.14 10.7994C1140.11 10.7534 1158.41 8.07253 1176.11 5.4838C1191.14 3.28389 1205.64 1.16072 1218.75 0.510975H1233.51C1235.87 0.654225 1238.16 0.879333 1240.37 1.19141C1295.06 8.94226 1330.73 24.6946 1359.38 37.3518C1396.72 53.8409 1423.69 65.7562 1469.32 52.8791C1482.93 49.042 1489.8 31.6525 1498.49 9.63805C1499.67 6.65026 1500.88 3.6062 1502.12 0.510975H1502.95C1501.65 3.7034 1500.42 6.83956 1499.2 9.91943C1490.43 32.1283 1483.5 49.6764 1469.53 53.6158L1469.54 53.6107Z" fill="#EE7700"/>
<path d="M-55.3849 299.914C-52.1153 304.944 -48.7332 310.147 -45.2385 315.549C-36.7807 328.616 -28.3024 341.876 -19.3277 355.915C26.0264 426.844 75.2948 503.882 132.233 572.494H131.343C118.899 557.483 106.348 541.516 93.638 524.525C51.9474 468.796 13.7361 409.04 -19.9725 356.324C-28.9471 342.286 -37.4254 329.03 -45.8832 315.964C-49.3779 310.561 -52.76 305.358 -56.0296 300.329C-89.5284 248.81 -111.663 214.773 -121.451 171.562C-130.441 131.882 -129.464 83.0953 -117.716 0.511719H-116.944C-140.91 168.385 -121.625 198.043 -55.3849 299.92V299.914Z" fill="#EE7700"/>
<path d="M-89.3448 24.0091C-125.228 157.503 -108.445 183.989 -63.5875 254.769C-58.9978 262.014 -54.2495 269.499 -49.184 277.695C20.5817 390.478 73.6978 468.314 146.8 564.88C148.708 567.402 150.652 569.94 152.617 572.493H151.645C149.772 570.063 147.951 567.674 146.186 565.341C73.0685 468.754 19.9421 390.903 -49.839 278.099C-54.9045 269.908 -59.6527 262.418 -64.2424 255.179C-109.228 184.193 -126.062 157.631 -90.0918 23.8147C-87.8046 15.2964 -85.0826 7.63766 -82.1405 0.505859H-81.3116C-84.2895 7.69394 -87.0423 15.4141 -89.3499 24.0091H-89.3448Z" fill="#EE7700"/>
<path d="M814.351 562.409C841.408 527.876 850.864 493.721 841.689 463.633C800.858 329.705 738.921 309.793 679.02 290.541C654.686 282.719 631.696 275.326 609.915 260.781C585.222 244.292 566.577 221.52 551.237 189.115C533.999 152.709 550.444 130.413 564.955 110.737C571.345 102.07 577.378 93.8895 580.417 85.008C585.35 70.6012 587.012 57.9184 588.481 46.7245C590.461 31.6116 592.175 18.5605 600.955 5.76518C602.245 3.90293 603.585 2.15835 604.967 0.505859H605.965C604.445 2.28114 602.987 4.17408 601.585 6.19493C592.907 18.8316 591.203 31.8009 589.233 46.8217C587.76 58.0514 586.091 70.7751 581.139 85.2536C578.058 94.2425 571.99 102.474 565.569 111.187C551.186 130.689 534.884 152.791 551.928 188.788C585.488 259.671 631.031 274.313 679.256 289.815C739.346 309.133 801.478 329.106 842.426 463.413C846.903 478.096 846.944 493.941 842.554 510.496C837.985 527.712 828.703 545.337 814.96 562.875C812.443 566.088 809.767 569.295 806.963 572.488H805.944C808.907 569.137 811.716 565.776 814.356 562.404L814.351 562.409Z" fill="#EE7700"/>
<path d="M1424.99 29.6682C1424.02 29.6682 1423.02 29.6273 1422 29.5454C1384.49 26.4707 1353.65 16.9036 1321.01 6.76867C1314.33 4.69155 1307.56 2.59396 1300.62 0.511719H1303.28C1309.37 2.3535 1315.34 4.20552 1321.24 6.04219C1353.84 16.1618 1384.64 25.7186 1422.06 28.7882C1441.74 30.3998 1451.67 15.599 1460.87 0.516835H1461.76C1452.85 15.159 1443.32 29.6784 1424.99 29.6733L1424.99 29.6682Z" fill="#EE7700"/>
<path d="M989.213 0.505859H992.999C1031.78 8.0623 1073.12 3.8927 1105.6 0.505859H1112.98C1110.99 0.710502 1108.97 0.920261 1106.93 1.13514C1073.2 4.65499 1029.63 9.19806 989.213 0.505859Z" fill="#EE7700"/>
<path d="M-4.00262 1.21699C-36.7493 35.5356 -67.7921 100.627 -63.7653 158.628C-59.4059 221.443 -13.3559 283.834 39.97 356.078C49.0265 368.346 58.3951 381.039 67.6409 393.87C83.7585 416.238 98.9498 438.411 113.64 459.852C141.613 500.684 168.414 539.796 196.555 572.493H195.542C167.534 539.868 140.85 500.924 113.005 460.282C98.3154 438.846 83.1291 416.678 67.0167 394.315C57.7709 381.484 48.4074 368.802 39.3509 356.528C13.1075 320.977 -11.6776 287.395 -30.5581 254.688C-51.7411 217.99 -62.5373 187.483 -64.5328 158.679C-66.472 130.741 -60.5878 99.5786 -47.5199 68.5649C-36.5549 42.5497 -20.8979 17.8135 -4.56033 0.690038C-4.50405 0.628645 -4.44265 0.567252 -4.38637 0.505859H-3.34258C-3.5626 0.741199 -3.78261 0.981654 -4.00774 1.21699H-4.00262Z" fill="#EE7700"/>
<path d="M769.14 530.015C789.862 505.069 791.269 474.045 788.803 452.414C784.065 410.887 760.697 367.59 730.652 344.67C710.533 329.322 682.141 319.519 652.086 309.139C597.762 290.378 536.193 269.121 503.6 208.439C477.725 160.271 484.013 116.708 522.291 78.9616C523.304 77.9639 524.409 76.9765 525.581 75.9328C532.842 69.4559 541.069 62.1195 532.698 47.4926C522.516 29.704 520.72 14.1256 527.357 1.19216C527.474 0.961933 527.602 0.736826 527.725 0.511719H528.6C528.411 0.854496 528.216 1.19216 528.042 1.54005C521.529 14.233 523.32 29.5659 533.369 47.114C542.041 62.2678 533.2 70.1568 526.098 76.4956C524.931 77.5342 523.831 78.5165 522.834 79.4987C484.827 116.984 478.585 160.241 504.281 208.076C536.736 268.492 598.151 289.703 652.342 308.412C682.458 318.813 710.902 328.636 731.123 344.061C761.321 367.099 784.807 410.606 789.57 452.322C792.057 474.101 790.635 505.345 769.738 530.496C756.246 546.734 743.075 560.665 729.992 572.483H728.728C741.668 560.906 755.105 546.913 769.15 530.01L769.14 530.015Z" fill="#EE7700"/>
<path d="M730.694 513.699C748.955 492.391 756.978 464.227 753.279 434.405C749.278 402.164 731.503 371.999 705.725 353.72C669.422 327.971 647.461 321.202 624.211 314.034C601.186 306.938 577.383 299.597 537.473 273.597C512.207 257.133 493.644 235.242 482.3 208.526C471.734 183.641 467.59 155.078 469.985 123.619C471.039 109.77 476.943 98.5505 482.653 87.7045C489.141 75.3798 495.849 62.6357 495.373 46.0187C494.887 29.1715 498.919 13.6237 506.779 0.521484H507.674C499.733 13.5828 495.65 29.1306 496.136 45.9982C496.622 62.8148 489.863 75.651 483.329 88.0626C477.654 98.8421 471.786 109.99 470.747 123.686C467.257 169.562 476.079 232.699 537.893 272.973C577.711 298.916 601.468 306.237 624.436 313.318C647.748 320.506 669.765 327.29 706.17 353.111C719.412 362.504 730.382 374.604 738.778 389.082C746.806 402.926 752.087 418.571 754.041 434.329C757.766 464.365 749.687 492.739 731.283 514.211C706.697 543.577 677.844 560.977 645.558 572.514H643.25C676.258 561.018 705.699 543.572 730.694 513.72V513.699Z" fill="#EE7700"/>
<path d="M48.8975 3.289C45.5563 8.62506 42.1025 14.1402 38.2906 19.5325C38.2804 19.5479 38.2702 19.5632 38.2548 19.5735C32.3758 25.8099 25.5399 31.1716 18.31 36.8504C1.44038 50.0908 -17.6857 65.0911 -29.6485 96.1764C-44.3947 134.48 -49.8388 162.634 -36.4178 201.629C-22.8689 240.982 10.8346 291.687 76.2921 371.175C90.803 388.795 106.189 412.841 124.005 440.682C151.267 483.284 182.744 532.46 220.551 572.493H219.497C181.859 532.511 150.52 483.54 123.36 441.092C105.559 413.27 90.1839 389.245 75.6986 371.656C10.1848 292.096 -23.5648 241.319 -37.1444 201.874C-43.704 182.817 -45.9553 165.632 -44.2361 147.792C-42.8034 132.94 -38.6538 117.418 -30.3699 95.9001C-18.3304 64.6205 0.882664 49.5485 17.8291 36.2467C25.0333 30.5935 31.8385 25.2574 37.6715 19.067C41.463 13.7002 44.9065 8.20043 48.2374 2.87972C48.7337 2.08673 49.2301 1.29373 49.7264 0.505859H50.632C50.0538 1.42675 49.4706 2.35276 48.8924 3.28389L48.8975 3.289Z" fill="#EE7700"/>
<path d="M80.5596 3.0091C71.9841 19.7694 62.2624 38.7653 27.1825 68.6432C-44.0926 129.345 -21.0932 199.927 -1.041 236.599C24.66 283.6 54.48 316.169 80.7899 344.906C101.845 367.903 120.03 387.768 132.883 410.939C183.783 502.711 203.846 538.887 245.347 572.5H244.15C231.772 562.354 220.818 551.534 210.288 538.626C188.03 511.347 168.208 476.21 132.212 411.307C119.405 388.219 101.246 368.384 80.2219 345.423C53.8864 316.655 24.0307 284.05 -1.71639 236.967C-11.8576 218.421 -23.539 189.541 -21.5946 157.259C-19.5684 123.631 -3.32814 93.625 26.6811 68.0702C61.6484 38.2947 71.3291 19.3703 79.874 2.67144C80.2424 1.95008 80.6108 1.23383 80.9792 0.517578H81.8388C81.4141 1.34638 80.9894 2.17519 80.5596 3.01422V3.0091Z" fill="#EE7700"/>
<path d="M510.457 570.928C626.851 552.362 683.698 533.258 712.862 469.128C722.932 446.991 724.365 427.55 717.253 409.7C700.874 368.598 641.633 344.276 584.342 320.752C565.277 312.925 547.267 305.532 530.704 297.525C503.683 284.469 484.081 266.89 470.767 243.791C458.841 223.097 451.846 197.537 449.385 165.679C442.309 114.426 446.422 98.9398 452.649 75.5031C454.727 67.6755 457.085 58.7991 459.26 47.4568C461.67 27.7343 465.16 12.4629 470.517 0.511719H471.381C465.953 12.4424 462.438 27.7446 460.017 47.5745C457.833 58.9679 455.474 67.8546 453.391 75.6975C447.19 99.0472 443.091 114.472 450.147 165.597C455.269 231.799 480.213 272.277 531.037 296.84C547.579 304.836 565.579 312.224 584.634 320.046C642.068 343.631 701.463 368.014 717.964 409.419C725.158 427.468 723.72 447.104 713.558 469.441C684.25 533.888 627.256 553.068 510.565 571.68C508.81 571.905 507.05 572.176 505.284 572.488H501.217C504.307 571.844 507.387 571.317 510.452 570.928H510.457Z" fill="#EE7700"/>
<path d="M471.888 559.871C495.962 550.017 519.504 545.648 542.268 541.427C566.925 536.854 590.216 532.536 612.75 521.751C666.01 496.252 691.593 471.588 674.293 414.38C658.539 362.288 610.146 347.078 561.936 335.966C533.288 329.361 506.886 319.441 485.58 307.27C462.883 294.306 446.627 279.05 438.574 263.159C424.994 236.361 426.094 209.021 427.158 182.586C427.547 172.953 427.946 162.986 427.588 153.358C426.386 109.094 428.673 71.7925 434.398 42.4876C437.545 26.3771 441.802 12.3386 447.119 0.5H447.917C432.879 33.5703 426.468 83.892 428.356 153.332C428.714 162.986 428.31 172.968 427.926 182.617C426.867 208.959 425.772 236.192 439.259 262.816C447.241 278.574 463.395 293.712 485.964 306.605C507.203 318.735 533.534 328.629 562.111 335.219C610.545 346.382 659.158 361.674 675.03 414.155C683.335 441.603 682.163 462.312 671.351 479.318C661.599 494.661 644.172 507.554 613.088 522.437C590.462 533.267 567.125 537.595 542.411 542.174C519.683 546.39 496.182 550.744 472.185 560.572C467.411 562.526 462.735 564.455 458.15 566.348C453.074 568.445 448.111 570.492 443.235 572.482H441.214C446.638 570.277 452.179 567.985 457.853 565.642C462.438 563.749 467.114 561.82 471.888 559.866V559.871Z" fill="#EE7700"/>
<path d="M103.743 24.9556C87.2675 59.4481 63.342 82.4449 42.2306 102.74C15.1481 128.776 -6.2498 149.338 0.120449 182.628C16.1663 266.49 68.9243 313.42 111.311 351.126C116.898 356.093 122.173 360.79 127.295 365.486C152.418 388.545 160.932 411.587 169.948 435.986C176.369 453.365 183.011 471.333 196.186 489.689C223.545 527.799 248.371 554.909 272.45 572.488H271.161C247.271 554.837 222.649 527.86 195.562 490.129C182.325 471.691 175.663 453.672 169.226 436.247C160.241 411.94 151.758 388.974 126.768 366.044C121.652 361.348 116.376 356.656 110.794 351.688C89.5086 332.754 65.3887 311.297 44.9373 284.381C21.4314 253.45 6.52651 220.21 -0.641945 182.761C-7.08895 149.071 14.4369 128.377 41.6882 102.183C62.7485 81.9384 86.6228 58.9877 103.042 24.623C107.258 15.7978 111.71 7.77068 116.402 0.505859H117.338C112.672 7.65813 108.128 15.762 103.733 24.9504L103.743 24.9556Z" fill="#EE7700"/>
<path d="M184.382 12.0426C166.719 27.5545 165.092 41.1991 163.66 53.2372C162.851 60.0058 162.089 66.3957 158.333 71.916C135.196 109.934 110.323 124.458 90.3428 136.128C74.9416 145.122 62.7742 152.228 57.6575 167.116C45.3366 202.974 48.0331 231.619 65.9107 254.703C81.7417 275.147 107.243 288.929 131.9 302.262C164.335 319.795 194.968 336.355 201.477 366.238C203.646 376.199 205.391 385.199 207.08 393.901C216.464 442.289 222.128 471.491 275.367 517.193C300.791 540.031 329.22 551.44 360.503 551.44C402.459 551.44 449.543 530.909 501.339 489.904C528.851 468.125 518.495 455.043 506.507 439.895C499.4 430.916 492.052 421.63 491.382 409.531C487.678 382.221 472.757 361.015 448.264 348.225C400.408 327.464 373.811 296.491 366.945 253.537C360.943 215.99 370.378 175.532 379.506 136.409C389.09 95.3271 398.141 56.5217 385.083 30.7111C379.071 18.8214 371.811 8.75297 363.358 0.510975H364.463C372.732 8.70181 379.849 18.6628 385.769 30.3684C398.949 56.4296 389.867 95.3629 380.253 136.583C371.145 175.634 361.726 216.02 367.702 253.419C374.522 296.097 400.976 326.88 448.591 347.539C473.341 360.462 488.399 381.863 492.139 409.459C492.799 421.344 500.07 430.532 507.1 439.419C513.123 447.026 518.807 454.214 519.488 462.318C520.25 471.389 514.627 480.342 501.805 490.498C462.432 521.665 425.474 541.269 391.95 548.77C381.261 551.159 370.798 552.356 360.626 552.356C351.047 552.356 341.73 551.297 332.735 549.174C312.109 544.314 292.63 533.744 274.845 517.761C221.411 471.89 215.727 442.591 206.312 394.039C204.624 385.342 202.879 376.348 200.709 366.392C194.273 336.852 163.787 320.373 131.517 302.927C106.788 289.559 81.2147 275.735 65.2865 255.163C47.24 231.865 44.5026 202.979 56.9156 166.865C62.1244 151.711 74.3993 144.544 89.9386 135.468C109.848 123.839 134.628 109.371 157.673 71.5016C161.331 66.1195 162.053 60.1081 162.882 53.1451C164.335 40.974 165.977 27.1759 183.86 11.4696C187.953 7.873 192.988 4.15873 198.765 0.505859H200.198C194.027 4.3378 188.67 8.25671 184.367 12.0375L184.382 12.0426Z" fill="#EE7700"/>
<path d="M250.5 16.8312C226.549 33.658 203.217 61.3564 181.149 99.1539C166.208 124.745 145.88 140.042 127.946 153.538C103.585 171.869 84.3467 186.347 87.9744 218.19C90.9882 243.867 101.928 261.415 121.422 271.847C138.502 280.989 160.104 283.558 179.169 285.824C203.176 288.679 223.914 291.145 232.991 304.677C233.001 304.697 233.017 304.718 233.022 304.738C241.224 323.519 240.548 338.335 239.837 354.026C238.711 378.696 237.437 406.661 268.598 458.942C279.118 476.592 305.776 496.299 336.506 509.141C370.844 523.491 403.622 526.781 426.437 518.17C441.93 512.323 452.849 501.221 458.892 485.177C465.753 466.964 466.26 442.427 460.396 412.247C455.397 386.513 439.873 377.806 420.22 366.786C397.108 353.827 368.342 337.696 341.623 288.275C331.042 268.701 327.255 246.978 330.044 221.863C332.531 199.47 339.914 176.412 347.052 154.111C357.055 122.872 367.396 90.5692 364.888 58.9007C358.902 28.6903 340.185 6.76793 315.482 0.510975H318.317C328.975 3.7648 338.619 10.032 346.54 18.9135C355.965 29.4782 362.565 43.2557 365.646 58.7933C368.168 90.651 357.807 123.026 347.778 154.336C332.914 200.754 318.879 244.599 342.293 287.911C368.905 337.138 397.563 353.208 420.594 366.121C440.421 377.238 456.083 386.022 461.148 412.099C467.038 442.417 466.521 467.092 459.608 485.443C453.483 501.702 442.416 512.952 426.708 518.882C418.266 522.069 408.477 523.639 397.758 523.639C379.287 523.639 358.053 518.969 336.21 509.841C305.336 496.939 278.534 477.114 267.938 459.325C236.665 406.85 237.944 378.763 239.07 353.985C239.781 338.397 240.451 323.673 232.331 305.066C223.438 291.851 202.879 289.405 179.077 286.576C159.951 284.299 138.266 281.726 121.059 272.517C101.329 261.958 90.2565 244.215 87.2121 218.271C85.5236 203.46 88.6191 191.386 96.9542 180.269C104.465 170.247 115.645 161.831 127.485 152.924C145.363 139.469 165.625 124.223 180.489 98.7651C202.608 60.8755 226.012 33.0952 250.06 16.202C260.831 8.6353 271.668 3.37598 282.254 0.505859H285.365C273.945 3.14064 262.182 8.61995 250.5 16.8261V16.8312Z" fill="#EE7700"/>
<path d="M324.774 39.7451C319.57 34.5113 312.913 31.6361 304.987 31.191C296.371 30.7101 286.225 33.1146 274.814 38.3433C257.182 46.7746 244.631 65.8166 231.348 85.9739C218.342 105.712 204.89 126.12 185.713 137.626C165.026 153.552 150.203 168.665 141.623 182.581C133.886 195.12 131.174 206.729 133.554 217.083C137.657 234.918 157.407 248.818 187.749 255.219C198.822 257.557 210.779 258.739 222.527 258.739C230.965 258.739 239.295 258.13 247.108 256.892C266.93 253.761 281.65 246.987 288.563 237.819C309.429 210.141 310.426 198.456 311.578 184.924C312.448 174.712 313.43 163.14 323.285 142.517C331.523 125.27 336.69 104.576 337.468 85.7334C338.317 65.1617 333.81 48.8312 324.774 39.7451ZM324.226 40.2823C333.109 49.2149 337.54 65.3459 336.701 85.7027C335.928 104.448 330.786 125.035 322.589 142.189C312.678 162.94 311.685 174.584 310.81 184.862C309.669 198.277 308.682 209.865 287.949 237.364C281.154 246.373 266.607 253.039 246.985 256.14C228.386 259.076 206.85 258.467 187.908 254.472C157.873 248.133 138.333 234.442 134.301 216.91C131.967 206.759 134.649 195.345 142.277 182.975C150.807 169.141 165.569 154.094 186.148 138.25C205.432 126.677 218.935 106.198 231.988 86.3883C245.215 66.3231 257.704 47.3731 275.142 39.0288C285.606 34.23 294.856 31.8356 302.833 31.8356C311.481 31.8356 318.628 34.6495 324.226 40.2823Z" fill="#EE7700"/>
<path d="M276.087 162.114C276.343 151.396 273.171 142.949 267.154 138.339C261.029 133.648 242.87 126.844 206.644 164.953C191.693 180.23 190.828 191.158 192.742 197.63C194.912 204.992 201.932 210.543 211.991 212.87C215.317 213.638 218.98 214.052 222.838 214.052C236.73 214.052 253.134 208.711 265.363 195.45C265.378 195.435 265.394 195.414 265.404 195.394C272.035 184.788 275.826 172.97 276.087 162.114ZM275.32 162.093C275.064 172.806 271.319 184.476 264.775 194.959C249.363 211.653 227.249 215.613 212.165 212.129C202.382 209.867 195.572 204.506 193.479 197.42C191.627 191.142 192.502 180.501 207.202 165.48C242.998 127.821 260.722 134.38 266.683 138.943C272.419 143.338 275.566 151.774 275.32 162.093Z" fill="#EE7700"/>
<path d="M850.271 136.492C853.305 122.397 847.953 105.852 833.432 84.4153C833.426 84.4051 833.416 84.3948 833.411 84.3846C823.469 72.3107 809.926 66.0435 794.212 66.2737C780.269 66.4732 765.764 71.7632 753.366 81.1615C741.71 90.002 733.37 101.488 729.88 113.51C725.946 127.058 728.351 140.493 736.834 152.372C750.409 168.871 764.116 177.906 778.75 180.009C780.965 180.326 783.211 180.485 785.499 180.485C797.528 180.485 810.56 176.059 825.112 167.055C839.531 158.138 847.758 148.136 850.271 136.482V136.492ZM849.518 136.333C847.057 147.773 838.942 157.611 824.708 166.416C810.304 175.323 797.4 179.83 785.386 179.835C768.209 179.835 752.844 170.631 737.443 151.917C718.982 126.06 732.367 98.0496 753.832 81.7703C777.21 64.038 811.844 59.4079 832.807 84.8553C847.195 106.102 852.506 122.458 849.523 136.333H849.518Z" fill="#EE7700"/>
<path d="M806.267 123.441C807.965 117.03 806.783 110.21 803.186 105.637C800.377 102.066 796.397 100.214 791.705 100.285C776.303 100.894 766.848 106.542 765.758 115.782C764.663 125.037 772.384 135.576 782.28 138.333C783.907 138.789 785.503 139.009 787.069 139.009C794.78 139.009 801.605 133.575 806.251 123.502C806.261 123.481 806.267 123.461 806.272 123.441H806.267ZM805.535 123.215C800.121 134.931 791.72 140.175 782.484 137.602C772.926 134.936 765.466 124.786 766.52 115.874C767.134 110.686 771.222 101.866 791.735 101.053C796.176 100.976 799.927 102.736 802.588 106.112C806.036 110.492 807.167 117.045 805.54 123.221L805.535 123.215Z" fill="#EE7700"/>
<path d="M1367.28 408.932C1366.73 405.954 1366.19 403.14 1365.82 400.756C1360.49 367.302 1332.46 334.805 1309.95 308.698C1301.57 298.982 1293.65 289.804 1288.29 282.084C1270.8 255.48 1256.11 237.999 1242.05 227.066C1228.24 216.327 1214.05 211.18 1197.41 210.868C1168.67 210.336 1137.07 217.867 1110.72 231.563C1089.15 242.772 1060.73 263.513 1047.83 298.655C1039.55 321.232 1045.47 356.339 1063.68 392.555C1081.69 428.363 1107.01 455.611 1128.19 461.975C1152.94 470.483 1178.47 471.834 1203.17 473.144C1226.58 474.382 1250.79 475.666 1274.96 482.915C1294.24 488.702 1310.71 491.592 1324.28 491.592C1339.18 491.592 1350.59 488.108 1358.4 481.145C1377.63 463.991 1371.16 429.524 1367.29 408.927L1367.28 408.932ZM1357.88 480.577C1343.17 493.7 1315.34 494.237 1275.18 482.184C1250.93 474.904 1226.67 473.619 1203.21 472.381C1178.57 471.077 1153.09 469.731 1128.42 461.249C1107.42 454.941 1082.29 427.841 1064.37 392.212C1046.24 356.18 1040.33 321.304 1048.55 298.916C1069.52 241.79 1138.76 211.605 1194.51 211.605C1195.48 211.605 1196.43 211.615 1197.38 211.63C1230.03 212.244 1253.65 230.795 1287.65 282.509C1293.04 290.265 1300.97 299.458 1309.36 309.194C1331.82 335.23 1359.77 367.635 1365.06 400.874C1365.44 403.268 1365.97 406.087 1366.53 409.07C1370.36 429.509 1376.79 463.71 1357.87 480.582L1357.88 480.577Z" fill="#EE7700"/>
<path d="M1260.6 395.723C1267.89 384.289 1269.94 359.491 1265.68 334.018C1262.76 316.557 1254.41 284.04 1231.23 262.393C1208.51 241.187 1166.45 226.724 1095.01 278.284C1082.39 287.999 1074.36 301.516 1071.79 317.386C1069.45 331.834 1071.59 347.781 1077.96 363.497C1085.2 381.363 1097.3 397.294 1112.03 408.35C1126.01 418.848 1141.35 424.286 1156.79 424.286C1159.13 424.286 1161.47 424.158 1163.82 423.908C1172 423.376 1180.27 423.626 1188.27 423.867C1215.71 424.691 1241.62 425.463 1260.59 395.734L1260.6 395.723ZM1259.95 395.314C1241.22 424.68 1215.51 423.908 1188.3 423.094C1183.79 422.961 1179.19 422.823 1174.57 422.823C1170.97 422.823 1167.36 422.905 1163.75 423.14C1123.74 427.438 1091.6 395.089 1078.67 363.206C1068.01 336.904 1066.82 300.943 1095.47 278.888C1166.47 227.65 1208.2 241.939 1230.7 262.951C1253.71 284.444 1262.01 316.782 1264.92 334.146C1269.14 359.445 1267.15 384.028 1259.94 395.319L1259.95 395.314Z" fill="#EE7700"/>
<path d="M980.084 214.855C993.218 204.127 1005.61 200.346 1019.95 195.967C1033.27 191.9 1048.36 187.29 1068.35 176.219C1084.28 167.389 1098.01 157.269 1110.13 148.341C1123.21 138.698 1134.52 130.369 1145.97 125.278C1170.26 114.493 1190.77 109.475 1210.53 109.475C1214.1 109.475 1217.73 109.638 1221.33 109.966C1243.58 111.981 1264.83 119.998 1291.9 132.282C1312.08 141.435 1327.52 156.553 1343.86 172.561C1356.75 185.177 1370.07 198.218 1386.81 209.53L1392.1 213.101C1434.19 241.5 1453.4 254.459 1475.93 295.137C1510.6 357.696 1538.57 391.355 1595.29 401.689C1614.88 405.26 1628.02 417.401 1640.86 430.595L1641 430.743V435.138L1640.12 434.233C1627.8 421.529 1615.06 408.396 1594.73 404.692C1536.81 394.138 1508.38 360.014 1473.25 296.615C1451.06 256.577 1432.05 243.746 1390.37 215.628L1385.08 212.057C1368.12 200.592 1354.7 187.454 1341.71 174.735C1325.57 158.927 1310.31 143.993 1290.63 135.06C1235.11 109.879 1202.92 103.34 1147.22 128.066C1136.08 133.019 1124.9 141.251 1111.96 150.792C1099.77 159.776 1085.96 169.962 1069.85 178.884C1049.57 190.109 1034.32 194.77 1020.85 198.883C1006.24 203.344 994.702 206.869 982.038 217.214C955.442 238.937 943.975 261.217 944.866 289.458C945.684 315.514 957.176 344.768 970.485 378.636C975.556 391.544 980.8 404.887 985.978 419.309C999.399 456.697 1017.78 507.904 1017.25 572.5V573.006H1014.16V572.494C1014.69 508.385 996.426 457.495 983.087 420.337C977.93 405.966 972.69 392.639 967.625 379.746C954.214 345.617 942.635 316.138 941.801 289.56C941.356 275.44 943.945 262.849 949.706 251.067C955.943 238.313 965.885 226.469 980.094 214.866L980.084 214.855Z" fill="#EE7700"/>
<path d="M919.955 508.134C921.51 448.731 890.58 377.853 816.547 271.142C804.743 255.594 784.573 250.831 765.063 246.227C751.223 242.963 736.916 239.586 725.419 232.429C675.24 206.802 648.019 170.355 650.736 132.43C651.969 115.24 659.522 98.6741 672.574 84.5231C685.934 70.0497 704.937 58.3032 727.538 50.5575C731.754 49.1148 736.804 47.5544 742.146 45.9019C758.376 40.8881 778.571 34.6465 790.324 27.0133C812.326 12.7241 829.195 8.88197 843.42 14.924C856.007 20.2703 864.623 32.508 873.741 45.4619C883.417 59.2036 893.42 73.411 908.872 80.3637C926.417 88.2527 948.731 85.3672 977.093 71.5283C998.879 60.8971 1009.28 67.3638 1018.46 73.0682C1028.84 79.5196 1037.04 84.6101 1060.42 61.5929C1076.42 45.8456 1088.05 47.9278 1099.3 49.9384C1101.79 50.3835 1104.36 50.844 1106.91 51.0793C1137.01 53.8676 1158.72 49.1915 1179.71 44.674C1201.44 39.9928 1221.97 35.5776 1249.53 39.9263C1280.3 44.7814 1315.56 59.9352 1360.46 87.6183C1381.79 100.767 1400.98 114.15 1419.54 127.094C1451.7 149.533 1482.09 170.729 1520.7 189.019C1541.13 198.698 1566.75 196.161 1587.56 182.399C1610.29 167.368 1622.57 142.908 1621.24 115.281C1621.24 115.209 1621.24 115.138 1621.24 115.066C1622.26 104.24 1614.92 95.2668 1607.82 86.5849C1602.09 79.5759 1596.17 72.3315 1594.51 63.9872C1592.65 52.9979 1598.49 43.2875 1604.67 33.0042C1610.24 23.7493 1616.54 13.2613 1617.69 0.455797L1617.74 -0.00976562H1620.8L1620.75 0.54277C1619.62 14.0901 1613.08 24.9669 1607.31 34.5698C1601.17 44.7814 1595.87 53.5964 1597.53 63.4346C1599.04 70.9911 1604.46 77.6317 1610.21 84.6561C1617.67 93.7832 1625.39 103.222 1624.31 115.24C1625.01 130.051 1621.98 143.9 1615.32 156.409C1609.24 167.813 1600.23 177.677 1589.26 184.931C1567.56 199.282 1540.78 201.901 1519.38 191.766C1480.54 173.369 1450.06 152.101 1417.77 129.58C1399.25 116.662 1380.1 103.309 1358.85 90.207C1261.48 30.1853 1223.88 38.2789 1180.35 47.6516C1159.14 52.2202 1137.2 56.9423 1106.62 54.1132C1103.95 53.8625 1101.3 53.3918 1098.76 52.9365C1087.8 50.977 1077.44 49.125 1062.58 63.757C1051.22 74.9407 1042.33 80.5581 1034.61 81.4432C1027.46 82.2618 1022.3 79.0489 1016.83 75.6518C1008.33 70.3669 998.695 64.3811 978.438 74.2654C959.839 83.3362 944.019 87.7462 930.06 87.7462C899.754 87.7462 884.594 66.2076 871.219 47.2116C862.29 34.5288 853.853 22.547 842.049 17.61C828.914 12.1204 813.006 15.9166 791.992 29.5662C779.886 37.4296 759.46 43.7429 743.046 48.8129C737.73 50.4552 732.711 52.0053 728.525 53.4378C684.189 68.6326 656.247 98.2393 653.781 132.645C651.151 169.301 677.783 204.689 726.842 229.727C726.883 229.748 726.918 229.768 726.959 229.794C738.073 236.716 752.149 240.041 765.759 243.254C785.796 247.982 806.513 252.873 819.018 269.351C853.873 319.591 877.911 359.798 894.663 395.903C914.593 438.847 923.864 475.585 923.01 508.211C922.426 530.542 917.33 551.058 907.44 570.918C907.138 571.522 906.836 572.121 906.524 572.719L906.38 572.995H903.034L903.418 572.254C913.933 552.035 919.336 531.059 919.94 508.129L919.955 508.134Z" fill="#EE7700"/>
<path d="M-82.0682 350.2C-118.785 296.798 -144.374 256.924 -158.486 223.204C-171.958 190.998 -175.57 163.944 -177.53 125.277C-178.41 102.326 -186.453 75.8659 -194.226 50.2804C-196.508 42.77 -198.866 35.0038 -200.98 27.5395L-201 15.793L-199.992 19.5635C-197.413 29.2329 -194.297 39.4855 -191.289 49.3953C-183.455 75.165 -175.36 101.815 -174.46 125.139C-170.627 200.918 -162.026 228.494 -79.5355 348.476C-70.2743 361.946 -60.0768 377.054 -49.2755 393.052L-49.0299 393.415C-35.6549 413.235 -20.4943 435.695 -3.48134 460.436C0.535233 466.278 5.30397 473.364 10.83 481.565C26.8298 505.335 48.7445 537.883 73.8929 572.186L74.4864 572.995H70.6898L70.5363 572.785C45.7307 538.891 24.0872 506.741 8.28186 483.264C2.7661 475.073 -1.9924 468.003 -6.00897 462.16C-23.0782 437.332 -38.2593 414.841 -51.6548 394.996C-62.5072 378.922 -72.7559 363.737 -82.0631 350.195L-82.0682 350.2Z" fill="#EE7700"/>
<path d="M539.059 222.544C527.065 206.894 519.017 190.037 515.783 173.793C511.623 152.91 515.363 133.423 526.6 117.43C557.151 73.9431 557.284 72.265 559.454 44.1982C559.971 37.5422 560.61 29.2644 561.787 18.6485C562.529 11.9618 564.13 5.78674 566.545 0.297199L566.679 -0.00976562H570.056L569.723 0.7116C567.226 6.11929 565.584 12.2688 564.837 18.9862C563.66 29.556 563.025 37.8134 562.508 44.4591C560.283 73.2831 560.15 75.0072 529.112 119.174C518.367 134.466 514.801 153.145 518.792 173.195C525.249 205.641 551.098 239.028 587.933 262.511C618.858 282.223 637.621 290.471 678.309 305.246C682.817 306.883 687.319 308.454 691.679 309.978C722.476 320.737 751.569 330.898 774.446 361.246C784.157 374.129 802.137 400.481 813.466 432.216C824.758 463.849 826.027 491.251 817.252 513.669C810.416 531.131 795.885 552.142 776.334 572.837L776.18 572.995H771.959L772.783 572.136C792.743 551.267 807.52 530.107 814.392 512.564C822.896 490.847 821.611 464.156 810.575 433.235C799.379 401.878 781.599 375.817 771.99 363.073C749.676 333.466 722.328 323.914 690.66 312.853C686.526 311.411 681.839 309.773 677.255 308.111C636.327 293.254 617.441 284.95 586.275 265.079C567.579 253.159 551.252 238.45 539.059 222.539V222.544Z" fill="#EE7700"/>
<path d="M-25.0648 295.511C-30.4476 285.959 -35.9173 276.729 -41.213 267.792C-64.6525 228.234 -84.894 194.069 -89.0129 149.672C-91.0289 127.944 -88.9413 105.403 -82.6273 80.7482C-76.3031 56.0529 -65.8651 29.7307 -50.7147 0.272362L-50.5714 -0.00390625H-47.1228L-47.5065 0.737924C-116.612 134.518 -82.1719 192.647 -38.5677 266.242C-33.2771 275.169 -27.8074 284.404 -22.3888 294.012C4.53508 341.78 36.3096 383.788 67.0454 424.42C75.0939 435.65 83.4392 447.576 92.2757 460.202L92.378 460.345C117.327 495.994 145.607 536.401 175.002 572.162L175.682 572.991H171.717L171.564 572.802C142.501 537.306 114.528 497.345 89.8453 462.069C80.9832 449.407 72.6124 437.446 64.5638 426.211C33.7871 385.523 1.95629 343.448 -25.0648 295.5V295.511Z" fill="#EE7700"/>
<path d="M116.719 330.304C107.954 323.765 99.6706 317.59 92.5738 311.236L90.8494 309.691C65.1177 286.654 46.5238 270.011 33.0413 233.738C26.7018 216.676 23.6523 201.778 23.7239 188.184C23.7853 175.983 26.3743 165.131 31.6394 155.002C41.3662 136.272 58.9624 123.057 75.9804 110.272C98.6114 93.2711 122.01 75.6923 126.958 44.9396C126.871 28.8546 129.45 15.9417 134.848 5.46908C135.779 3.66311 136.818 1.89806 137.928 0.225107L138.081 0H141.786L141.218 0.803223C133.563 11.6339 129.9 26.1073 130.023 45.047C130.023 45.1289 130.018 45.2107 130.002 45.2977C124.896 77.3397 100.965 95.3226 77.8173 112.707C43.0444 138.83 10.2005 163.505 35.9118 232.684C49.1332 268.251 66.5402 283.835 92.8961 307.43L94.6204 308.975C101.615 315.237 109.842 321.376 118.556 327.869C142.645 345.831 169.953 366.193 178.375 395.958C202.464 481.09 248.32 542.605 304.184 564.732C312.483 568.017 321.084 570.462 329.752 571.992L329.665 573H319.917L319.856 572.985C314.161 571.547 308.507 569.721 303.053 567.562C273.09 555.697 246.217 533.079 223.182 500.342C202.991 471.646 186.475 435.833 175.428 396.782C167.287 368.009 140.42 347.98 116.719 330.304Z" fill="#EE7700"/>
<path d="M525.306 518.658C542.948 515.113 561.194 511.445 581.374 504.625C607.72 495.723 640.251 468.956 646.867 441.237C650.408 426.41 646.381 413.006 634.9 401.403C621.274 387.631 603.258 387.134 585.836 386.653C568.869 386.188 551.329 385.702 538.711 372.574C522.716 355.931 501.14 345.602 480.269 335.61C464.591 328.105 448.376 320.344 434.961 310.02C419.841 298.391 409.868 284.618 404.475 267.915C390.333 224.147 392.385 209.069 399.185 159.06C401.707 140.489 404.854 117.374 408.078 86.1661C409.275 48.8341 410.257 20.8287 412.058 0.461656L412.099 -0.00390625H415.174L415.123 0.54863C413.327 20.8032 412.34 48.8648 411.142 86.294C411.142 86.3298 411.142 86.3656 411.137 86.4065C407.898 117.732 404.752 140.888 402.219 159.505C395.496 208.952 393.47 223.87 407.397 266.978C419.002 302.888 449.41 317.443 481.599 332.858C502.715 342.967 524.553 353.419 540.932 370.461C552.68 382.683 568.828 383.128 585.928 383.599C603.959 384.095 622.599 384.612 637.095 399.259C649.364 411.661 653.657 426.022 649.861 441.938C645.752 459.153 633.293 473.407 623.561 482.329C611.204 493.661 596.192 502.839 582.372 507.51C561.997 514.397 543.654 518.08 525.92 521.646C499.415 526.972 474.379 532.001 448.75 547.221C427.741 559.694 406.998 568.366 387.094 572.986L376.549 573.001L376.467 571.993C399.144 568.223 422.931 559.009 447.184 544.607C473.264 529.121 498.551 524.04 525.321 518.663L525.306 518.658Z" fill="#EE7700"/>
<path d="M1032.47 297.439C1027.39 316.256 1027.96 342.143 1034.02 368.466C1038.88 389.528 1049.49 420.537 1072.46 448.665C1087.84 467.502 1106.36 481.955 1127.49 491.62C1151.4 502.547 1178.57 507.265 1208.25 505.627C1235.21 504.686 1255.18 520.587 1276.32 537.439C1293.03 550.756 1310.29 564.513 1331.63 569.803C1331.7 569.819 1331.76 569.829 1331.83 569.839C1333.45 570.028 1335.08 570.126 1336.65 570.126C1362.97 570.126 1378.06 544.1 1392.65 518.929C1395.27 514.412 1397.96 509.751 1400.65 505.407C1403.77 500.378 1407.16 495.769 1410.44 491.307C1423.12 474.046 1434.07 459.138 1421.37 432.202C1398.55 386.131 1378.72 358.515 1329.14 303.737C1321.86 293.832 1314.99 282.439 1308.35 271.419C1287.48 236.803 1265.9 201.011 1224.89 195.266C1182.76 189.362 1138.13 198.847 1099.23 221.967C1065.15 242.216 1039.58 271.137 1032.47 297.444L1032.47 297.439ZM1418.6 433.521C1430.51 458.8 1420.06 473.033 1407.96 489.507C1404.64 494.019 1401.22 498.68 1398.03 503.806C1395.32 508.201 1392.61 512.877 1389.99 517.394C1375.82 541.834 1361.2 567.061 1336.55 567.066C1335.16 567.066 1333.74 566.984 1332.28 566.821C1311.63 561.674 1294.67 548.152 1278.26 535.075C1256.65 517.855 1236.24 501.601 1208.11 502.583C1138.77 506.405 1097.36 474.327 1074.84 446.747C1037.45 400.958 1025.44 335.278 1035.44 298.232C1042.34 272.662 1067.38 244.442 1100.8 224.581C1139.1 201.82 1183.02 192.478 1224.45 198.285C1264.01 203.825 1285.21 238.983 1305.71 272.979C1312.41 284.086 1319.32 295.567 1326.7 305.594C1326.73 305.635 1326.77 305.676 1326.8 305.717C1376.21 360.285 1395.94 387.758 1418.6 433.521Z" fill="#EE7700"/>
<path d="M1189.2 334.197C1192.93 319.442 1189.18 304.856 1179.4 296.133C1179.36 296.097 1179.32 296.067 1179.28 296.036C1162.98 284.607 1133.13 287.001 1119.04 300.871C1112.93 306.882 1104.9 320.169 1119.75 341.59C1119.79 341.63 1119.82 341.671 1119.85 341.707C1132.43 355.868 1144.97 363.046 1157.12 363.046C1159.42 363.046 1161.71 362.775 1163.91 362.243C1175.86 359.353 1185.56 348.604 1189.2 334.192L1189.2 334.197ZM1186.72 333.578C1183.3 347.074 1174.33 357.112 1163.3 359.777C1154.31 361.957 1139.81 360.304 1121.82 340.085C1111.63 325.361 1111.29 312.08 1120.84 302.682C1127.12 296.502 1137.22 292.434 1148.56 291.529C1159.85 290.628 1170.49 293.012 1177.76 298.077C1186.78 306.176 1190.22 319.78 1186.72 333.583V333.578Z" fill="#EE7700"/>
<path d="M1238.75 348.753C1241.33 331.036 1237.39 310.725 1227.92 293.029C1218.64 275.68 1205.42 263.954 1192.56 261.662C1152.29 254.495 1137.97 264.532 1106.61 286.532C1093.36 295.817 1088.61 313.8 1093.56 335.876C1096.79 350.242 1104.01 365.186 1113.38 376.881C1123.39 389.375 1135.12 397.351 1146.4 399.336C1153.12 400.078 1159.51 400.446 1165.56 400.446C1185.55 400.446 1201.85 396.409 1214.18 388.387C1227.76 379.557 1236.26 365.851 1238.75 348.748L1238.75 348.753ZM1238 348.641C1235.53 365.524 1227.16 379.045 1213.77 387.753C1197.85 398.108 1175.21 401.751 1146.51 398.584C1135.44 396.629 1123.88 388.756 1113.98 376.406C1104.68 364.797 1097.51 349.966 1094.31 335.707C1089.43 313.949 1094.07 296.252 1107.05 287.156C1131.53 269.991 1145.56 260.148 1169.79 260.148C1176.43 260.148 1183.83 260.885 1192.43 262.414C1205.06 264.66 1218.08 276.243 1227.25 293.387C1236.63 310.945 1240.55 331.082 1238 348.646V348.641Z" fill="#EE7700"/>
<path d="M1302.03 403.872C1310.01 377.74 1303.64 345.135 1284.98 316.649C1278.64 306.969 1273.11 297.433 1267.75 288.213C1246.28 251.25 1229.33 222.057 1185.44 228.258C1123.84 236.961 1083.59 257.885 1065.8 290.449C1049.5 320.307 1058.57 352.865 1069.05 374.921C1086.27 411.148 1115.62 437.792 1128.29 440.258C1147.25 447.139 1173.15 451.498 1199.36 452.219C1201.93 452.291 1204.48 452.327 1206.99 452.327C1231.45 452.327 1252.63 448.996 1267.23 442.796C1284.45 435.48 1296.48 422.024 1302.03 403.878V403.872ZM1301.29 403.652C1295.81 421.579 1283.93 434.871 1266.93 442.089C1232.27 456.808 1165.27 452.879 1128.52 439.531C1128.5 439.526 1128.48 439.521 1128.46 439.516C1115.96 437.122 1086.87 410.641 1069.74 374.598C1059.33 352.702 1050.32 320.394 1066.47 290.817C1084.13 258.479 1124.19 237.687 1185.53 229.02C1189.45 228.468 1193.16 228.197 1196.67 228.197C1231.99 228.197 1247.68 255.205 1267.07 288.602C1272.44 297.832 1277.98 307.378 1284.33 317.073C1302.86 345.37 1309.2 377.74 1301.28 403.658L1301.29 403.652Z" fill="#EE7700"/>
</g>
<defs>
<clipPath id="clip0_47331_2589">
<rect width="1842" height="573" fill="white" transform="translate(-201)"/>
</clipPath>
</defs>
</svg>
