<svg width="125" height="24" viewBox="0 0 125 24" fill="none" xmlns="http://www.w3.org/2000/svg">
<path d="M6.024 18.288C4.328 18.288 3.032 17.76 2.136 16.704C1.256 15.648 0.816 13.992 0.816 11.736C0.816 9.48 1.256 7.824 2.136 6.768C3.032 5.712 4.328 5.184 6.024 5.184C7.256 5.184 8.232 5.464 8.952 6.024C9.688 6.584 10.216 7.352 10.536 8.328L8.16 9.384C8.032 8.776 7.8 8.32 7.464 8.016C7.144 7.696 6.664 7.536 6.024 7.536C4.584 7.536 3.864 8.4 3.864 10.128V13.344C3.864 15.072 4.584 15.936 6.024 15.936C6.696 15.936 7.208 15.776 7.56 15.456C7.912 15.136 8.176 14.64 8.352 13.968L10.608 15.048C9.872 17.208 8.344 18.288 6.024 18.288ZM17.1111 18.288C15.4471 18.288 14.1511 17.76 13.2231 16.704C12.3111 15.648 11.8551 13.992 11.8551 11.736C11.8551 9.48 12.3111 7.824 13.2231 6.768C14.1511 5.712 15.4471 5.184 17.1111 5.184C18.7751 5.184 20.0631 5.712 20.9751 6.768C21.9031 7.824 22.3671 9.48 22.3671 11.736C22.3671 13.992 21.9031 15.648 20.9751 16.704C20.0631 17.76 18.7751 18.288 17.1111 18.288ZM17.1111 15.936C18.5831 15.936 19.3191 15.072 19.3191 13.344V10.128C19.3191 8.4 18.5831 7.536 17.1111 7.536C15.6391 7.536 14.9031 8.4 14.9031 10.128V13.344C14.9031 15.072 15.6391 15.936 17.1111 15.936ZM24.7637 18V5.472H27.6677V7.56H28.0037C28.4997 5.976 29.4837 5.184 30.9557 5.184C32.5237 5.184 33.5397 6.008 34.0037 7.656H34.2917C34.5637 6.808 34.9797 6.184 35.5397 5.784C36.1157 5.384 36.8117 5.184 37.6277 5.184C38.6837 5.184 39.5077 5.568 40.0997 6.336C40.6917 7.088 40.9877 8.168 40.9877 9.576V18H38.0837V10.08C38.0837 8.448 37.4997 7.632 36.3317 7.632C35.7717 7.632 35.2917 7.808 34.8917 8.16C34.5077 8.496 34.3157 8.976 34.3157 9.6V18H31.4117V10.08C31.4117 9.216 31.2677 8.592 30.9797 8.208C30.6917 7.824 30.2597 7.632 29.6837 7.632C29.1237 7.632 28.6437 7.808 28.2437 8.16C27.8597 8.496 27.6677 8.976 27.6677 9.6V18H24.7637ZM45.4459 3.504C44.8379 3.504 44.3979 3.376 44.1259 3.12C43.8539 2.848 43.7179 2.488 43.7179 2.04V1.56C43.7179 1.112 43.8539 0.759999 44.1259 0.503999C44.3979 0.231999 44.8379 0.0959988 45.4459 0.0959988C46.0539 0.0959988 46.4939 0.231999 46.7659 0.503999C47.0379 0.759999 47.1739 1.112 47.1739 1.56V2.04C47.1739 2.488 47.0379 2.848 46.7659 3.12C46.4939 3.376 46.0539 3.504 45.4459 3.504ZM44.0059 5.472H46.9099V18H44.0059V5.472ZM50.0527 18V5.472H52.9568V7.56H53.2928C53.7888 5.976 54.7888 5.184 56.2928 5.184C57.4128 5.184 58.2768 5.568 58.8848 6.336C59.4928 7.088 59.7968 8.168 59.7968 9.576V18H56.8928V10.08C56.8928 8.448 56.2848 7.632 55.0688 7.632C54.4768 7.632 53.9728 7.808 53.5568 8.16C53.1568 8.496 52.9568 8.976 52.9568 9.6V18H50.0527ZM73.0742 19.104C73.0742 19.76 72.9702 20.336 72.7622 20.832C72.5702 21.328 72.2422 21.744 71.7782 22.08C71.3142 22.416 70.6982 22.664 69.9302 22.824C69.1622 23 68.2182 23.088 67.0982 23.088C66.1062 23.088 65.2742 23.016 64.6022 22.872C63.9302 22.744 63.3862 22.552 62.9702 22.296C62.5542 22.04 62.2582 21.728 62.0822 21.36C61.9062 20.992 61.8182 20.576 61.8182 20.112C61.8182 19.472 61.9942 18.968 62.3462 18.6C62.6982 18.232 63.2022 18 63.8582 17.904V17.448C63.3462 17.32 62.9622 17.08 62.7062 16.728C62.4662 16.376 62.3462 15.944 62.3462 15.432C62.3462 14.92 62.5222 14.496 62.8742 14.16C63.2262 13.808 63.7382 13.568 64.4102 13.44V13.128C63.0502 12.456 62.3702 11.224 62.3702 9.432C62.3702 8.072 62.7542 7.024 63.5222 6.288C64.2902 5.552 65.4822 5.184 67.0982 5.184C67.8182 5.184 68.4742 5.296 69.0662 5.52V5.064C69.0662 3.928 69.6102 3.36 70.6982 3.36H72.4502V5.616H70.0262V6.096C70.6182 6.384 71.0662 6.816 71.3702 7.392C71.6742 7.952 71.8262 8.632 71.8262 9.432C71.8262 10.792 71.4422 11.84 70.6742 12.576C69.9222 13.296 68.7302 13.656 67.0982 13.656C66.4422 13.656 65.8342 13.592 65.2742 13.464C65.0502 13.56 64.8822 13.712 64.7702 13.92C64.6582 14.128 64.6022 14.36 64.6022 14.616C64.6022 14.936 64.7062 15.176 64.9142 15.336C65.1222 15.496 65.4662 15.576 65.9462 15.576H69.1382C70.5622 15.576 71.5702 15.88 72.1622 16.488C72.7702 17.096 73.0742 17.968 73.0742 19.104ZM70.3622 19.44C70.3622 19.008 70.2182 18.68 69.9302 18.456C69.6422 18.232 69.1622 18.12 68.4902 18.12H64.6262C64.2742 18.424 64.0982 18.872 64.0982 19.464C64.0982 19.976 64.2662 20.368 64.6022 20.64C64.9542 20.912 65.5622 21.048 66.4262 21.048H67.8422C68.7542 21.048 69.4022 20.912 69.7862 20.64C70.1702 20.384 70.3622 19.984 70.3622 19.44ZM67.0982 11.664C68.4262 11.664 69.0902 11.008 69.0902 9.696V9.144C69.0902 7.832 68.4262 7.176 67.0982 7.176C65.7702 7.176 65.1062 7.832 65.1062 9.144V9.696C65.1062 11.008 65.7702 11.664 67.0982 11.664ZM83.5166 18.288C82.4766 18.288 81.5646 18.104 80.7806 17.736C79.9966 17.352 79.3086 16.784 78.7166 16.032L80.4926 14.304C80.8926 14.864 81.3406 15.288 81.8366 15.576C82.3326 15.864 82.9086 16.008 83.5646 16.008C84.7806 16.008 85.3886 15.496 85.3886 14.472C85.3886 14.072 85.2846 13.76 85.0766 13.536C84.8846 13.296 84.5486 13.136 84.0686 13.056L82.8926 12.84C81.5806 12.6 80.6286 12.192 80.0366 11.616C79.4446 11.04 79.1486 10.2 79.1486 9.096C79.1486 7.784 79.5326 6.808 80.3006 6.168C81.0686 5.512 82.1566 5.184 83.5646 5.184C84.5406 5.184 85.3806 5.344 86.0846 5.664C86.8046 5.984 87.4286 6.456 87.9566 7.08L86.2526 8.784C85.9326 8.384 85.5406 8.064 85.0766 7.824C84.6286 7.584 84.1246 7.464 83.5646 7.464C82.4446 7.464 81.8846 7.968 81.8846 8.976C81.8846 9.392 81.9966 9.712 82.2206 9.936C82.4446 10.144 82.7966 10.288 83.2766 10.368L84.4766 10.584C85.7886 10.824 86.7246 11.232 87.2846 11.808C87.8606 12.368 88.1486 13.16 88.1486 14.184C88.1486 15.48 87.7486 16.488 86.9486 17.208C86.1486 17.928 85.0046 18.288 83.5166 18.288ZM94.9939 18.288C93.3299 18.288 92.0339 17.76 91.1059 16.704C90.1939 15.648 89.7379 13.992 89.7379 11.736C89.7379 9.48 90.1939 7.824 91.1059 6.768C92.0339 5.712 93.3299 5.184 94.9939 5.184C96.6579 5.184 97.9459 5.712 98.8579 6.768C99.7859 7.824 100.25 9.48 100.25 11.736C100.25 13.992 99.7859 15.648 98.8579 16.704C97.9459 17.76 96.6579 18.288 94.9939 18.288ZM94.9939 15.936C96.4659 15.936 97.2019 15.072 97.2019 13.344V10.128C97.2019 8.4 96.4659 7.536 94.9939 7.536C93.5219 7.536 92.7859 8.4 92.7859 10.128V13.344C92.7859 15.072 93.5219 15.936 94.9939 15.936ZM107.135 18.288C105.471 18.288 104.175 17.76 103.247 16.704C102.335 15.648 101.879 13.992 101.879 11.736C101.879 9.48 102.335 7.824 103.247 6.768C104.175 5.712 105.471 5.184 107.135 5.184C108.799 5.184 110.087 5.712 110.999 6.768C111.927 7.824 112.391 9.48 112.391 11.736C112.391 13.992 111.927 15.648 110.999 16.704C110.087 17.76 108.799 18.288 107.135 18.288ZM107.135 15.936C108.607 15.936 109.343 15.072 109.343 13.344V10.128C109.343 8.4 108.607 7.536 107.135 7.536C105.663 7.536 104.927 8.4 104.927 10.128V13.344C104.927 15.072 105.663 15.936 107.135 15.936ZM114.787 18V5.472H117.691V7.56H118.027C118.523 5.976 119.523 5.184 121.027 5.184C122.147 5.184 123.011 5.568 123.619 6.336C124.227 7.088 124.531 8.168 124.531 9.576V18H121.627V10.08C121.627 8.448 121.019 7.632 119.803 7.632C119.211 7.632 118.707 7.808 118.291 8.16C117.891 8.496 117.691 8.976 117.691 9.6V18H114.787Z" fill="white" fill-opacity="0.5"/>
</svg>
