<svg width="246" height="24" viewBox="0 0 246 24" fill="none" xmlns="http://www.w3.org/2000/svg">
<path d="M6.656 18.288C5.664 18.288 4.768 18.136 3.968 17.832C3.168 17.512 2.48 17.008 1.904 16.32C1.344 15.632 0.904 14.744 0.584 13.656C0.28 12.568 0.128 11.256 0.128 9.72C0.128 8.168 0.28 6.84 0.584 5.736C0.904 4.632 1.344 3.728 1.904 3.024C2.48 2.32 3.168 1.8 3.968 1.464C4.768 1.128 5.664 0.959999 6.656 0.959999C7.392 0.959999 8.048 1.04 8.624 1.2C9.2 1.36 9.712 1.6 10.16 1.92C10.608 2.224 11 2.616 11.336 3.096C11.672 3.576 11.976 4.136 12.248 4.776L9.704 6.12C9.448 5.208 9.088 4.552 8.624 4.152C8.16 3.752 7.504 3.552 6.656 3.552C5.6 3.552 4.776 3.896 4.184 4.584C3.608 5.272 3.32 6.256 3.32 7.536V11.712C3.32 12.992 3.608 13.976 4.184 14.664C4.776 15.352 5.6 15.696 6.656 15.696C7.504 15.696 8.176 15.48 8.672 15.048C9.184 14.616 9.584 13.92 9.872 12.96L12.32 14.4C12.048 15.024 11.736 15.576 11.384 16.056C11.032 16.536 10.624 16.944 10.16 17.28C9.712 17.6 9.2 17.848 8.624 18.024C8.048 18.2 7.392 18.288 6.656 18.288ZM19.2573 18.288C18.4413 18.288 17.6893 18.16 17.0013 17.904C16.3293 17.632 15.7533 17.232 15.2733 16.704C14.7933 16.16 14.4173 15.48 14.1453 14.664C13.8893 13.832 13.7613 12.856 13.7613 11.736C13.7613 9.48 14.2093 7.824 15.1053 6.768C16.0173 5.712 17.3133 5.184 18.9933 5.184C20.6733 5.184 21.9613 5.712 22.8573 6.768C23.7693 7.824 24.2253 9.48 24.2253 11.736V12.432H16.8093V13.248C16.8093 14.08 17.0413 14.736 17.5053 15.216C17.9693 15.696 18.6093 15.936 19.4253 15.936C20.1133 15.936 20.6893 15.792 21.1533 15.504C21.6333 15.2 22.0413 14.768 22.3773 14.208L23.9613 15.864C23.4973 16.6 22.8733 17.192 22.0893 17.64C21.3053 18.072 20.3613 18.288 19.2573 18.288ZM18.9933 7.416C17.5373 7.416 16.8093 8.28 16.8093 10.008V10.632H21.1773V10.008C21.1773 8.28 20.4493 7.416 18.9933 7.416ZM26.6465 18V5.472H29.5505V8.04H29.8865C30.0305 7.208 30.3265 6.576 30.7745 6.144C31.2385 5.696 31.8385 5.472 32.5745 5.472H33.1985V8.448H32.2385C31.3265 8.448 30.6465 8.592 30.1985 8.88C29.7665 9.168 29.5505 9.672 29.5505 10.392V18H26.6465ZM38.8916 18C37.8836 18 37.1556 17.776 36.7076 17.328C36.2596 16.88 36.0356 16.168 36.0356 15.192V7.8H34.3796V5.472H35.2436C35.6596 5.472 35.9396 5.376 36.0836 5.184C36.2436 4.992 36.3236 4.688 36.3236 4.272V2.064H38.9396V5.472H41.1956V7.8H38.9396V15.672H41.0036V18H38.8916ZM44.8912 3.504C44.2832 3.504 43.8432 3.376 43.5712 3.12C43.2992 2.848 43.1632 2.488 43.1632 2.04V1.56C43.1632 1.112 43.2992 0.759999 43.5712 0.503999C43.8432 0.231999 44.2832 0.0959988 44.8912 0.0959988C45.4992 0.0959988 45.9392 0.231999 46.2112 0.503999C46.4832 0.759999 46.6192 1.112 46.6192 1.56V2.04C46.6192 2.488 46.4832 2.848 46.2112 3.12C45.9392 3.376 45.4992 3.504 44.8912 3.504ZM43.4512 5.472H46.3552V18H43.4512V5.472ZM50.0981 7.8H48.4421V5.472H50.0981V3.528C50.0981 2.392 50.3461 1.56 50.8421 1.032C51.3541 0.504 52.1381 0.24 53.1941 0.24H55.2101V2.568H53.0021V5.472H60.0341V18H57.1301V7.8H53.0021V18H50.0981V7.8ZM58.5701 3.504C57.9621 3.504 57.5221 3.376 57.2501 3.12C56.9781 2.848 56.8421 2.488 56.8421 2.04V1.56C56.8421 1.112 56.9781 0.759999 57.2501 0.503999C57.5221 0.231999 57.9621 0.0959988 58.5701 0.0959988C59.1781 0.0959988 59.6181 0.231999 59.8901 0.503999C60.1621 0.759999 60.2981 1.112 60.2981 1.56V2.04C60.2981 2.488 60.1621 2.848 59.8901 3.12C59.6181 3.376 59.1781 3.504 58.5701 3.504ZM67.6256 18.288C65.9296 18.288 64.6336 17.76 63.7376 16.704C62.8576 15.648 62.4176 13.992 62.4176 11.736C62.4176 9.48 62.8576 7.824 63.7376 6.768C64.6336 5.712 65.9296 5.184 67.6256 5.184C68.8576 5.184 69.8336 5.464 70.5536 6.024C71.2896 6.584 71.8176 7.352 72.1376 8.328L69.7616 9.384C69.6336 8.776 69.4016 8.32 69.0656 8.016C68.7456 7.696 68.2656 7.536 67.6256 7.536C66.1856 7.536 65.4656 8.4 65.4656 10.128V13.344C65.4656 15.072 66.1856 15.936 67.6256 15.936C68.2976 15.936 68.8096 15.776 69.1616 15.456C69.5136 15.136 69.7776 14.64 69.9536 13.968L72.2096 15.048C71.4736 17.208 69.9456 18.288 67.6256 18.288ZM82.4784 18C81.1824 18 80.5024 17.288 80.4384 15.864H80.1504C79.9904 16.632 79.6304 17.232 79.0704 17.664C78.5104 18.08 77.8144 18.288 76.9824 18.288C75.8304 18.288 74.9664 17.968 74.3904 17.328C73.8144 16.688 73.5264 15.792 73.5264 14.64C73.5264 13.328 73.9344 12.352 74.7504 11.712C75.5664 11.072 76.7424 10.752 78.2784 10.752H80.2224V9.672C80.2224 8.936 80.0624 8.392 79.7424 8.04C79.4384 7.688 78.9264 7.512 78.2064 7.512C77.6144 7.512 77.1184 7.656 76.7184 7.944C76.3184 8.216 75.9664 8.608 75.6624 9.12L73.9584 7.584C74.4224 6.864 75.0064 6.288 75.7104 5.856C76.4304 5.408 77.3424 5.184 78.4464 5.184C81.5664 5.184 83.1264 6.656 83.1264 9.6V15.672H84.2304V18H82.4784ZM78.0864 16.152C78.6784 16.152 79.1824 15.984 79.5984 15.648C80.0144 15.296 80.2224 14.816 80.2224 14.208V12.552H78.4704C77.1264 12.552 76.4544 13.072 76.4544 14.112V14.64C76.4544 15.168 76.5984 15.552 76.8864 15.792C77.1744 16.032 77.5744 16.152 78.0864 16.152ZM89.7978 18C88.7898 18 88.0618 17.776 87.6138 17.328C87.1658 16.88 86.9418 16.168 86.9418 15.192V7.8H85.2858V5.472H86.1498C86.5658 5.472 86.8458 5.376 86.9898 5.184C87.1498 4.992 87.2298 4.688 87.2298 4.272V2.064H89.8458V5.472H92.1018V7.8H89.8458V15.672H91.9098V18H89.7978ZM95.7974 3.504C95.1894 3.504 94.7494 3.376 94.4774 3.12C94.2054 2.848 94.0694 2.488 94.0694 2.04V1.56C94.0694 1.112 94.2054 0.759999 94.4774 0.503999C94.7494 0.231999 95.1894 0.0959988 95.7974 0.0959988C96.4054 0.0959988 96.8454 0.231999 97.1174 0.503999C97.3894 0.759999 97.5254 1.112 97.5254 1.56V2.04C97.5254 2.488 97.3894 2.848 97.1174 3.12C96.8454 3.376 96.4054 3.504 95.7974 3.504ZM94.3574 5.472H97.2614V18H94.3574V5.472ZM104.892 18.288C103.228 18.288 101.932 17.76 101.004 16.704C100.092 15.648 99.6363 13.992 99.6363 11.736C99.6363 9.48 100.092 7.824 101.004 6.768C101.932 5.712 103.228 5.184 104.892 5.184C106.556 5.184 107.844 5.712 108.756 6.768C109.684 7.824 110.148 9.48 110.148 11.736C110.148 13.992 109.684 15.648 108.756 16.704C107.844 17.76 106.556 18.288 104.892 18.288ZM104.892 15.936C106.364 15.936 107.1 15.072 107.1 13.344V10.128C107.1 8.4 106.364 7.536 104.892 7.536C103.42 7.536 102.684 8.4 102.684 10.128V13.344C102.684 15.072 103.42 15.936 104.892 15.936ZM112.545 18V5.472H115.449V7.56H115.785C116.281 5.976 117.281 5.184 118.785 5.184C119.905 5.184 120.769 5.568 121.377 6.336C121.985 7.088 122.289 8.168 122.289 9.576V18H119.385V10.08C119.385 8.448 118.777 7.632 117.561 7.632C116.969 7.632 116.465 7.808 116.049 8.16C115.649 8.496 115.449 8.976 115.449 9.6V18H112.545ZM131.844 3.504C131.236 3.504 130.796 3.376 130.524 3.12C130.252 2.848 130.116 2.488 130.116 2.04V1.56C130.116 1.112 130.252 0.759999 130.524 0.503999C130.796 0.231999 131.236 0.0959988 131.844 0.0959988C132.452 0.0959988 132.892 0.231999 133.164 0.503999C133.436 0.759999 133.572 1.112 133.572 1.56V2.04C133.572 2.488 133.436 2.848 133.164 3.12C132.892 3.376 132.452 3.504 131.844 3.504ZM130.404 5.472H133.308V18H130.404V5.472ZM136.451 18V5.472H139.355V7.56H139.691C140.187 5.976 141.187 5.184 142.691 5.184C143.811 5.184 144.675 5.568 145.283 6.336C145.891 7.088 146.195 8.168 146.195 9.576V18H143.291V10.08C143.291 8.448 142.683 7.632 141.467 7.632C140.875 7.632 140.371 7.808 139.955 8.16C139.555 8.496 139.355 8.976 139.355 9.6V18H136.451ZM154.311 5.472H157.215V7.536H157.551C157.727 6.832 158.079 6.264 158.607 5.832C159.151 5.4 159.783 5.184 160.503 5.184C161.975 5.184 163.063 5.744 163.767 6.864C164.471 7.968 164.823 9.592 164.823 11.736C164.823 13.88 164.471 15.512 163.767 16.632C163.063 17.736 161.975 18.288 160.503 18.288C159.783 18.288 159.151 18.072 158.607 17.64C158.079 17.208 157.727 16.64 157.551 15.936H157.215V22.8H154.311V5.472ZM159.399 15.888C160.151 15.888 160.735 15.656 161.151 15.192C161.567 14.728 161.775 14.072 161.775 13.224V10.248C161.775 9.4 161.567 8.744 161.151 8.28C160.735 7.816 160.151 7.584 159.399 7.584C158.743 7.584 158.215 7.752 157.815 8.088C157.415 8.408 157.215 8.864 157.215 9.456V14.016C157.215 14.608 157.415 15.072 157.815 15.408C158.215 15.728 158.743 15.888 159.399 15.888ZM167.365 18V5.472H170.269V8.04H170.605C170.749 7.208 171.045 6.576 171.493 6.144C171.957 5.696 172.557 5.472 173.293 5.472H173.917V8.448H172.957C172.045 8.448 171.365 8.592 170.917 8.88C170.485 9.168 170.269 9.672 170.269 10.392V18H167.365ZM180.338 18.288C178.674 18.288 177.378 17.76 176.45 16.704C175.538 15.648 175.082 13.992 175.082 11.736C175.082 9.48 175.538 7.824 176.45 6.768C177.378 5.712 178.674 5.184 180.338 5.184C182.002 5.184 183.29 5.712 184.202 6.768C185.13 7.824 185.594 9.48 185.594 11.736C185.594 13.992 185.13 15.648 184.202 16.704C183.29 17.76 182.002 18.288 180.338 18.288ZM180.338 15.936C181.81 15.936 182.546 15.072 182.546 13.344V10.128C182.546 8.4 181.81 7.536 180.338 7.536C178.866 7.536 178.13 8.4 178.13 10.128V13.344C178.13 15.072 178.866 15.936 180.338 15.936ZM198.238 19.104C198.238 19.76 198.134 20.336 197.926 20.832C197.734 21.328 197.406 21.744 196.942 22.08C196.478 22.416 195.862 22.664 195.094 22.824C194.326 23 193.382 23.088 192.262 23.088C191.27 23.088 190.438 23.016 189.766 22.872C189.094 22.744 188.55 22.552 188.134 22.296C187.718 22.04 187.422 21.728 187.246 21.36C187.07 20.992 186.982 20.576 186.982 20.112C186.982 19.472 187.158 18.968 187.51 18.6C187.862 18.232 188.366 18 189.022 17.904V17.448C188.51 17.32 188.126 17.08 187.87 16.728C187.63 16.376 187.51 15.944 187.51 15.432C187.51 14.92 187.686 14.496 188.038 14.16C188.39 13.808 188.902 13.568 189.574 13.44V13.128C188.214 12.456 187.534 11.224 187.534 9.432C187.534 8.072 187.918 7.024 188.686 6.288C189.454 5.552 190.646 5.184 192.262 5.184C192.982 5.184 193.638 5.296 194.23 5.52V5.064C194.23 3.928 194.774 3.36 195.862 3.36H197.614V5.616H195.19V6.096C195.782 6.384 196.23 6.816 196.534 7.392C196.838 7.952 196.99 8.632 196.99 9.432C196.99 10.792 196.606 11.84 195.838 12.576C195.086 13.296 193.894 13.656 192.262 13.656C191.606 13.656 190.998 13.592 190.438 13.464C190.214 13.56 190.046 13.712 189.934 13.92C189.822 14.128 189.766 14.36 189.766 14.616C189.766 14.936 189.87 15.176 190.078 15.336C190.286 15.496 190.63 15.576 191.11 15.576H194.302C195.726 15.576 196.734 15.88 197.326 16.488C197.934 17.096 198.238 17.968 198.238 19.104ZM195.526 19.44C195.526 19.008 195.382 18.68 195.094 18.456C194.806 18.232 194.326 18.12 193.654 18.12H189.79C189.438 18.424 189.262 18.872 189.262 19.464C189.262 19.976 189.43 20.368 189.766 20.64C190.118 20.912 190.726 21.048 191.59 21.048H193.006C193.918 21.048 194.566 20.912 194.95 20.64C195.334 20.384 195.526 19.984 195.526 19.44ZM192.262 11.664C193.59 11.664 194.254 11.008 194.254 9.696V9.144C194.254 7.832 193.59 7.176 192.262 7.176C190.934 7.176 190.27 7.832 190.27 9.144V9.696C190.27 11.008 190.934 11.664 192.262 11.664ZM199.803 18V5.472H202.707V8.04H203.043C203.187 7.208 203.483 6.576 203.931 6.144C204.395 5.696 204.995 5.472 205.731 5.472H206.355V8.448H205.395C204.483 8.448 203.803 8.592 203.355 8.88C202.923 9.168 202.707 9.672 202.707 10.392V18H199.803ZM213.015 18.288C212.199 18.288 211.447 18.16 210.759 17.904C210.087 17.632 209.511 17.232 209.031 16.704C208.551 16.16 208.175 15.48 207.903 14.664C207.647 13.832 207.519 12.856 207.519 11.736C207.519 9.48 207.967 7.824 208.863 6.768C209.775 5.712 211.071 5.184 212.751 5.184C214.431 5.184 215.719 5.712 216.615 6.768C217.527 7.824 217.983 9.48 217.983 11.736V12.432H210.567V13.248C210.567 14.08 210.799 14.736 211.263 15.216C211.727 15.696 212.367 15.936 213.183 15.936C213.871 15.936 214.447 15.792 214.911 15.504C215.391 15.2 215.799 14.768 216.135 14.208L217.719 15.864C217.255 16.6 216.631 17.192 215.847 17.64C215.063 18.072 214.119 18.288 213.015 18.288ZM212.751 7.416C211.295 7.416 210.567 8.28 210.567 10.008V10.632H214.935V10.008C214.935 8.28 214.207 7.416 212.751 7.416ZM224.196 18.288C223.156 18.288 222.244 18.104 221.46 17.736C220.676 17.352 219.988 16.784 219.396 16.032L221.172 14.304C221.572 14.864 222.02 15.288 222.516 15.576C223.012 15.864 223.588 16.008 224.244 16.008C225.46 16.008 226.068 15.496 226.068 14.472C226.068 14.072 225.964 13.76 225.756 13.536C225.564 13.296 225.228 13.136 224.748 13.056L223.572 12.84C222.26 12.6 221.308 12.192 220.716 11.616C220.124 11.04 219.828 10.2 219.828 9.096C219.828 7.784 220.212 6.808 220.98 6.168C221.748 5.512 222.836 5.184 224.244 5.184C225.22 5.184 226.06 5.344 226.764 5.664C227.484 5.984 228.108 6.456 228.636 7.08L226.932 8.784C226.612 8.384 226.22 8.064 225.756 7.824C225.308 7.584 224.804 7.464 224.244 7.464C223.124 7.464 222.564 7.968 222.564 8.976C222.564 9.392 222.676 9.712 222.9 9.936C223.124 10.144 223.476 10.288 223.956 10.368L225.156 10.584C226.468 10.824 227.404 11.232 227.964 11.808C228.54 12.368 228.828 13.16 228.828 14.184C228.828 15.48 228.428 16.488 227.628 17.208C226.828 17.928 225.684 18.288 224.196 18.288ZM234.79 18.288C233.75 18.288 232.838 18.104 232.054 17.736C231.27 17.352 230.582 16.784 229.99 16.032L231.766 14.304C232.166 14.864 232.614 15.288 233.11 15.576C233.606 15.864 234.182 16.008 234.838 16.008C236.054 16.008 236.662 15.496 236.662 14.472C236.662 14.072 236.558 13.76 236.35 13.536C236.158 13.296 235.822 13.136 235.342 13.056L234.166 12.84C232.854 12.6 231.902 12.192 231.31 11.616C230.718 11.04 230.422 10.2 230.422 9.096C230.422 7.784 230.806 6.808 231.574 6.168C232.342 5.512 233.43 5.184 234.838 5.184C235.814 5.184 236.654 5.344 237.358 5.664C238.078 5.984 238.702 6.456 239.23 7.08L237.526 8.784C237.206 8.384 236.814 8.064 236.35 7.824C235.902 7.584 235.398 7.464 234.838 7.464C233.718 7.464 233.158 7.968 233.158 8.976C233.158 9.392 233.27 9.712 233.494 9.936C233.718 10.144 234.07 10.288 234.55 10.368L235.75 10.584C237.062 10.824 237.998 11.232 238.558 11.808C239.134 12.368 239.422 13.16 239.422 14.184C239.422 15.48 239.022 16.488 238.222 17.208C237.422 17.928 236.278 18.288 234.79 18.288ZM243.319 18.264C242.711 18.264 242.255 18.128 241.951 17.856C241.663 17.568 241.519 17.176 241.519 16.68V16.104C241.519 15.608 241.663 15.224 241.951 14.952C242.255 14.664 242.711 14.52 243.319 14.52C243.927 14.52 244.375 14.664 244.663 14.952C244.967 15.224 245.119 15.608 245.119 16.104V16.68C245.119 17.176 244.967 17.568 244.663 17.856C244.375 18.128 243.927 18.264 243.319 18.264Z" fill="white"/>
</svg>
