<svg width="444" height="444" viewBox="0 0 444 444" fill="none" xmlns="http://www.w3.org/2000/svg">
<path d="M32.656 188.288C31.664 188.288 30.768 188.136 29.968 187.832C29.168 187.512 28.48 187.008 27.904 186.32C27.344 185.632 26.904 184.744 26.584 183.656C26.28 182.568 26.128 181.256 26.128 179.72C26.128 178.168 26.28 176.84 26.584 175.736C26.904 174.632 27.344 173.728 27.904 173.024C28.48 172.32 29.168 171.8 29.968 171.464C30.768 171.128 31.664 170.96 32.656 170.96C33.392 170.96 34.048 171.04 34.624 171.2C35.2 171.36 35.712 171.6 36.16 171.92C36.608 172.224 37 172.616 37.336 173.096C37.672 173.576 37.976 174.136 38.248 174.776L35.704 176.12C35.448 175.208 35.088 174.552 34.624 174.152C34.16 173.752 33.504 173.552 32.656 173.552C31.6 173.552 30.776 173.896 30.184 174.584C29.608 175.272 29.32 176.256 29.32 177.536V181.712C29.32 182.992 29.608 183.976 30.184 184.664C30.776 185.352 31.6 185.696 32.656 185.696C33.504 185.696 34.176 185.48 34.672 185.048C35.184 184.616 35.584 183.92 35.872 182.96L38.32 184.4C38.048 185.024 37.736 185.576 37.384 186.056C37.032 186.536 36.624 186.944 36.16 187.28C35.712 187.6 35.2 187.848 34.624 188.024C34.048 188.2 33.392 188.288 32.656 188.288ZM45.0173 188.288C43.3533 188.288 42.0573 187.76 41.1293 186.704C40.2173 185.648 39.7613 183.992 39.7613 181.736C39.7613 179.48 40.2173 177.824 41.1293 176.768C42.0573 175.712 43.3533 175.184 45.0173 175.184C46.6813 175.184 47.9693 175.712 48.8813 176.768C49.8093 177.824 50.2733 179.48 50.2733 181.736C50.2733 183.992 49.8093 185.648 48.8813 186.704C47.9693 187.76 46.6813 188.288 45.0173 188.288ZM45.0173 185.936C46.4893 185.936 47.2253 185.072 47.2253 183.344V180.128C47.2253 178.4 46.4893 177.536 45.0173 177.536C43.5453 177.536 42.8093 178.4 42.8093 180.128V183.344C42.8093 185.072 43.5453 185.936 45.0173 185.936ZM52.6699 188V175.472H55.5739V177.56H55.9099C56.4059 175.976 57.4059 175.184 58.9099 175.184C60.0299 175.184 60.8939 175.568 61.5019 176.336C62.1099 177.088 62.4139 178.168 62.4139 179.576V188H59.5099V180.08C59.5099 178.448 58.9019 177.632 57.6859 177.632C57.0939 177.632 56.5899 177.808 56.1739 178.16C55.7739 178.496 55.5739 178.976 55.5739 179.6V188H52.6699ZM65.4434 188V175.472H68.3474V177.56H68.6834C69.1794 175.976 70.1794 175.184 71.6834 175.184C72.8034 175.184 73.6674 175.568 74.2754 176.336C74.8834 177.088 75.1874 178.168 75.1874 179.576V188H72.2834V180.08C72.2834 178.448 71.6754 177.632 70.4594 177.632C69.8674 177.632 69.3634 177.808 68.9474 178.16C68.5474 178.496 68.3474 178.976 68.3474 179.6V188H65.4434ZM82.9448 188.288C82.1288 188.288 81.3768 188.16 80.6888 187.904C80.0168 187.632 79.4408 187.232 78.9608 186.704C78.4808 186.16 78.1048 185.48 77.8328 184.664C77.5768 183.832 77.4488 182.856 77.4488 181.736C77.4488 179.48 77.8968 177.824 78.7928 176.768C79.7048 175.712 81.0008 175.184 82.6808 175.184C84.3608 175.184 85.6488 175.712 86.5448 176.768C87.4568 177.824 87.9128 179.48 87.9128 181.736V182.432H80.4968V183.248C80.4968 184.08 80.7288 184.736 81.1928 185.216C81.6568 185.696 82.2968 185.936 83.1128 185.936C83.8008 185.936 84.3768 185.792 84.8408 185.504C85.3208 185.2 85.7288 184.768 86.0648 184.208L87.6488 185.864C87.1848 186.6 86.5608 187.192 85.7768 187.64C84.9928 188.072 84.0488 188.288 82.9448 188.288ZM82.6808 177.416C81.2248 177.416 80.4968 178.28 80.4968 180.008V180.632H84.8648V180.008C84.8648 178.28 84.1368 177.416 82.6808 177.416ZM94.774 188.288C93.078 188.288 91.782 187.76 90.886 186.704C90.006 185.648 89.566 183.992 89.566 181.736C89.566 179.48 90.006 177.824 90.886 176.768C91.782 175.712 93.078 175.184 94.774 175.184C96.006 175.184 96.982 175.464 97.702 176.024C98.438 176.584 98.966 177.352 99.286 178.328L96.91 179.384C96.782 178.776 96.55 178.32 96.214 178.016C95.894 177.696 95.414 177.536 94.774 177.536C93.334 177.536 92.614 178.4 92.614 180.128V183.344C92.614 185.072 93.334 185.936 94.774 185.936C95.446 185.936 95.958 185.776 96.31 185.456C96.662 185.136 96.926 184.64 97.102 183.968L99.358 185.048C98.622 187.208 97.094 188.288 94.774 188.288ZM104.923 188C103.915 188 103.187 187.776 102.739 187.328C102.291 186.88 102.067 186.168 102.067 185.192V177.8H100.411V175.472H101.275C101.691 175.472 101.971 175.376 102.115 175.184C102.275 174.992 102.355 174.688 102.355 174.272V172.064H104.971V175.472H107.227V177.8H104.971V185.672H107.035V188H104.923ZM113.9 188.288C112.236 188.288 110.94 187.76 110.012 186.704C109.1 185.648 108.644 183.992 108.644 181.736C108.644 179.48 109.1 177.824 110.012 176.768C110.94 175.712 112.236 175.184 113.9 175.184C115.564 175.184 116.852 175.712 117.764 176.768C118.692 177.824 119.156 179.48 119.156 181.736C119.156 183.992 118.692 185.648 117.764 186.704C116.852 187.76 115.564 188.288 113.9 188.288ZM113.9 185.936C115.372 185.936 116.108 185.072 116.108 183.344V180.128C116.108 178.4 115.372 177.536 113.9 177.536C112.428 177.536 111.692 178.4 111.692 180.128V183.344C111.692 185.072 112.428 185.936 113.9 185.936ZM121.553 188V175.472H124.457V178.04H124.793C124.937 177.208 125.233 176.576 125.681 176.144C126.145 175.696 126.745 175.472 127.481 175.472H128.105V178.448H127.145C126.233 178.448 125.553 178.592 125.105 178.88C124.673 179.168 124.457 179.672 124.457 180.392V188H121.553ZM133.923 188.288C132.883 188.288 131.971 188.104 131.187 187.736C130.403 187.352 129.715 186.784 129.123 186.032L130.899 184.304C131.299 184.864 131.747 185.288 132.243 185.576C132.739 185.864 133.315 186.008 133.971 186.008C135.187 186.008 135.795 185.496 135.795 184.472C135.795 184.072 135.691 183.76 135.483 183.536C135.291 183.296 134.955 183.136 134.475 183.056L133.299 182.84C131.987 182.6 131.035 182.192 130.443 181.616C129.851 181.04 129.555 180.2 129.555 179.096C129.555 177.784 129.939 176.808 130.707 176.168C131.475 175.512 132.563 175.184 133.971 175.184C134.947 175.184 135.787 175.344 136.491 175.664C137.211 175.984 137.835 176.456 138.363 177.08L136.659 178.784C136.339 178.384 135.947 178.064 135.483 177.824C135.035 177.584 134.531 177.464 133.971 177.464C132.851 177.464 132.291 177.968 132.291 178.976C132.291 179.392 132.403 179.712 132.627 179.936C132.851 180.144 133.203 180.288 133.683 180.368L134.883 180.584C136.195 180.824 137.131 181.232 137.691 181.808C138.267 182.368 138.555 183.16 138.555 184.184C138.555 185.48 138.155 186.488 137.355 187.208C136.555 187.928 135.411 188.288 133.923 188.288ZM142.712 188.264C142.104 188.264 141.648 188.128 141.344 187.856C141.056 187.568 140.912 187.176 140.912 186.68V186.104C140.912 185.608 141.056 185.224 141.344 184.952C141.648 184.664 142.104 184.52 142.712 184.52C143.32 184.52 143.768 184.664 144.056 184.952C144.36 185.224 144.512 185.608 144.512 186.104V186.68C144.512 187.176 144.36 187.568 144.056 187.856C143.768 188.128 143.32 188.264 142.712 188.264ZM142.712 179.048C142.104 179.048 141.648 178.912 141.344 178.64C141.056 178.352 140.912 177.96 140.912 177.464V176.888C140.912 176.392 141.056 176.008 141.344 175.736C141.648 175.448 142.104 175.304 142.712 175.304C143.32 175.304 143.768 175.448 144.056 175.736C144.36 176.008 144.512 176.392 144.512 176.888V177.464C144.512 177.96 144.36 178.352 144.056 178.64C143.768 178.912 143.32 179.048 142.712 179.048ZM164.292 178.448L164.484 175.616H164.148L163.044 178.352L160.02 184.808L157.02 178.352L155.916 175.64H155.58L155.772 178.448V188H152.94V171.248H156.228L158.724 176.696L159.948 180.128H160.164L161.388 176.696L163.836 171.248H167.124V188H164.292V178.448ZM170.035 188V185.624H172.027V173.624H170.035V171.248H177.019V173.624H175.027V185.624H177.019V188H170.035ZM179.916 188V171.248H182.916V185.384H188.796V188H179.916ZM189.841 182.12V179.24H196.129V182.12H189.841ZM199.088 171.248H204.8C205.808 171.248 206.704 171.408 207.488 171.728C208.288 172.032 208.96 172.528 209.504 173.216C210.064 173.888 210.488 174.752 210.776 175.808C211.064 176.864 211.208 178.136 211.208 179.624C211.208 181.112 211.064 182.384 210.776 183.44C210.488 184.496 210.064 185.368 209.504 186.056C208.96 186.728 208.288 187.224 207.488 187.544C206.704 187.848 205.808 188 204.8 188H199.088V171.248ZM204.8 185.384C205.824 185.384 206.616 185.072 207.176 184.448C207.736 183.808 208.016 182.856 208.016 181.592V177.656C208.016 176.392 207.736 175.448 207.176 174.824C206.616 174.184 205.824 173.864 204.8 173.864H202.088V185.384H204.8ZM219.479 173.864V188H216.479V173.864H212.279V171.248H223.703V173.864H219.479ZM226.041 188V171.248H229.041V185.384H234.921V188H226.041ZM235.966 182.12V179.24H242.254V182.12H235.966ZM249.125 178.088C249.877 178.088 250.469 177.904 250.901 177.536C251.349 177.152 251.573 176.648 251.573 176.024V175.376C251.573 174.768 251.381 174.296 250.997 173.96C250.629 173.608 250.109 173.432 249.437 173.432C248.749 173.432 248.157 173.6 247.661 173.936C247.165 174.272 246.733 174.768 246.365 175.424L244.445 173.744C244.989 172.88 245.693 172.2 246.557 171.704C247.421 171.208 248.437 170.96 249.605 170.96C251.157 170.96 252.381 171.312 253.277 172.016C254.189 172.72 254.645 173.816 254.645 175.304C254.645 176.312 254.389 177.152 253.877 177.824C253.381 178.48 252.685 178.896 251.789 179.072V179.432C252.829 179.576 253.613 179.968 254.141 180.608C254.685 181.248 254.957 182.104 254.957 183.176C254.957 184.76 254.461 186.008 253.469 186.92C252.477 187.832 251.109 188.288 249.365 188.288C246.917 188.288 245.101 187.256 243.917 185.192L246.101 183.536C246.501 184.32 246.957 184.896 247.469 185.264C247.997 185.632 248.621 185.816 249.341 185.816C250.141 185.816 250.757 185.608 251.189 185.192C251.637 184.776 251.861 184.208 251.861 183.488V182.816C251.861 182.112 251.621 181.56 251.141 181.16C250.661 180.744 249.981 180.536 249.101 180.536H247.661V178.088H249.125ZM262.902 188.288C261.062 188.288 259.678 187.856 258.75 186.992C257.822 186.112 257.358 184.92 257.358 183.416C257.358 182.264 257.63 181.36 258.174 180.704C258.734 180.032 259.47 179.608 260.382 179.432V179.096C259.614 178.888 258.99 178.464 258.51 177.824C258.046 177.168 257.814 176.32 257.814 175.28C257.814 173.888 258.23 172.824 259.062 172.088C259.91 171.336 261.19 170.96 262.902 170.96C264.614 170.96 265.886 171.336 266.718 172.088C267.566 172.824 267.99 173.888 267.99 175.28C267.99 176.32 267.75 177.168 267.27 177.824C266.806 178.464 266.19 178.888 265.422 179.096V179.432C266.334 179.608 267.062 180.032 267.606 180.704C268.166 181.36 268.446 182.264 268.446 183.416C268.446 184.92 267.982 186.112 267.054 186.992C266.126 187.856 264.742 188.288 262.902 188.288ZM262.902 185.936C263.702 185.936 264.31 185.736 264.726 185.336C265.142 184.92 265.35 184.328 265.35 183.56V182.84C265.35 182.072 265.142 181.488 264.726 181.088C264.31 180.672 263.702 180.464 262.902 180.464C262.102 180.464 261.494 180.672 261.078 181.088C260.662 181.488 260.454 182.072 260.454 182.84V183.56C260.454 184.328 260.662 184.92 261.078 185.336C261.494 185.736 262.102 185.936 262.902 185.936ZM262.902 178.208C263.654 178.208 264.222 178.016 264.606 177.632C264.99 177.248 265.182 176.72 265.182 176.048V175.472C265.182 174.8 264.99 174.272 264.606 173.888C264.222 173.504 263.654 173.312 262.902 173.312C262.15 173.312 261.582 173.504 261.198 173.888C260.814 174.272 260.622 174.8 260.622 175.472V176.048C260.622 176.72 260.814 177.248 261.198 177.632C261.582 178.016 262.15 178.208 262.902 178.208ZM281.383 177.512C281.383 178.52 281.255 179.52 280.999 180.512C280.743 181.504 280.375 182.456 279.895 183.368C279.415 184.28 278.839 185.136 278.167 185.936C277.495 186.72 276.751 187.408 275.935 188H271.879C272.903 187.216 273.783 186.48 274.519 185.792C275.271 185.104 275.895 184.424 276.391 183.752C276.903 183.08 277.303 182.4 277.591 181.712C277.895 181.024 278.119 180.288 278.263 179.504H277.903C277.647 180.272 277.231 180.864 276.655 181.28C276.095 181.696 275.407 181.904 274.591 181.904C273.231 181.904 272.159 181.464 271.375 180.584C270.591 179.688 270.199 178.384 270.199 176.672C270.199 174.88 270.671 173.48 271.615 172.472C272.575 171.464 273.967 170.96 275.791 170.96C277.663 170.96 279.063 171.52 279.991 172.64C280.919 173.76 281.383 175.384 281.383 177.512ZM275.791 179.48C277.423 179.48 278.239 178.592 278.239 176.816V176.096C278.239 174.32 277.423 173.432 275.791 173.432C274.159 173.432 273.343 174.32 273.343 176.096V176.816C273.343 178.592 274.159 179.48 275.791 179.48ZM294.344 177.512C294.344 178.52 294.216 179.52 293.96 180.512C293.704 181.504 293.336 182.456 292.856 183.368C292.376 184.28 291.8 185.136 291.128 185.936C290.456 186.72 289.712 187.408 288.896 188H284.84C285.864 187.216 286.744 186.48 287.48 185.792C288.232 185.104 288.856 184.424 289.352 183.752C289.864 183.08 290.264 182.4 290.552 181.712C290.856 181.024 291.08 180.288 291.224 179.504H290.864C290.608 180.272 290.192 180.864 289.616 181.28C289.056 181.696 288.368 181.904 287.552 181.904C286.192 181.904 285.12 181.464 284.336 180.584C283.552 179.688 283.16 178.384 283.16 176.672C283.16 174.88 283.632 173.48 284.576 172.472C285.536 171.464 286.928 170.96 288.752 170.96C290.624 170.96 292.024 171.52 292.952 172.64C293.88 173.76 294.344 175.384 294.344 177.512ZM288.752 179.48C290.384 179.48 291.2 178.592 291.2 176.816V176.096C291.2 174.32 290.384 173.432 288.752 173.432C287.12 173.432 286.304 174.32 286.304 176.096V176.816C286.304 178.592 287.12 179.48 288.752 179.48ZM307.305 177.512C307.305 178.52 307.177 179.52 306.921 180.512C306.665 181.504 306.297 182.456 305.817 183.368C305.337 184.28 304.761 185.136 304.089 185.936C303.417 186.72 302.673 187.408 301.857 188H297.801C298.825 187.216 299.705 186.48 300.441 185.792C301.193 185.104 301.817 184.424 302.313 183.752C302.825 183.08 303.225 182.4 303.513 181.712C303.817 181.024 304.041 180.288 304.185 179.504H303.825C303.569 180.272 303.153 180.864 302.577 181.28C302.017 181.696 301.329 181.904 300.513 181.904C299.153 181.904 298.081 181.464 297.297 180.584C296.513 179.688 296.121 178.384 296.121 176.672C296.121 174.88 296.593 173.48 297.537 172.472C298.497 171.464 299.889 170.96 301.713 170.96C303.585 170.96 304.985 171.52 305.913 172.64C306.841 173.76 307.305 175.384 307.305 177.512ZM301.713 179.48C303.345 179.48 304.161 178.592 304.161 176.816V176.096C304.161 174.32 303.345 173.432 301.713 173.432C300.081 173.432 299.265 174.32 299.265 176.096V176.816C299.265 178.592 300.081 179.48 301.713 179.48ZM319.808 188.288C318.56 188.288 317.456 188.064 316.496 187.616C315.552 187.152 314.736 186.472 314.048 185.576L316.016 183.68C316.496 184.336 317.056 184.84 317.696 185.192C318.336 185.528 319.056 185.696 319.856 185.696C321.648 185.696 322.544 184.88 322.544 183.248C322.544 182.576 322.384 182.064 322.064 181.712C321.744 181.36 321.216 181.104 320.48 180.944L319.016 180.656C317.496 180.336 316.376 179.792 315.656 179.024C314.936 178.256 314.576 177.184 314.576 175.808C314.576 174.208 315.048 173 315.992 172.184C316.952 171.368 318.312 170.96 320.072 170.96C321.272 170.96 322.296 171.16 323.144 171.56C324.008 171.944 324.744 172.552 325.352 173.384L323.384 175.232C322.968 174.672 322.496 174.256 321.968 173.984C321.44 173.696 320.792 173.552 320.024 173.552C319.176 173.552 318.552 173.72 318.152 174.056C317.752 174.392 317.552 174.936 317.552 175.688C317.552 176.312 317.704 176.792 318.008 177.128C318.328 177.464 318.84 177.712 319.544 177.872L321.008 178.184C321.824 178.36 322.512 178.576 323.072 178.832C323.648 179.088 324.112 179.408 324.464 179.792C324.832 180.176 325.096 180.632 325.256 181.16C325.432 181.672 325.52 182.28 325.52 182.984C325.52 184.712 325.024 186.032 324.032 186.944C323.056 187.84 321.648 188.288 319.808 188.288ZM332.765 188.288C331.949 188.288 331.197 188.16 330.509 187.904C329.837 187.632 329.261 187.232 328.781 186.704C328.301 186.16 327.925 185.48 327.653 184.664C327.397 183.832 327.269 182.856 327.269 181.736C327.269 179.48 327.717 177.824 328.613 176.768C329.525 175.712 330.821 175.184 332.501 175.184C334.181 175.184 335.469 175.712 336.365 176.768C337.277 177.824 337.733 179.48 337.733 181.736V182.432H330.317V183.248C330.317 184.08 330.549 184.736 331.013 185.216C331.477 185.696 332.117 185.936 332.933 185.936C333.621 185.936 334.197 185.792 334.661 185.504C335.141 185.2 335.549 184.768 335.885 184.208L337.469 185.864C337.005 186.6 336.381 187.192 335.597 187.64C334.813 188.072 333.869 188.288 332.765 188.288ZM332.501 177.416C331.045 177.416 330.317 178.28 330.317 180.008V180.632H334.685V180.008C334.685 178.28 333.957 177.416 332.501 177.416ZM340.154 188V175.472H343.058V178.04H343.394C343.538 177.208 343.834 176.576 344.282 176.144C344.746 175.696 345.346 175.472 346.082 175.472H346.706V178.448H345.746C344.834 178.448 344.154 178.592 343.706 178.88C343.274 179.168 343.058 179.672 343.058 180.392V188H340.154ZM350.172 173.504C349.564 173.504 349.124 173.376 348.852 173.12C348.58 172.848 348.444 172.488 348.444 172.04V171.56C348.444 171.112 348.58 170.76 348.852 170.504C349.124 170.232 349.564 170.096 350.172 170.096C350.78 170.096 351.22 170.232 351.492 170.504C351.764 170.76 351.9 171.112 351.9 171.56V172.04C351.9 172.488 351.764 172.848 351.492 173.12C351.22 173.376 350.78 173.504 350.172 173.504ZM348.732 175.472H351.636V188H348.732V175.472ZM359.507 188.288C358.691 188.288 357.939 188.16 357.251 187.904C356.579 187.632 356.003 187.232 355.523 186.704C355.043 186.16 354.667 185.48 354.395 184.664C354.139 183.832 354.011 182.856 354.011 181.736C354.011 179.48 354.459 177.824 355.355 176.768C356.267 175.712 357.563 175.184 359.243 175.184C360.923 175.184 362.211 175.712 363.107 176.768C364.019 177.824 364.475 179.48 364.475 181.736V182.432H357.059V183.248C357.059 184.08 357.291 184.736 357.755 185.216C358.219 185.696 358.859 185.936 359.675 185.936C360.363 185.936 360.939 185.792 361.403 185.504C361.883 185.2 362.291 184.768 362.627 184.208L364.211 185.864C363.747 186.6 363.123 187.192 362.339 187.64C361.555 188.072 360.611 188.288 359.507 188.288ZM359.243 177.416C357.787 177.416 357.059 178.28 357.059 180.008V180.632H361.427V180.008C361.427 178.28 360.699 177.416 359.243 177.416ZM370.689 188.288C369.649 188.288 368.737 188.104 367.953 187.736C367.169 187.352 366.481 186.784 365.889 186.032L367.665 184.304C368.065 184.864 368.513 185.288 369.009 185.576C369.505 185.864 370.081 186.008 370.737 186.008C371.953 186.008 372.561 185.496 372.561 184.472C372.561 184.072 372.457 183.76 372.249 183.536C372.057 183.296 371.721 183.136 371.241 183.056L370.065 182.84C368.753 182.6 367.801 182.192 367.209 181.616C366.617 181.04 366.321 180.2 366.321 179.096C366.321 177.784 366.705 176.808 367.473 176.168C368.241 175.512 369.329 175.184 370.737 175.184C371.713 175.184 372.553 175.344 373.257 175.664C373.977 175.984 374.601 176.456 375.129 177.08L373.425 178.784C373.105 178.384 372.713 178.064 372.249 177.824C371.801 177.584 371.297 177.464 370.737 177.464C369.617 177.464 369.057 177.968 369.057 178.976C369.057 179.392 369.169 179.712 369.393 179.936C369.617 180.144 369.969 180.288 370.449 180.368L371.648 180.584C372.961 180.824 373.897 181.232 374.457 181.808C375.033 182.368 375.321 183.16 375.321 184.184C375.321 185.48 374.921 186.488 374.121 187.208C373.321 187.928 372.177 188.288 370.689 188.288ZM382.332 188V185.624H384.324V173.624H382.332V171.248H389.316V173.624H387.324V185.624H389.316V188H382.332ZM391.613 188V185.624H393.605V173.624H391.613V171.248H398.597V173.624H396.605V185.624H398.597V188H391.613ZM400.894 188V185.624H402.886V173.624H400.894V171.248H407.878V173.624H405.886V185.624H407.878V188H400.894ZM412.407 184.544C413.015 184.544 413.463 184.688 413.751 184.976C414.055 185.248 414.207 185.632 414.207 186.128V186.68C414.207 187.544 414.007 188.408 413.607 189.272C413.207 190.136 412.647 190.848 411.927 191.408H409.935C410.495 190.848 410.927 190.32 411.231 189.824C411.551 189.328 411.791 188.8 411.951 188.24C411.055 188.096 410.607 187.576 410.607 186.68V186.128C410.607 185.632 410.751 185.248 411.039 184.976C411.343 184.688 411.799 184.544 412.407 184.544ZM412.407 179.048C411.799 179.048 411.343 178.912 411.039 178.64C410.751 178.352 410.607 177.96 410.607 177.464V176.888C410.607 176.392 410.751 176.008 411.039 175.736C411.343 175.448 411.799 175.304 412.407 175.304C413.015 175.304 413.463 175.448 413.751 175.736C414.055 176.008 414.207 176.392 414.207 176.888V177.464C414.207 177.96 414.055 178.352 413.751 178.64C413.463 178.912 413.015 179.048 412.407 179.048ZM31.456 222.288C30.208 222.288 29.104 222.064 28.144 221.616C27.2 221.152 26.384 220.472 25.696 219.576L27.664 217.68C28.144 218.336 28.704 218.84 29.344 219.192C29.984 219.528 30.704 219.696 31.504 219.696C33.296 219.696 34.192 218.88 34.192 217.248C34.192 216.576 34.032 216.064 33.712 215.712C33.392 215.36 32.864 215.104 32.128 214.944L30.664 214.656C29.144 214.336 28.024 213.792 27.304 213.024C26.584 212.256 26.224 211.184 26.224 209.808C26.224 208.208 26.696 207 27.64 206.184C28.6 205.368 29.96 204.96 31.72 204.96C32.92 204.96 33.944 205.16 34.792 205.56C35.656 205.944 36.392 206.552 37 207.384L35.032 209.232C34.616 208.672 34.144 208.256 33.616 207.984C33.088 207.696 32.44 207.552 31.672 207.552C30.824 207.552 30.2 207.72 29.8 208.056C29.4 208.392 29.2 208.936 29.2 209.688C29.2 210.312 29.352 210.792 29.656 211.128C29.976 211.464 30.488 211.712 31.192 211.872L32.656 212.184C33.472 212.36 34.16 212.576 34.72 212.832C35.296 213.088 35.76 213.408 36.112 213.792C36.48 214.176 36.744 214.632 36.904 215.16C37.08 215.672 37.168 216.28 37.168 216.984C37.168 218.712 36.672 220.032 35.68 220.944C34.704 221.84 33.296 222.288 31.456 222.288ZM44.4136 222.288C43.5976 222.288 42.8456 222.16 42.1576 221.904C41.4856 221.632 40.9096 221.232 40.4296 220.704C39.9496 220.16 39.5736 219.48 39.3016 218.664C39.0456 217.832 38.9176 216.856 38.9176 215.736C38.9176 213.48 39.3656 211.824 40.2616 210.768C41.1736 209.712 42.4696 209.184 44.1496 209.184C45.8296 209.184 47.1176 209.712 48.0136 210.768C48.9256 211.824 49.3816 213.48 49.3816 215.736V216.432H41.9656V217.248C41.9656 218.08 42.1976 218.736 42.6616 219.216C43.1256 219.696 43.7656 219.936 44.5816 219.936C45.2696 219.936 45.8456 219.792 46.3096 219.504C46.7896 219.2 47.1976 218.768 47.5336 218.208L49.1176 219.864C48.6536 220.6 48.0296 221.192 47.2456 221.64C46.4616 222.072 45.5176 222.288 44.4136 222.288ZM44.1496 211.416C42.6936 211.416 41.9656 212.28 41.9656 214.008V214.632H46.3336V214.008C46.3336 212.28 45.6056 211.416 44.1496 211.416ZM56.2428 222.288C54.5468 222.288 53.2508 221.76 52.3548 220.704C51.4748 219.648 51.0348 217.992 51.0348 215.736C51.0348 213.48 51.4748 211.824 52.3548 210.768C53.2508 209.712 54.5468 209.184 56.2428 209.184C57.4748 209.184 58.4508 209.464 59.1708 210.024C59.9068 210.584 60.4348 211.352 60.7548 212.328L58.3788 213.384C58.2508 212.776 58.0188 212.32 57.6828 212.016C57.3628 211.696 56.8828 211.536 56.2428 211.536C54.8028 211.536 54.0828 212.4 54.0828 214.128V217.344C54.0828 219.072 54.8028 219.936 56.2428 219.936C56.9148 219.936 57.4268 219.776 57.7788 219.456C58.1308 219.136 58.3948 218.64 58.5708 217.968L60.8268 219.048C60.0908 221.208 58.5628 222.288 56.2428 222.288ZM69.6556 219.888H69.3196C68.8396 221.488 67.8236 222.288 66.2716 222.288C65.1516 222.288 64.2876 221.912 63.6796 221.16C63.0876 220.392 62.7916 219.296 62.7916 217.872V209.472H65.6956V217.392C65.6956 219.04 66.3036 219.864 67.5196 219.864C68.1116 219.864 68.6156 219.688 69.0316 219.336C69.4476 218.984 69.6556 218.496 69.6556 217.872V209.472H72.5596V222H69.6556V219.888ZM75.7324 222V209.472H78.6364V212.04H78.9724C79.1164 211.208 79.4124 210.576 79.8604 210.144C80.3244 209.696 80.9244 209.472 81.6604 209.472H82.2844V212.448H81.3244C80.4124 212.448 79.7324 212.592 79.2844 212.88C78.8524 213.168 78.6364 213.672 78.6364 214.392V222H75.7324ZM85.7506 207.504C85.1426 207.504 84.7026 207.376 84.4306 207.12C84.1586 206.848 84.0226 206.488 84.0226 206.04V205.56C84.0226 205.112 84.1586 204.76 84.4306 204.504C84.7026 204.232 85.1426 204.096 85.7506 204.096C86.3586 204.096 86.7986 204.232 87.0706 204.504C87.3426 204.76 87.4786 205.112 87.4786 205.56V206.04C87.4786 206.488 87.3426 206.848 87.0706 207.12C86.7986 207.376 86.3586 207.504 85.7506 207.504ZM84.3106 209.472H87.2146V222H84.3106V209.472ZM93.8134 222C92.8054 222 92.0774 221.776 91.6294 221.328C91.1814 220.88 90.9574 220.168 90.9574 219.192V211.8H89.3014V209.472H90.1654C90.5814 209.472 90.8614 209.376 91.0054 209.184C91.1654 208.992 91.2454 208.688 91.2454 208.272V206.064H93.8614V209.472H96.1174V211.8H93.8614V219.672H95.9254V222H93.8134ZM105.285 209.472H108.189L103.413 224.616C103.141 225.464 102.757 226.04 102.261 226.344C101.765 226.648 101.069 226.8 100.173 226.8H98.2045V224.472H100.677L101.181 222.696L97.0045 209.472H99.9565L101.829 216.24L102.501 219.528H102.789L103.461 216.216L105.285 209.472ZM111.798 222.264C111.19 222.264 110.734 222.128 110.43 221.856C110.142 221.568 109.998 221.176 109.998 220.68V220.104C109.998 219.608 110.142 219.224 110.43 218.952C110.734 218.664 111.19 218.52 111.798 218.52C112.406 218.52 112.854 218.664 113.142 218.952C113.446 219.224 113.598 219.608 113.598 220.104V220.68C113.598 221.176 113.446 221.568 113.142 221.856C112.854 222.128 112.406 222.264 111.798 222.264ZM111.798 213.048C111.19 213.048 110.734 212.912 110.43 212.64C110.142 212.352 109.998 211.96 109.998 211.464V210.888C109.998 210.392 110.142 210.008 110.43 209.736C110.734 209.448 111.19 209.304 111.798 209.304C112.406 209.304 112.854 209.448 113.142 209.736C113.446 210.008 113.598 210.392 113.598 210.888V211.464C113.598 211.96 113.446 212.352 113.142 212.64C112.854 212.912 112.406 213.048 111.798 213.048ZM122.025 222V205.248H128.961C130.433 205.248 131.545 205.704 132.297 206.616C133.065 207.528 133.449 208.784 133.449 210.384C133.449 211.984 133.065 213.24 132.297 214.152C131.545 215.064 130.433 215.52 128.961 215.52H125.025V222H122.025ZM125.025 212.904H128.649C129.161 212.904 129.561 212.768 129.849 212.496C130.153 212.208 130.305 211.752 130.305 211.128V209.64C130.305 209.016 130.153 208.568 129.849 208.296C129.561 208.008 129.161 207.864 128.649 207.864H125.025V212.904ZM145.834 226.224H143.626C142.57 226.224 141.818 225.984 141.37 225.504C140.938 225.024 140.722 224.328 140.722 223.416V222.192C139.906 222.08 139.162 221.832 138.49 221.448C137.834 221.048 137.274 220.504 136.81 219.816C136.362 219.112 136.01 218.248 135.754 217.224C135.514 216.2 135.394 215 135.394 213.624C135.394 212.088 135.546 210.776 135.85 209.688C136.17 208.584 136.61 207.688 137.17 207C137.746 206.296 138.434 205.784 139.234 205.464C140.05 205.128 140.962 204.96 141.97 204.96C142.978 204.96 143.882 205.128 144.682 205.464C145.498 205.784 146.186 206.296 146.746 207C147.322 207.688 147.762 208.584 148.066 209.688C148.386 210.776 148.546 212.088 148.546 213.624C148.546 214.968 148.426 216.136 148.186 217.128C147.962 218.12 147.634 218.968 147.202 219.672C146.77 220.36 146.234 220.912 145.594 221.328C144.97 221.728 144.266 222 143.482 222.144V223.752H145.834V226.224ZM141.97 219.648C143.058 219.648 143.898 219.312 144.49 218.64C145.082 217.952 145.378 216.976 145.378 215.712V211.536C145.378 210.272 145.082 209.304 144.49 208.632C143.898 207.944 143.058 207.6 141.97 207.6C140.882 207.6 140.042 207.944 139.45 208.632C138.858 209.304 138.562 210.272 138.562 211.536V215.712C138.562 216.976 138.858 217.952 139.45 218.64C140.042 219.312 140.882 219.648 141.97 219.648ZM160.126 222.288C159.086 222.288 158.174 222.104 157.39 221.736C156.606 221.352 155.918 220.784 155.326 220.032L157.102 218.304C157.502 218.864 157.95 219.288 158.446 219.576C158.942 219.864 159.518 220.008 160.174 220.008C161.39 220.008 161.998 219.496 161.998 218.472C161.998 218.072 161.894 217.76 161.686 217.536C161.494 217.296 161.158 217.136 160.678 217.056L159.502 216.84C158.19 216.6 157.238 216.192 156.646 215.616C156.054 215.04 155.758 214.2 155.758 213.096C155.758 211.784 156.142 210.808 156.91 210.168C157.678 209.512 158.766 209.184 160.174 209.184C161.15 209.184 161.99 209.344 162.694 209.664C163.414 209.984 164.038 210.456 164.566 211.08L162.862 212.784C162.542 212.384 162.15 212.064 161.686 211.824C161.238 211.584 160.734 211.464 160.174 211.464C159.054 211.464 158.494 211.968 158.494 212.976C158.494 213.392 158.606 213.712 158.83 213.936C159.054 214.144 159.406 214.288 159.886 214.368L161.086 214.584C162.398 214.824 163.334 215.232 163.894 215.808C164.47 216.368 164.758 217.16 164.758 218.184C164.758 219.48 164.358 220.488 163.558 221.208C162.758 221.928 161.614 222.288 160.126 222.288ZM168.555 207.504C167.947 207.504 167.507 207.376 167.235 207.12C166.963 206.848 166.827 206.488 166.827 206.04V205.56C166.827 205.112 166.963 204.76 167.235 204.504C167.507 204.232 167.947 204.096 168.555 204.096C169.163 204.096 169.603 204.232 169.875 204.504C170.147 204.76 170.283 205.112 170.283 205.56V206.04C170.283 206.488 170.147 206.848 169.875 207.12C169.603 207.376 169.163 207.504 168.555 207.504ZM167.115 209.472H170.019V222H167.115V209.472ZM183.41 223.104C183.41 223.76 183.306 224.336 183.098 224.832C182.906 225.328 182.578 225.744 182.114 226.08C181.65 226.416 181.034 226.664 180.266 226.824C179.498 227 178.554 227.088 177.434 227.088C176.442 227.088 175.61 227.016 174.938 226.872C174.266 226.744 173.722 226.552 173.306 226.296C172.89 226.04 172.594 225.728 172.418 225.36C172.242 224.992 172.154 224.576 172.154 224.112C172.154 223.472 172.33 222.968 172.682 222.6C173.034 222.232 173.538 222 174.194 221.904V221.448C173.682 221.32 173.298 221.08 173.042 220.728C172.802 220.376 172.682 219.944 172.682 219.432C172.682 218.92 172.858 218.496 173.21 218.16C173.562 217.808 174.074 217.568 174.746 217.44V217.128C173.386 216.456 172.706 215.224 172.706 213.432C172.706 212.072 173.09 211.024 173.858 210.288C174.626 209.552 175.818 209.184 177.434 209.184C178.154 209.184 178.81 209.296 179.402 209.52V209.064C179.402 207.928 179.946 207.36 181.034 207.36H182.786V209.616H180.362V210.096C180.954 210.384 181.402 210.816 181.706 211.392C182.01 211.952 182.162 212.632 182.162 213.432C182.162 214.792 181.778 215.84 181.01 216.576C180.258 217.296 179.066 217.656 177.434 217.656C176.778 217.656 176.17 217.592 175.61 217.464C175.386 217.56 175.218 217.712 175.106 217.92C174.994 218.128 174.938 218.36 174.938 218.616C174.938 218.936 175.042 219.176 175.25 219.336C175.458 219.496 175.802 219.576 176.282 219.576H179.474C180.898 219.576 181.906 219.88 182.498 220.488C183.106 221.096 183.41 221.968 183.41 223.104ZM180.698 223.44C180.698 223.008 180.554 222.68 180.266 222.456C179.978 222.232 179.498 222.12 178.826 222.12H174.962C174.61 222.424 174.434 222.872 174.434 223.464C174.434 223.976 174.602 224.368 174.938 224.64C175.29 224.912 175.898 225.048 176.762 225.048H178.178C179.09 225.048 179.738 224.912 180.122 224.64C180.506 224.384 180.698 223.984 180.698 223.44ZM177.434 215.664C178.762 215.664 179.426 215.008 179.426 213.696V213.144C179.426 211.832 178.762 211.176 177.434 211.176C176.106 211.176 175.442 211.832 175.442 213.144V213.696C175.442 215.008 176.106 215.664 177.434 215.664ZM184.975 222V209.472H187.879V211.56H188.215C188.711 209.976 189.711 209.184 191.215 209.184C192.335 209.184 193.199 209.568 193.807 210.336C194.415 211.088 194.719 212.168 194.719 213.576V222H191.815V214.08C191.815 212.448 191.207 211.632 189.991 211.632C189.399 211.632 188.895 211.808 188.479 212.16C188.079 212.496 187.879 212.976 187.879 213.6V222H184.975ZM205.908 222C204.612 222 203.932 221.288 203.868 219.864H203.58C203.42 220.632 203.06 221.232 202.5 221.664C201.94 222.08 201.244 222.288 200.412 222.288C199.26 222.288 198.396 221.968 197.82 221.328C197.244 220.688 196.956 219.792 196.956 218.64C196.956 217.328 197.364 216.352 198.18 215.712C198.996 215.072 200.172 214.752 201.708 214.752H203.652V213.672C203.652 212.936 203.492 212.392 203.172 212.04C202.868 211.688 202.356 211.512 201.636 211.512C201.044 211.512 200.548 211.656 200.148 211.944C199.748 212.216 199.396 212.608 199.092 213.12L197.388 211.584C197.852 210.864 198.436 210.288 199.14 209.856C199.86 209.408 200.772 209.184 201.876 209.184C204.996 209.184 206.556 210.656 206.556 213.6V219.672H207.66V222H205.908ZM201.516 220.152C202.108 220.152 202.612 219.984 203.028 219.648C203.444 219.296 203.652 218.816 203.652 218.208V216.552H201.9C200.556 216.552 199.884 217.072 199.884 218.112V218.64C199.884 219.168 200.028 219.552 200.316 219.792C200.604 220.032 201.004 220.152 201.516 220.152ZM213.228 222C212.22 222 211.492 221.776 211.044 221.328C210.596 220.88 210.372 220.168 210.372 219.192V211.8H208.716V209.472H209.58C209.996 209.472 210.276 209.376 210.42 209.184C210.58 208.992 210.66 208.688 210.66 208.272V206.064H213.276V209.472H215.532V211.8H213.276V219.672H215.34V222H213.228ZM224.507 219.888H224.171C223.691 221.488 222.675 222.288 221.123 222.288C220.003 222.288 219.139 221.912 218.531 221.16C217.939 220.392 217.643 219.296 217.643 217.872V209.472H220.547V217.392C220.547 219.04 221.155 219.864 222.371 219.864C222.963 219.864 223.467 219.688 223.883 219.336C224.299 218.984 224.507 218.496 224.507 217.872V209.472H227.411V222H224.507V219.888ZM230.584 222V209.472H233.488V212.04H233.824C233.968 211.208 234.264 210.576 234.712 210.144C235.176 209.696 235.776 209.472 236.512 209.472H237.136V212.448H236.176C235.264 212.448 234.584 212.592 234.136 212.88C233.704 213.168 233.488 213.672 233.488 214.392V222H230.584ZM243.796 222.288C242.98 222.288 242.228 222.16 241.54 221.904C240.868 221.632 240.292 221.232 239.812 220.704C239.332 220.16 238.956 219.48 238.684 218.664C238.428 217.832 238.3 216.856 238.3 215.736C238.3 213.48 238.748 211.824 239.644 210.768C240.556 209.712 241.852 209.184 243.532 209.184C245.212 209.184 246.5 209.712 247.396 210.768C248.308 211.824 248.764 213.48 248.764 215.736V216.432H241.348V217.248C241.348 218.08 241.58 218.736 242.044 219.216C242.508 219.696 243.148 219.936 243.964 219.936C244.652 219.936 245.228 219.792 245.692 219.504C246.172 219.2 246.58 218.768 246.916 218.208L248.5 219.864C248.036 220.6 247.412 221.192 246.628 221.64C245.844 222.072 244.9 222.288 243.796 222.288ZM243.532 211.416C242.076 211.416 241.348 212.28 241.348 214.008V214.632H245.716V214.008C245.716 212.28 244.988 211.416 243.532 211.416ZM254.978 222.288C253.938 222.288 253.026 222.104 252.242 221.736C251.458 221.352 250.77 220.784 250.178 220.032L251.954 218.304C252.354 218.864 252.802 219.288 253.298 219.576C253.794 219.864 254.37 220.008 255.026 220.008C256.242 220.008 256.85 219.496 256.85 218.472C256.85 218.072 256.746 217.76 256.538 217.536C256.346 217.296 256.01 217.136 255.53 217.056L254.354 216.84C253.042 216.6 252.09 216.192 251.498 215.616C250.906 215.04 250.61 214.2 250.61 213.096C250.61 211.784 250.994 210.808 251.762 210.168C252.53 209.512 253.618 209.184 255.026 209.184C256.002 209.184 256.842 209.344 257.546 209.664C258.266 209.984 258.89 210.456 259.418 211.08L257.714 212.784C257.394 212.384 257.002 212.064 256.538 211.824C256.09 211.584 255.586 211.464 255.026 211.464C253.906 211.464 253.346 211.968 253.346 212.976C253.346 213.392 253.458 213.712 253.682 213.936C253.906 214.144 254.258 214.288 254.738 214.368L255.938 214.584C257.25 214.824 258.186 215.232 258.746 215.808C259.322 216.368 259.61 217.16 259.61 218.184C259.61 219.48 259.21 220.488 258.41 221.208C257.61 221.928 256.466 222.288 254.978 222.288ZM267.053 209.472H269.957V211.536H270.293C270.469 210.832 270.821 210.264 271.349 209.832C271.893 209.4 272.525 209.184 273.245 209.184C274.717 209.184 275.805 209.744 276.509 210.864C277.213 211.968 277.565 213.592 277.565 215.736C277.565 217.88 277.213 219.512 276.509 220.632C275.805 221.736 274.717 222.288 273.245 222.288C272.525 222.288 271.893 222.072 271.349 221.64C270.821 221.208 270.469 220.64 270.293 219.936H269.957V226.8H267.053V209.472ZM272.141 219.888C272.893 219.888 273.477 219.656 273.893 219.192C274.309 218.728 274.517 218.072 274.517 217.224V214.248C274.517 213.4 274.309 212.744 273.893 212.28C273.477 211.816 272.893 211.584 272.141 211.584C271.485 211.584 270.957 211.752 270.557 212.088C270.157 212.408 269.957 212.864 269.957 213.456V218.016C269.957 218.608 270.157 219.072 270.557 219.408C270.957 219.728 271.485 219.888 272.141 219.888ZM284.835 222.288C284.019 222.288 283.267 222.16 282.579 221.904C281.907 221.632 281.331 221.232 280.851 220.704C280.371 220.16 279.995 219.48 279.723 218.664C279.467 217.832 279.339 216.856 279.339 215.736C279.339 213.48 279.787 211.824 280.683 210.768C281.595 209.712 282.891 209.184 284.571 209.184C286.251 209.184 287.539 209.712 288.435 210.768C289.347 211.824 289.803 213.48 289.803 215.736V216.432H282.387V217.248C282.387 218.08 282.619 218.736 283.083 219.216C283.547 219.696 284.187 219.936 285.003 219.936C285.691 219.936 286.267 219.792 286.731 219.504C287.211 219.2 287.619 218.768 287.955 218.208L289.539 219.864C289.075 220.6 288.451 221.192 287.667 221.64C286.883 222.072 285.939 222.288 284.835 222.288ZM284.571 211.416C283.115 211.416 282.387 212.28 282.387 214.008V214.632H286.755V214.008C286.755 212.28 286.027 211.416 284.571 211.416ZM292.225 222V209.472H295.129V212.04H295.465C295.609 211.208 295.905 210.576 296.353 210.144C296.817 209.696 297.417 209.472 298.153 209.472H298.777V212.448H297.817C296.905 212.448 296.225 212.592 295.777 212.88C295.345 213.168 295.129 213.672 295.129 214.392V222H292.225ZM306.057 222V205.248H315.849V207.864H309.057V212.232H314.937V214.776H309.057V222H306.057ZM318.019 222V219.624H320.011V207.624H318.019V205.248H325.003V207.624H323.011V219.624H325.003V222H318.019ZM327.9 222V205.248H334.836C336.308 205.248 337.42 205.704 338.172 206.616C338.94 207.528 339.324 208.784 339.324 210.384C339.324 211.984 338.94 213.24 338.172 214.152C337.42 215.064 336.308 215.52 334.836 215.52H330.9V222H327.9ZM330.9 212.904H334.524C335.036 212.904 335.436 212.768 335.724 212.496C336.028 212.208 336.18 211.752 336.18 211.128V209.64C336.18 209.016 336.028 208.568 335.724 208.296C335.436 208.008 335.036 207.864 334.524 207.864H330.9V212.904ZM346.503 222.288C345.255 222.288 344.151 222.064 343.191 221.616C342.247 221.152 341.431 220.472 340.743 219.576L342.711 217.68C343.191 218.336 343.751 218.84 344.391 219.192C345.031 219.528 345.751 219.696 346.551 219.696C348.343 219.696 349.239 218.88 349.239 217.248C349.239 216.576 349.079 216.064 348.759 215.712C348.439 215.36 347.911 215.104 347.175 214.944L345.711 214.656C344.191 214.336 343.071 213.792 342.351 213.024C341.631 212.256 341.271 211.184 341.271 209.808C341.271 208.208 341.743 207 342.687 206.184C343.647 205.368 345.007 204.96 346.767 204.96C347.967 204.96 348.991 205.16 349.839 205.56C350.703 205.944 351.439 206.552 352.047 207.384L350.079 209.232C349.663 208.672 349.191 208.256 348.663 207.984C348.135 207.696 347.487 207.552 346.719 207.552C345.871 207.552 345.247 207.72 344.847 208.056C344.447 208.392 344.247 208.936 344.247 209.688C344.247 210.312 344.399 210.792 344.703 211.128C345.023 211.464 345.535 211.712 346.239 211.872L347.703 212.184C348.519 212.36 349.207 212.576 349.767 212.832C350.343 213.088 350.807 213.408 351.159 213.792C351.527 214.176 351.791 214.632 351.951 215.16C352.127 215.672 352.215 216.28 352.215 216.984C352.215 218.712 351.719 220.032 350.727 220.944C349.751 221.84 348.343 222.288 346.503 222.288ZM370.066 222H359.554V219.216L364.282 214.488C365.114 213.672 365.698 212.952 366.034 212.328C366.386 211.704 366.562 211.056 366.562 210.384V209.664C366.562 208.976 366.378 208.448 366.01 208.08C365.642 207.696 365.114 207.504 364.426 207.504C363.05 207.504 362.194 208.336 361.858 210L359.266 208.992C359.634 207.664 360.274 206.664 361.186 205.992C362.098 205.304 363.258 204.96 364.666 204.96C365.562 204.96 366.33 205.072 366.97 205.296C367.61 205.504 368.13 205.816 368.53 206.232C368.946 206.632 369.242 207.136 369.418 207.744C369.61 208.336 369.706 209.008 369.706 209.76C369.706 210.32 369.65 210.84 369.538 211.32C369.426 211.784 369.234 212.256 368.962 212.736C368.706 213.216 368.354 213.72 367.906 214.248C367.458 214.76 366.898 215.352 366.226 216.024L362.746 219.48H370.066V222ZM377.675 222.288C376.699 222.288 375.859 222.128 375.155 221.808C374.451 221.472 373.867 220.96 373.403 220.272C372.955 219.568 372.619 218.672 372.395 217.584C372.171 216.48 372.059 215.16 372.059 213.624C372.059 212.088 372.171 210.776 372.395 209.688C372.619 208.584 372.955 207.688 373.403 207C373.867 206.296 374.451 205.784 375.155 205.464C375.859 205.128 376.699 204.96 377.675 204.96C378.651 204.96 379.491 205.128 380.195 205.464C380.899 205.784 381.475 206.296 381.923 207C382.387 207.688 382.731 208.584 382.955 209.688C383.179 210.776 383.291 212.088 383.291 213.624C383.291 215.16 383.179 216.48 382.955 217.584C382.731 218.672 382.387 219.568 381.923 220.272C381.475 220.96 380.899 221.472 380.195 221.808C379.491 222.128 378.651 222.288 377.675 222.288ZM377.675 219.72C378.587 219.72 379.219 219.432 379.571 218.856C379.939 218.264 380.123 217.304 380.123 215.976V211.272C380.123 209.944 379.939 208.992 379.571 208.416C379.219 207.824 378.587 207.528 377.675 207.528C376.763 207.528 376.123 207.824 375.755 208.416C375.403 208.992 375.227 209.944 375.227 211.272V215.976C375.227 217.304 375.403 218.264 375.755 218.856C376.123 219.432 376.763 219.72 377.675 219.72ZM389.82 212.088C390.572 212.088 391.164 211.904 391.596 211.536C392.044 211.152 392.268 210.648 392.268 210.024V209.376C392.268 208.768 392.076 208.296 391.692 207.96C391.324 207.608 390.804 207.432 390.132 207.432C389.444 207.432 388.852 207.6 388.356 207.936C387.86 208.272 387.428 208.768 387.06 209.424L385.14 207.744C385.684 206.88 386.388 206.2 387.252 205.704C388.116 205.208 389.132 204.96 390.3 204.96C391.852 204.96 393.076 205.312 393.972 206.016C394.884 206.72 395.34 207.816 395.34 209.304C395.34 210.312 395.084 211.152 394.572 211.824C394.076 212.48 393.38 212.896 392.484 213.072V213.432C393.524 213.576 394.308 213.968 394.836 214.608C395.38 215.248 395.652 216.104 395.652 217.176C395.652 218.76 395.156 220.008 394.164 220.92C393.172 221.832 391.804 222.288 390.06 222.288C387.612 222.288 385.796 221.256 384.612 219.192L386.796 217.536C387.196 218.32 387.652 218.896 388.164 219.264C388.692 219.632 389.316 219.816 390.036 219.816C390.836 219.816 391.452 219.608 391.884 219.192C392.332 218.776 392.556 218.208 392.556 217.488V216.816C392.556 216.112 392.316 215.56 391.836 215.16C391.356 214.744 390.676 214.536 389.796 214.536H388.356V212.088H389.82ZM25.984 248.536C25.984 247.288 26.08 246.128 26.272 245.056C26.464 243.968 26.728 242.976 27.064 242.08C27.4 241.168 27.8 240.352 28.264 239.632C28.728 238.912 29.232 238.288 29.776 237.76H32.512C31.344 238.96 30.416 240.36 29.728 241.96C29.056 243.56 28.72 245.296 28.72 247.168V249.904C28.72 251.776 29.056 253.512 29.728 255.112C30.416 256.712 31.344 258.112 32.512 259.312H29.776C29.232 258.784 28.728 258.16 28.264 257.44C27.8 256.72 27.4 255.912 27.064 255.016C26.728 254.104 26.464 253.112 26.272 252.04C26.08 250.952 25.984 249.784 25.984 248.536ZM45.3696 246.448L45.5616 243.616H45.2256L44.1216 246.352L41.0976 252.808L38.0976 246.352L36.9936 243.64H36.6576L36.8496 246.448V256H34.0176V239.248H37.3056L39.8016 244.696L41.0256 248.128H41.2416L42.4656 244.696L44.9136 239.248H48.2016V256H45.3696V246.448ZM51.7129 256V239.248H54.7129V253.384H60.5929V256H51.7129ZM61.6375 250.12V247.24H67.9255V250.12H61.6375ZM70.8848 239.248H76.5968C77.6048 239.248 78.5008 239.408 79.2848 239.728C80.0848 240.032 80.7568 240.528 81.3008 241.216C81.8608 241.888 82.2848 242.752 82.5728 243.808C82.8608 244.864 83.0048 246.136 83.0048 247.624C83.0048 249.112 82.8608 250.384 82.5728 251.44C82.2848 252.496 81.8608 253.368 81.3008 254.056C80.7568 254.728 80.0848 255.224 79.2848 255.544C78.5008 255.848 77.6048 256 76.5968 256H70.8848V239.248ZM76.5968 253.384C77.6208 253.384 78.4128 253.072 78.9728 252.448C79.5328 251.808 79.8128 250.856 79.8128 249.592V245.656C79.8128 244.392 79.5328 243.448 78.9728 242.824C78.4128 242.184 77.6208 241.864 76.5968 241.864H73.8848V253.384H76.5968ZM90.5888 256.288C89.3408 256.288 88.2368 256.064 87.2768 255.616C86.3328 255.152 85.5168 254.472 84.8288 253.576L86.7968 251.68C87.2768 252.336 87.8368 252.84 88.4768 253.192C89.1168 253.528 89.8368 253.696 90.6368 253.696C92.4288 253.696 93.3248 252.88 93.3248 251.248C93.3248 250.576 93.1648 250.064 92.8448 249.712C92.5248 249.36 91.9968 249.104 91.2608 248.944L89.7968 248.656C88.2768 248.336 87.1568 247.792 86.4368 247.024C85.7168 246.256 85.3568 245.184 85.3568 243.808C85.3568 242.208 85.8288 241 86.7728 240.184C87.7328 239.368 89.0928 238.96 90.8528 238.96C92.0528 238.96 93.0768 239.16 93.9248 239.56C94.7888 239.944 95.5248 240.552 96.1328 241.384L94.1648 243.232C93.7488 242.672 93.2768 242.256 92.7488 241.984C92.2208 241.696 91.5728 241.552 90.8048 241.552C89.9568 241.552 89.3328 241.72 88.9328 242.056C88.5328 242.392 88.3328 242.936 88.3328 243.688C88.3328 244.312 88.4848 244.792 88.7888 245.128C89.1088 245.464 89.6208 245.712 90.3248 245.872L91.7888 246.184C92.6048 246.36 93.2928 246.576 93.8528 246.832C94.4288 247.088 94.8928 247.408 95.2448 247.792C95.6128 248.176 95.8768 248.632 96.0368 249.16C96.2128 249.672 96.3008 250.28 96.3008 250.984C96.3008 252.712 95.8048 254.032 94.8128 254.944C93.8368 255.84 92.4288 256.288 90.5888 256.288ZM108.346 256L107.17 251.632H101.77L100.594 256H97.7144L102.61 239.248H106.402L111.298 256H108.346ZM105.154 244.624L104.626 241.96H104.29L103.762 244.624L102.49 249.208H106.45L105.154 244.624ZM118.077 248.536C118.077 249.784 117.981 250.952 117.789 252.04C117.597 253.112 117.333 254.104 116.997 255.016C116.661 255.912 116.261 256.72 115.797 257.44C115.333 258.16 114.829 258.784 114.285 259.312H111.549C112.717 258.112 113.637 256.712 114.309 255.112C114.997 253.512 115.341 251.776 115.341 249.904V247.168C115.341 245.296 114.997 243.56 114.309 241.96C113.637 240.36 112.717 238.96 111.549 237.76H114.285C114.829 238.288 115.333 238.912 115.797 239.632C116.261 240.352 116.661 241.168 116.997 242.08C117.333 242.976 117.597 243.968 117.789 245.056C117.981 246.128 118.077 247.288 118.077 248.536ZM133.981 253.48H133.669C133.525 254.344 133.117 255.032 132.445 255.544C131.773 256.04 130.917 256.288 129.877 256.288C128.389 256.288 127.253 255.872 126.469 255.04C125.701 254.208 125.317 253.064 125.317 251.608C125.317 250.52 125.557 249.624 126.037 248.92C126.533 248.2 127.309 247.544 128.365 246.952C127.165 245.464 126.565 244.048 126.565 242.704C126.565 241.504 126.933 240.584 127.669 239.944C128.421 239.288 129.493 238.96 130.885 238.96C132.277 238.96 133.341 239.288 134.077 239.944C134.829 240.584 135.205 241.504 135.205 242.704C135.205 244.512 134.189 246.024 132.157 247.24L134.701 250.552C134.893 249.992 135.037 249.408 135.133 248.8C135.245 248.176 135.317 247.552 135.349 246.928H138.829V249.328H137.437C137.325 249.888 137.181 250.432 137.005 250.96C136.845 251.488 136.653 251.976 136.429 252.424L139.429 256H135.901L133.981 253.48ZM130.885 241.192C130.421 241.192 130.045 241.312 129.757 241.552C129.469 241.792 129.325 242.168 129.325 242.68V243.04C129.325 243.408 129.445 243.832 129.685 244.312C129.925 244.776 130.269 245.232 130.717 245.68C131.261 245.376 131.685 245.008 131.989 244.576C132.293 244.128 132.445 243.632 132.445 243.088V242.68C132.445 242.168 132.301 241.792 132.013 241.552C131.725 241.312 131.349 241.192 130.885 241.192ZM130.741 253.864C131.269 253.864 131.725 253.768 132.109 253.576C132.509 253.384 132.853 253.112 133.141 252.76L129.805 248.512C128.781 249.072 128.269 249.936 128.269 251.104V251.584C128.269 252.304 128.477 252.864 128.893 253.264C129.325 253.664 129.941 253.864 130.741 253.864ZM146.424 256V239.248H156.216V241.864H149.424V246.232H155.304V248.776H149.424V256H146.424ZM158.386 256V253.624H160.378V241.624H158.386V239.248H165.37V241.624H163.378V253.624H165.37V256H158.386ZM168.268 256V239.248H175.204C176.676 239.248 177.788 239.704 178.54 240.616C179.308 241.528 179.692 242.784 179.692 244.384C179.692 245.984 179.308 247.24 178.54 248.152C177.788 249.064 176.676 249.52 175.204 249.52H171.268V256H168.268ZM171.268 246.904H174.892C175.404 246.904 175.804 246.768 176.092 246.496C176.396 246.208 176.548 245.752 176.548 245.128V243.64C176.548 243.016 176.396 242.568 176.092 242.296C175.804 242.008 175.404 241.864 174.892 241.864H171.268V246.904ZM186.87 256.288C185.622 256.288 184.518 256.064 183.558 255.616C182.614 255.152 181.798 254.472 181.11 253.576L183.078 251.68C183.558 252.336 184.118 252.84 184.758 253.192C185.398 253.528 186.118 253.696 186.918 253.696C188.71 253.696 189.606 252.88 189.606 251.248C189.606 250.576 189.446 250.064 189.126 249.712C188.806 249.36 188.278 249.104 187.542 248.944L186.078 248.656C184.558 248.336 183.438 247.792 182.718 247.024C181.998 246.256 181.638 245.184 181.638 243.808C181.638 242.208 182.11 241 183.054 240.184C184.014 239.368 185.374 238.96 187.134 238.96C188.334 238.96 189.358 239.16 190.206 239.56C191.07 239.944 191.806 240.552 192.414 241.384L190.446 243.232C190.03 242.672 189.558 242.256 189.03 241.984C188.502 241.696 187.854 241.552 187.086 241.552C186.238 241.552 185.614 241.72 185.214 242.056C184.814 242.392 184.614 242.936 184.614 243.688C184.614 244.312 184.766 244.792 185.07 245.128C185.39 245.464 185.902 245.712 186.606 245.872L188.07 246.184C188.886 246.36 189.574 246.576 190.134 246.832C190.71 247.088 191.174 247.408 191.526 247.792C191.894 248.176 192.158 248.632 192.318 249.16C192.494 249.672 192.582 250.28 192.582 250.984C192.582 252.712 192.086 254.032 191.094 254.944C190.118 255.84 188.71 256.288 186.87 256.288ZM210.434 256H199.922V253.216L204.65 248.488C205.482 247.672 206.066 246.952 206.402 246.328C206.754 245.704 206.93 245.056 206.93 244.384V243.664C206.93 242.976 206.746 242.448 206.378 242.08C206.01 241.696 205.482 241.504 204.794 241.504C203.418 241.504 202.562 242.336 202.226 244L199.634 242.992C200.002 241.664 200.642 240.664 201.554 239.992C202.466 239.304 203.626 238.96 205.034 238.96C205.93 238.96 206.698 239.072 207.338 239.296C207.978 239.504 208.498 239.816 208.898 240.232C209.314 240.632 209.61 241.136 209.786 241.744C209.978 242.336 210.074 243.008 210.074 243.76C210.074 244.32 210.018 244.84 209.906 245.32C209.794 245.784 209.602 246.256 209.33 246.736C209.074 247.216 208.722 247.72 208.274 248.248C207.826 248.76 207.266 249.352 206.594 250.024L203.114 253.48H210.434V256ZM218.043 256.288C217.067 256.288 216.227 256.128 215.523 255.808C214.819 255.472 214.235 254.96 213.771 254.272C213.323 253.568 212.987 252.672 212.763 251.584C212.539 250.48 212.427 249.16 212.427 247.624C212.427 246.088 212.539 244.776 212.763 243.688C212.987 242.584 213.323 241.688 213.771 241C214.235 240.296 214.819 239.784 215.523 239.464C216.227 239.128 217.067 238.96 218.043 238.96C219.019 238.96 219.859 239.128 220.563 239.464C221.267 239.784 221.843 240.296 222.291 241C222.755 241.688 223.099 242.584 223.323 243.688C223.547 244.776 223.659 246.088 223.659 247.624C223.659 249.16 223.547 250.48 223.323 251.584C223.099 252.672 222.755 253.568 222.291 254.272C221.843 254.96 221.267 255.472 220.563 255.808C219.859 256.128 219.019 256.288 218.043 256.288ZM218.043 253.72C218.955 253.72 219.587 253.432 219.939 252.856C220.307 252.264 220.491 251.304 220.491 249.976V245.272C220.491 243.944 220.307 242.992 219.939 242.416C219.587 241.824 218.955 241.528 218.043 241.528C217.131 241.528 216.491 241.824 216.123 242.416C215.771 242.992 215.595 243.944 215.595 245.272V249.976C215.595 251.304 215.771 252.264 216.123 252.856C216.491 253.432 217.131 253.72 218.043 253.72ZM231.987 256V252.784H225.219V250.24L230.883 239.248H234.795V250.408H236.787V252.784H234.795V256H231.987ZM227.571 250.408H231.987V242.128H231.627L227.571 250.408ZM243.554 248.536C243.554 247.288 243.65 246.128 243.842 245.056C244.034 243.968 244.298 242.976 244.634 242.08C244.97 241.168 245.37 240.352 245.834 239.632C246.298 238.912 246.802 238.288 247.346 237.76H250.082C248.914 238.96 247.986 240.36 247.298 241.96C246.626 243.56 246.29 245.296 246.29 247.168V249.904C246.29 251.776 246.626 253.512 247.298 255.112C247.986 256.712 248.914 258.112 250.082 259.312H247.346C246.802 258.784 246.298 258.16 245.834 257.44C245.37 256.72 244.97 255.912 244.634 255.016C244.298 254.104 244.034 253.112 243.842 252.04C243.65 250.952 243.554 249.784 243.554 248.536ZM256.292 256.288C255.044 256.288 253.94 256.064 252.98 255.616C252.036 255.152 251.22 254.472 250.532 253.576L252.5 251.68C252.98 252.336 253.54 252.84 254.18 253.192C254.82 253.528 255.54 253.696 256.34 253.696C258.132 253.696 259.028 252.88 259.028 251.248C259.028 250.576 258.868 250.064 258.548 249.712C258.228 249.36 257.7 249.104 256.964 248.944L255.5 248.656C253.98 248.336 252.86 247.792 252.14 247.024C251.42 246.256 251.06 245.184 251.06 243.808C251.06 242.208 251.532 241 252.476 240.184C253.436 239.368 254.796 238.96 256.556 238.96C257.756 238.96 258.78 239.16 259.628 239.56C260.492 239.944 261.228 240.552 261.836 241.384L259.868 243.232C259.452 242.672 258.98 242.256 258.452 241.984C257.924 241.696 257.276 241.552 256.508 241.552C255.66 241.552 255.036 241.72 254.636 242.056C254.236 242.392 254.036 242.936 254.036 243.688C254.036 244.312 254.188 244.792 254.492 245.128C254.812 245.464 255.324 245.712 256.028 245.872L257.492 246.184C258.308 246.36 258.996 246.576 259.556 246.832C260.132 247.088 260.596 247.408 260.948 247.792C261.316 248.176 261.58 248.632 261.74 249.16C261.916 249.672 262.004 250.28 262.004 250.984C262.004 252.712 261.508 254.032 260.516 254.944C259.54 255.84 258.132 256.288 256.292 256.288ZM264.69 256V239.248H267.69V253.384H273.57V256H264.69ZM285.153 248.776H279.033V256H276.033V239.248H279.033V246.232H285.153V239.248H288.153V256H285.153V248.776ZM291.114 250.12V247.24H297.402V250.12H291.114ZM300.361 239.248H306.073C307.081 239.248 307.977 239.408 308.761 239.728C309.561 240.032 310.233 240.528 310.777 241.216C311.337 241.888 311.761 242.752 312.049 243.808C312.337 244.864 312.481 246.136 312.481 247.624C312.481 249.112 312.337 250.384 312.049 251.44C311.761 252.496 311.337 253.368 310.777 254.056C310.233 254.728 309.561 255.224 308.761 255.544C307.977 255.848 307.081 256 306.073 256H300.361V239.248ZM306.073 253.384C307.097 253.384 307.889 253.072 308.449 252.448C309.009 251.808 309.289 250.856 309.289 249.592V245.656C309.289 244.392 309.009 243.448 308.449 242.824C307.889 242.184 307.097 241.864 306.073 241.864H303.361V253.384H306.073ZM320.065 256.288C318.817 256.288 317.713 256.064 316.753 255.616C315.809 255.152 314.993 254.472 314.305 253.576L316.273 251.68C316.753 252.336 317.313 252.84 317.953 253.192C318.593 253.528 319.313 253.696 320.113 253.696C321.905 253.696 322.801 252.88 322.801 251.248C322.801 250.576 322.641 250.064 322.321 249.712C322.001 249.36 321.473 249.104 320.737 248.944L319.273 248.656C317.753 248.336 316.633 247.792 315.913 247.024C315.193 246.256 314.833 245.184 314.833 243.808C314.833 242.208 315.305 241 316.249 240.184C317.209 239.368 318.569 238.96 320.329 238.96C321.529 238.96 322.553 239.16 323.401 239.56C324.265 239.944 325.001 240.552 325.609 241.384L323.641 243.232C323.225 242.672 322.753 242.256 322.225 241.984C321.697 241.696 321.049 241.552 320.281 241.552C319.433 241.552 318.809 241.72 318.409 242.056C318.009 242.392 317.809 242.936 317.809 243.688C317.809 244.312 317.961 244.792 318.265 245.128C318.585 245.464 319.097 245.712 319.801 245.872L321.265 246.184C322.081 246.36 322.769 246.576 323.329 246.832C323.905 247.088 324.369 247.408 324.721 247.792C325.089 248.176 325.353 248.632 325.513 249.16C325.689 249.672 325.777 250.28 325.777 250.984C325.777 252.712 325.281 254.032 324.289 254.944C323.313 255.84 321.905 256.288 320.065 256.288ZM337.823 256L336.647 251.632H331.247L330.071 256H327.191L332.087 239.248H335.879L340.775 256H337.823ZM334.631 244.624L334.103 241.96H333.767L333.239 244.624L331.967 249.208H335.927L334.631 244.624ZM347.554 248.536C347.554 249.784 347.458 250.952 347.266 252.04C347.074 253.112 346.81 254.104 346.474 255.016C346.138 255.912 345.738 256.72 345.274 257.44C344.81 258.16 344.306 258.784 343.762 259.312H341.026C342.194 258.112 343.114 256.712 343.786 255.112C344.474 253.512 344.818 251.776 344.818 249.904V247.168C344.818 245.296 344.474 243.56 343.786 241.96C343.114 240.36 342.194 238.96 341.026 237.76H343.762C344.306 238.288 344.81 238.912 345.274 239.632C345.738 240.352 346.138 241.168 346.474 242.08C346.81 242.976 347.074 243.968 347.266 245.056C347.458 246.128 347.554 247.288 347.554 248.536Z" fill="white"/>
</svg>
