<svg width="1440" height="784" viewBox="0 0 1440 784" fill="none" xmlns="http://www.w3.org/2000/svg">
<g opacity="0.1" clip-path="url(#clip0_47307_1493)">
<path d="M1342.89 740.139C1312.37 730.409 1283.55 721.211 1265.82 708.891C1226.05 679.547 1191.1 638.765 1164.74 590.955C1141.23 548.325 1125.83 502.293 1121.36 461.329C1117.89 429.472 1125.13 399.428 1142.88 372.016C1163.6 340.012 1198.88 311.389 1247.74 286.924C1291.33 265.098 1324.73 251.994 1352.83 245.687C1366.2 242.684 1378.47 241.179 1389.98 241.179C1403.9 241.179 1416.7 243.384 1428.96 247.815C1450.5 255.599 1470.53 270.383 1492 294.337C1510.52 315.008 1530.26 342.427 1558 386.03C1577.38 416.508 1596.75 432.139 1621.26 451.942C1657.48 481.181 1702.55 517.574 1771.48 620.733C1794.73 655.523 1776.16 679.085 1758.2 701.87C1746.76 716.381 1735.96 730.087 1735.23 746.46C1734.77 756.925 1740.07 769.868 1749.63 783.301H1748.27C1738.59 769.525 1733.72 756.82 1734.19 746.418C1734.93 729.709 1746.34 715.233 1757.38 701.233C1775.11 678.735 1793.44 655.474 1770.61 621.314C1701.76 518.281 1656.77 481.944 1620.6 452.754C1596.01 432.895 1576.58 417.215 1557.11 386.59C1509.33 311.459 1472.97 264.825 1428.6 248.788C1385.82 233.332 1335.25 244.287 1248.21 287.855C1157.16 333.432 1114.84 391.756 1122.41 461.21C1130.7 537.293 1178.45 643.126 1266.43 708.037C1284.02 720.259 1312.77 729.429 1343.21 739.138C1381.37 751.311 1420.51 763.799 1440.34 783.301H1438.84C1418.98 764.401 1380.46 752.116 1342.89 740.132L1342.89 740.139Z" fill="white"/>
<path d="M1223.88 707.153C1246.02 731.324 1260.55 756.797 1267.38 783.299H1266.3C1259.48 757.049 1245.06 731.814 1223.1 707.853C1175.65 656.074 1152.71 619.5 1124.94 551.306C1104.26 500.535 1096.15 454.356 1100.84 414.022C1103.41 391.895 1105.44 374.415 1126.79 352.19C1149.3 328.769 1192.88 300.873 1268.09 261.75C1320.92 234.275 1361.49 221.479 1395.78 221.479C1428.58 221.479 1457.14 233.358 1485.66 258.859C1497.18 269.149 1506.96 284.879 1517.33 301.532C1533.23 327.068 1551.25 356.012 1581 375.619C1643.73 416.947 1652.72 429.268 1674.46 459.046C1693.05 484.519 1721.15 523.011 1801.4 604.001C1831.55 632.778 1834.35 668.22 1837.06 702.499C1839.48 733.061 1841.8 762.453 1864.75 783.313H1863.14C1840.74 762.313 1838.42 733.026 1836.02 702.583C1833.32 668.5 1830.54 633.262 1800.67 604.743C1720.36 523.69 1692.23 485.156 1673.62 459.655C1651.96 429.989 1643 417.704 1580.43 376.48C1550.48 356.755 1532.39 327.704 1516.44 302.077C1506.12 285.494 1496.36 269.828 1484.96 259.636C1428.51 209.167 1369.87 209.993 1268.58 262.682C1193.47 301.756 1149.97 329.588 1127.55 352.919C1106.44 374.892 1104.42 392.216 1101.87 414.168C1097.21 454.306 1105.3 500.318 1125.9 550.921C1153.62 618.982 1176.51 655.486 1223.87 707.16L1223.88 707.153Z" fill="white"/>
<path d="M1819.53 582.813C1778.6 542.857 1736.27 501.536 1698.57 435.148C1684.33 412.118 1658.95 392.364 1632.09 371.448C1615.06 358.197 1597.46 344.491 1580.57 328.566C1565.06 313.068 1554.1 298.333 1543.49 284.088C1519.28 251.573 1498.38 223.489 1434 206.29C1402.3 197.82 1373.88 193.193 1321.31 216.454C1303.4 224.378 1285.67 234.633 1261.14 248.836C1231.6 265.937 1191.14 289.352 1130.5 319.627C1085.34 342.174 1079.02 383.341 1078.93 424.473C1078.79 479.409 1100.21 544.677 1152.86 649.747C1163.84 671.664 1177.27 690.004 1190.25 707.742C1208.44 732.599 1225.25 755.58 1230.78 783.3H1229.68C1224.14 755.825 1207.45 733.019 1189.4 708.358C1176.39 690.592 1162.95 672.217 1151.92 650.216C1124.81 596.12 1106.74 554.323 1095.03 518.672C1083.26 482.853 1077.81 452.914 1077.88 424.473C1077.92 406.56 1078.95 385.651 1086.28 366.331C1094.39 344.932 1108.7 329.35 1130.03 318.703C1190.63 288.442 1231.08 265.034 1260.61 247.94C1285.17 233.723 1302.93 223.447 1320.88 215.502C1349.71 202.748 1371.32 198.331 1390.19 198.331C1405.93 198.331 1419.76 201.411 1434.27 205.282C1499 222.572 1520.02 250.789 1544.34 283.465C1554.93 297.682 1565.87 312.382 1581.32 327.817C1598.16 343.7 1615.74 357.385 1632.74 370.622C1659.68 391.594 1685.13 411.411 1699.48 434.616C1737.12 500.892 1779.39 542.157 1820.27 582.064C1824.82 586.495 1829.36 590.933 1833.91 595.413C1846.48 607.782 1856.12 628.978 1866.33 651.413C1882.67 687.316 1901.18 728.007 1937.59 750.148C1952.16 759.003 1965.78 762.965 1979.31 763.462V764.442C1964.73 763.903 1950.98 759.507 1937.05 751.037C1900.36 728.728 1881.78 687.883 1865.38 651.847C1855.2 629.496 1845.6 608.391 1833.18 596.155C1828.63 591.682 1824.08 587.244 1819.55 582.813H1819.53Z" fill="white"/>
<path d="M1111.33 596.218C1138.35 659.057 1166.01 723.415 1169.79 783.307H1168.74C1164.94 723.604 1137.33 659.358 1110.36 596.631C1085.62 539.091 1060.05 479.591 1054.4 425.873C1051.67 399.77 1057.39 372.288 1070.53 348.502C1083.62 324.814 1103.14 306.376 1125.51 296.576C1195.83 265.769 1234.57 248.794 1295.09 206.864C1323.02 187.509 1354.61 177.814 1389.52 177.814C1409.76 177.814 1431.11 181.076 1453.49 187.6C1500.33 201.264 1521.46 225.946 1543.83 252.084C1560.81 271.922 1578.38 292.446 1608.45 310.163C1687.8 356.923 1705.67 386.029 1728.29 422.877C1755.8 467.677 1790.03 523.432 1941.28 637.112L1942.18 637.791C1956.35 648.438 1968.36 657.461 1979.3 664.762V666.015C1968.18 658.63 1955.98 649.467 1941.55 638.617L1940.65 637.938C1873.42 587.412 1823.29 543.774 1787.4 504.532C1756.38 470.617 1740.98 445.543 1727.4 423.416C1703.97 385.252 1687.04 357.679 1607.92 311.052C1577.7 293.244 1560.08 272.657 1543.03 252.756C1520.77 226.744 1499.74 202.174 1453.19 188.601C1392.53 170.905 1339.54 177.338 1295.69 207.718C1235.08 249.711 1196.32 266.693 1125.93 297.528C1080.18 317.569 1049.88 372.701 1055.45 425.761C1061.07 479.318 1086.62 538.748 1111.32 596.218H1111.33Z" fill="white"/>
<path d="M1034.82 504.342C1011.77 449.189 991.858 401.561 997.962 366.736C1005.01 326.514 1019.58 299.004 1043.79 280.16C1065.31 263.416 1091.5 255.765 1119.24 247.659C1135.34 242.955 1151.99 238.09 1168.12 231.244C1201.82 216.936 1218.17 204.329 1233.99 192.149C1243.95 184.47 1253.36 177.225 1266.65 169.812C1302.28 149.946 1344.03 129.107 1393.17 129.107C1397 129.107 1400.86 129.233 1404.77 129.492C1462.16 133.342 1511.68 152.753 1556.17 188.852C1571.86 201.585 1583.37 214.29 1594.5 226.582C1610.56 244.313 1625.73 261.064 1650.74 274.042C1690.98 294.923 1722.05 317.148 1745.74 341.991C1766.92 364.195 1780.51 386.546 1793.66 408.162C1797.47 414.434 1801.41 420.916 1805.5 427.321C1844.44 488.466 1917.54 518.664 1979.31 533.574V534.645C1946.16 526.658 1916.29 515.822 1890.29 502.319C1852.35 482.614 1823.52 457.568 1804.61 427.888C1800.53 421.469 1796.58 414.987 1792.77 408.708C1765.46 363.789 1739.65 321.355 1650.27 274.973C1625.1 261.911 1609.87 245.09 1593.74 227.289C1582.64 215.025 1571.16 202.348 1555.53 189.664C1511.22 153.705 1461.89 134.364 1404.72 130.535C1350.8 126.916 1305.45 149.379 1267.18 170.722C1253.96 178.093 1244.58 185.324 1234.65 192.975C1218.79 205.204 1202.38 217.846 1168.55 232.21C1152.36 239.084 1135.68 243.956 1119.55 248.667C1065.46 264.473 1014.36 279.404 999.019 366.918C992.964 401.442 1012.82 448.944 1035.81 503.943C1052.79 544.55 1072.02 590.568 1083.49 638.364C1096.35 691.928 1097.42 739.374 1086.74 783.306H1085.65C1109.91 683.934 1068.33 584.45 1034.84 504.349L1034.82 504.342Z" fill="white"/>
<path d="M1060.09 772.274C1090.52 674.988 1052.28 589.105 1003.87 480.374C999.999 471.687 996.002 462.699 992.012 453.648C977.977 421.798 971.131 389.654 971.67 358.112C972.153 330.049 978.369 308.608 983.5 295.56C992.754 272.026 1010.72 253.721 1036.9 241.17C1054.1 232.917 1074.63 227.198 1099.66 223.67C1175.89 212.092 1188.4 199.604 1205.73 182.314C1216.92 171.149 1229.61 158.486 1262.32 143.086C1315.09 118.229 1358.84 106.287 1398.93 106.287C1413.2 106.287 1427.01 107.799 1440.59 110.781C1464.02 115.926 1487.16 125.376 1513.39 140.517C1539.37 155.511 1565.77 174.663 1590.44 193.129C1599.35 199.8 1608.84 208.984 1618.01 217.86C1629.91 229.382 1641.16 240.26 1651.13 246.007C1678.73 261.918 1698.4 276.009 1717.42 289.638C1733.14 300.908 1748 311.548 1766.65 322.825C1795.06 340.01 1812.03 365.546 1828.46 390.242C1845.54 415.953 1861.69 440.236 1889.03 451.73C1908.5 461.355 1929.86 467.088 1956.22 469.776C1963.91 469.895 1971.61 470.525 1979.3 471.498V472.548C1971.59 471.568 1963.86 470.931 1956.16 470.812C1929.63 468.11 1908.16 462.342 1888.6 452.668C1860.99 441.062 1844.77 416.653 1827.59 390.802C1811.24 366.204 1794.32 340.766 1766.11 323.7C1747.43 312.402 1732.56 301.748 1716.82 290.464C1697.82 276.849 1678.17 262.772 1650.61 246.889C1640.53 241.072 1629.24 230.152 1617.29 218.588C1608.13 209.733 1598.67 200.57 1589.81 193.941C1473.54 106.889 1407.45 75.8581 1262.77 144.003C1230.22 159.326 1217.61 171.919 1206.47 183.028C1189.01 200.458 1176.39 213.051 1099.81 224.678C1038.47 233.309 999.67 257.284 984.473 295.917C975.849 317.848 959.413 377.068 992.971 453.207C996.961 462.258 1000.96 471.246 1004.83 479.933C1028.29 532.615 1050.43 582.371 1062.34 629.873C1075.51 682.401 1075.11 727.74 1061.09 772.568C1059.94 776.243 1058.59 779.806 1057.06 783.285H1055.92C1057.5 779.701 1058.9 776.04 1060.09 772.253V772.274Z" fill="white"/>
<path d="M1039.19 746.459C1054.87 632.177 1018.87 558.432 987.114 493.36C974.5 467.509 962.579 443.093 954.62 417.837C945.688 389.487 943 364.042 946.164 337.75C961.466 210.504 1030.32 203.371 1096.91 196.469C1113.88 194.712 1131.43 192.892 1147.48 188.986C1170.41 185.857 1190.62 168.287 1210.18 151.291C1227.2 136.493 1243.27 122.521 1260.66 117.852C1314.81 99.7149 1361.51 90.7129 1402.83 90.7129C1432.8 90.7129 1459.95 95.4519 1485.04 104.888C1560.07 133.112 1605.97 172.2 1646.54 209.818C1671.64 233.093 1724.31 268.415 1770.76 299.586C1793.67 314.958 1815.3 329.476 1829.68 339.976C1850.21 354.97 1863.93 367.766 1874.97 378.042C1901.47 402.745 1915.52 415.821 1979.3 422.233V423.283C1915.09 416.85 1900.95 403.69 1874.25 378.805C1863.24 368.543 1849.54 355.775 1829.07 340.816C1814.71 330.33 1793.08 315.819 1770.18 300.454C1723.69 269.269 1671 233.919 1645.83 210.588C1603.65 171.486 1559.58 134.05 1484.67 105.868C1425.24 83.5169 1354.17 87.6399 1260.97 118.853C1243.79 123.466 1227.8 137.368 1210.87 152.082C1191.21 169.176 1170.87 186.851 1147.69 190.015C1131.61 193.928 1114.03 195.755 1097.03 197.512C1030.85 204.372 962.418 211.456 947.214 337.876C940.333 395.108 962.453 440.426 988.066 492.905C1019.89 558.103 1055.95 632.002 1040.23 746.634C1037.63 759.22 1033.63 771.393 1028.2 783.3H1027.15C1032.31 771.953 1036.44 759.773 1039.19 746.459Z" fill="white"/>
<path d="M925.778 435.819C896.994 388.611 893.984 362.781 891.555 342.026C889.609 325.373 888.209 313.34 874.083 297.016C859.159 285.333 838.355 285.676 814.276 286.075C776.406 286.698 733.474 287.405 698.628 241.338C675.829 211.189 668.15 184.883 675.171 160.901C684.95 127.497 723.331 99.2943 795.963 72.1483C840.56 55.4813 862.267 52.8003 878.913 61.9003C896.231 71.3713 907.46 93.9953 926.052 131.487C927.879 135.176 929.782 139.012 931.735 142.932C960.904 187.48 975.877 183.364 1015.89 172.367C1043.8 164.695 1081.91 154.216 1144.29 154.216C1144.89 154.216 1145.51 154.216 1146.12 154.216C1146.26 154.216 1146.41 154.216 1146.56 154.216C1182.5 154.216 1196.01 139.817 1209.08 125.887C1218.78 115.541 1227.96 105.762 1245.61 102.668C1264.05 99.2663 1282.83 94.9193 1301 90.7123C1350.98 79.1413 1398.19 68.2073 1440.85 74.7523C1472.84 79.6593 1502.68 88.8853 1532.06 102.962C1560.51 116.591 1587.89 134.469 1615.75 157.611C1624.74 165.08 1632.6 171.73 1639.53 177.603C1670.28 203.629 1685.71 216.691 1718.63 232.063C1762.02 252.321 1789.45 276.758 1813.65 298.318C1841.5 323.133 1863.51 342.733 1899.04 346.856C1918.45 349.11 1927.39 340.444 1935.27 332.8C1936.31 331.792 1937.29 330.847 1938.29 329.923C1947.73 316.329 1963.14 313.123 1979.29 311.87V312.92C1963.4 314.166 1948.28 317.33 1939.12 330.567C1939.1 330.595 1939.07 330.63 1939.04 330.651C1938.04 331.575 1937.05 332.534 1936 333.542C1927.95 341.347 1918.83 350.195 1898.93 347.885C1863.06 343.727 1840.94 324.022 1812.95 299.088C1788.8 277.577 1761.44 253.196 1718.18 233.001C1685.12 217.573 1669.66 204.476 1638.85 178.394C1631.92 172.528 1624.06 165.871 1615.07 158.409C1558.78 111.649 1503.36 85.3993 1440.68 75.7813C1398.23 69.2713 1351.11 80.1773 1301.23 91.7273C1283.05 95.9343 1264.25 100.288 1245.78 103.697C1228.47 106.728 1219.41 116.381 1209.83 126.601C1196.61 140.692 1182.94 155.259 1146.55 155.259C1146.4 155.259 1146.25 155.259 1146.1 155.259C1082.81 155.049 1044.28 165.64 1016.16 173.368C996.514 178.772 982.311 182.671 969.634 179.465C956.663 176.189 945.427 165.766 930.818 143.443C928.83 139.467 926.933 135.631 925.099 131.942C888.055 57.2663 880.341 41.7193 796.32 73.1213C724.024 100.141 685.839 128.12 676.165 161.188C669.242 184.827 676.865 210.839 699.454 240.708C733.978 286.348 776.622 285.648 814.247 285.025C838.551 284.626 859.544 284.276 874.762 296.225C874.79 296.246 874.811 296.267 874.832 296.295C889.196 312.878 890.694 325.688 892.584 341.907C894.992 362.557 897.995 388.268 926.66 435.28C962.626 494.276 998.123 557.458 1014.13 619.772C1022.29 651.503 1024.96 680.77 1022.31 709.26C1019.92 734.866 1013.3 759.233 1002.18 783.299H1001.01C1055.33 666.056 996.576 551.97 925.764 435.819H925.778Z" fill="white"/>
<path d="M1882.53 165.467C1875.23 191.528 1860.24 207.558 1840.34 210.589C1815.16 214.432 1785.91 197.072 1765.81 166.363C1758.81 159.587 1751.27 161.603 1742.54 163.941C1736.08 165.67 1728.75 167.623 1720.82 165.915C1681.93 155.52 1652.56 136.165 1621.47 115.669C1590.44 95.208 1558.36 74.054 1513.44 59.193C1509.05 57.744 1504.89 56.344 1500.91 55C1465 42.918 1443.33 35.631 1396.93 38.41C1356.39 40.839 1345.02 43.443 1329.29 47.048C1325.33 47.958 1321.22 48.896 1316.29 49.918C1301.62 52.956 1288.97 52.746 1271.45 52.445C1256.18 52.186 1237.17 51.864 1210.59 53.782C1196.81 54.776 1184.96 59.053 1173.51 63.183C1165.38 66.116 1157.69 68.888 1150.07 70.141C1137.25 72.241 1127.09 70.19 1117.28 68.202C1109.12 66.55 1101.41 64.989 1092.98 66.102C1085.26 67.124 1077.57 68.923 1069.44 70.827C1049.65 75.454 1029.19 80.242 1007.64 73.424C970.971 61.818 957.216 43.261 943.916 25.32C937.406 16.542 931.184 8.15601 922.518 0.708008H924.107C932.381 8.02301 938.443 16.178 944.764 24.704C957.966 42.512 971.615 60.929 1007.97 72.437C1029.24 79.171 1049.56 74.418 1069.21 69.819C1077.37 67.908 1085.08 66.102 1092.86 65.08C1101.46 63.946 1109.25 65.521 1117.5 67.187C1127.23 69.154 1137.28 71.191 1149.91 69.119C1157.44 67.887 1165.07 65.129 1173.17 62.21C1184.69 58.052 1196.6 53.761 1210.53 52.753C1237.16 50.828 1256.19 51.15 1271.49 51.409C1288.94 51.703 1301.55 51.92 1316.09 48.903C1321.02 47.881 1325.12 46.943 1329.07 46.04C1344.86 42.428 1356.26 39.817 1396.89 37.381C1443.49 34.588 1465.23 41.903 1501.26 54.027C1505.25 55.364 1509.4 56.764 1513.79 58.22C1558.84 73.123 1590.98 94.319 1622.08 114.815C1653.09 135.262 1682.39 154.575 1721.08 164.921C1728.74 166.573 1735.63 164.732 1742.29 162.954C1750.97 160.637 1759.17 158.439 1766.61 165.684C1766.64 165.712 1766.66 165.74 1766.68 165.775C1786.55 196.176 1815.41 213.375 1840.2 209.588C1859.67 206.62 1874.36 190.856 1881.54 165.215C1889.97 135.136 1886.71 120.464 1883.56 106.275C1878.93 85.429 1874.57 65.724 1907.71 0.722008H1908.89C1875.65 65.78 1879.99 85.338 1884.59 106.051C1887.77 120.366 1891.05 135.164 1882.55 165.495L1882.53 165.467Z" fill="white"/>
<path d="M970.262 691.893C972.544 618.057 942.101 546.804 861.671 437.772C832.467 398.173 784.972 374.198 724.842 343.846C704.906 333.78 684.291 323.371 662.122 311.331C631.35 294.615 609.09 274.973 595.944 252.937C583.89 232.735 579.634 210.846 583.281 187.879C588.902 152.529 613.346 116.143 652.126 85.4126C690.381 55.0956 738.569 33.3116 787.814 24.0716C809.164 20.0676 823.556 10.1906 835.925 0.68457H837.64C824.928 10.5126 810.221 20.9286 788.01 25.1006C738.933 34.3126 690.913 56.0196 652.784 86.2316C614.214 116.794 589.896 152.956 584.324 188.047C578.997 221.57 588.258 270.017 662.626 310.421C684.774 322.454 705.382 332.856 725.318 342.922C785.567 373.337 833.16 397.361 862.518 437.156C902.74 491.686 929.473 535.45 946.63 574.867C964.655 616.265 972.495 653.463 971.305 691.921C970.262 725.633 961.834 754.935 944.908 783.299H943.725C960.777 754.676 969.24 724.758 970.255 691.885L970.262 691.893Z" fill="white"/>
<path d="M945.533 692.586C951.924 606.472 900.712 509.368 801.326 419.173C767.621 388.583 739.607 378.167 688.752 359.26C685.539 358.063 682.235 356.838 678.826 355.564C651.883 345.512 626.263 330 604.738 310.708C582.849 291.087 566.707 268.876 558.062 246.462C547.8 219.855 548.605 193.885 560.386 171.352C574.708 143.968 582.688 124.2 589.1 108.324C599.985 81.3736 605.977 66.5266 629.763 46.3316C655.544 21.5796 686.148 19.2066 718.544 16.6936C743.296 14.7756 768.65 12.8086 793.157 0.68457H795.488C770.253 13.7326 744.129 15.7556 718.628 17.7366C686.428 20.2356 656.006 22.5876 630.477 47.1016C606.859 67.1496 600.902 81.9126 590.08 108.709C583.661 124.613 575.667 144.402 561.324 171.828C549.683 194.088 548.899 219.764 559.049 246.084C576.472 291.262 623.638 333.85 679.204 354.584C682.613 355.858 685.917 357.083 689.13 358.28C740.104 377.229 768.188 387.673 802.04 418.396C901.664 508.815 953.002 606.22 946.583 692.656C944.301 723.407 934.676 752.401 917.974 778.833C917.029 780.331 916.056 781.815 915.069 783.292H913.62C932.303 755.593 943.125 725.073 945.54 692.579L945.533 692.586Z" fill="white"/>
<path d="M1795.25 113.784C1753.96 130.619 1712.13 128.694 1670.91 108.058C1460.78 2.86238 1387.42 16.7924 1328.47 27.9924C1314.08 30.7224 1300.49 33.3054 1285.95 33.9494C1252.75 33.4454 1219.59 36.4484 1187.52 39.3534C1128.72 44.6804 1073.17 49.7134 1018.1 34.7334C997.438 29.1124 980.106 15.3924 963.705 0.692383H965.273C981.331 15.0074 998.299 28.2654 1018.38 33.7254C1073.27 48.6564 1128.72 43.6304 1187.43 38.3104C1219.53 35.4054 1252.71 32.3954 1285.94 32.9064C1300.36 32.2694 1313.92 29.6934 1328.27 26.9704C1387.38 15.7424 1460.94 1.77038 1671.38 107.127C1712.32 127.623 1753.86 129.534 1794.85 112.818C1861.06 85.8194 1874.57 43.0914 1869.86 0.692383H1870.84C1872.61 16.5194 1871.7 30.5474 1868.14 43.3714C1859.58 74.2414 1835.74 97.2784 1795.25 113.784Z" fill="white"/>
<path d="M905.036 736.287C928.92 681.183 922.305 620.675 884.827 551.319C820.518 432.326 741.047 405.789 683.01 386.413C665.37 380.526 650.138 375.437 637.202 368.619C605.702 352.022 581.531 335.572 563.317 318.331C545.698 301.657 534.064 284.633 527.75 266.272C521.786 248.94 520.68 230.677 524.362 210.433C527.701 192.072 535.051 171.94 546.832 148.896C559.803 123.528 565.991 99.3574 571.451 78.0354C580.208 43.8474 587.124 16.8484 616.587 1.28738C616.979 1.08438 617.364 0.888383 617.749 0.692383H620.087C619.086 1.17538 618.085 1.67938 617.077 2.21138C588.02 17.5554 581.16 44.3584 572.466 78.2944C566.992 99.6724 560.783 123.899 547.763 149.372C523.319 197.182 517.453 233.127 528.737 265.936C541.274 302.378 576.911 335.663 637.692 367.695C650.551 374.471 665.748 379.546 683.339 385.419C741.537 404.851 821.239 431.465 885.744 550.822C923.39 620.479 930.012 681.281 905.995 736.701C899.142 752.513 889.832 767.976 877.869 783.299H876.539C888.691 767.836 898.12 752.24 905.036 736.287Z" fill="white"/>
<path d="M1745.43 73.3524C1716.51 81.5144 1691.03 82.9004 1665.27 77.7134C1641.66 72.9674 1619.72 63.2724 1594.31 52.0514C1555.16 34.7614 1506.44 13.2364 1431.76 2.65238C1407.63 -0.770617 1376.79 3.74438 1344.14 8.52538C1319.89 12.0744 1294.82 15.7424 1272.89 15.8124C1248.09 15.8894 1222.19 17.6534 1197.15 19.3614C1135.02 23.6034 1070.77 27.9854 1021.43 6.06838C1018.02 4.54938 1014.6 2.74338 1011.17 0.692383H1013.23C1016.11 2.35838 1018.99 3.83538 1021.86 5.11638C1070.96 26.9284 1135.08 22.5534 1197.08 18.3254C1222.14 16.6174 1248.05 14.8464 1272.89 14.7764C1294.74 14.7134 1319.78 11.0454 1343.99 7.50338C1364.55 4.49338 1384.4 1.58838 1402.33 0.699383H1422.53C1425.75 0.895383 1428.88 1.20338 1431.9 1.63038C1506.72 12.2354 1555.52 33.7884 1594.73 51.1064C1645.8 73.6674 1682.7 89.9704 1745.13 72.3514C1763.74 67.1014 1773.14 43.3084 1785.04 13.1874C1786.65 9.09938 1788.3 4.93438 1790.01 0.699383H1791.13C1789.36 5.06738 1787.67 9.35838 1786.01 13.5724C1774 43.9594 1764.53 67.9694 1745.41 73.3594L1745.43 73.3524Z" fill="white"/>
<path d="M849.079 769.509C886.095 722.259 899.031 675.527 886.48 634.36C830.62 451.114 745.885 423.87 663.936 397.529C630.644 386.826 599.193 376.711 569.394 356.81C535.612 334.249 510.104 303.092 489.118 258.754C465.535 208.942 488.033 178.436 507.885 151.514C516.628 139.656 524.881 128.463 529.039 116.311C535.787 96.5994 538.062 79.2464 540.071 63.9304C542.78 43.2524 545.125 25.3954 557.137 7.88838C558.901 5.34038 560.735 2.95338 562.625 0.692383H563.99C561.911 3.12138 559.916 5.71138 557.998 8.47638C546.126 25.7664 543.795 43.5114 541.1 64.0634C539.084 79.4284 536.802 96.8374 530.026 116.647C525.812 128.946 517.51 140.209 508.725 152.13C489.048 178.814 466.746 209.054 490.063 258.306C535.976 355.291 598.283 375.325 664.258 396.535C746.466 422.967 831.467 450.295 887.488 634.059C893.613 654.149 893.669 675.828 887.663 698.48C881.412 722.035 868.714 746.15 849.912 770.146C846.468 774.542 842.807 778.931 838.971 783.299H837.578C841.631 778.714 845.474 774.115 849.086 769.502L849.079 769.509Z" fill="white"/>
<path d="M1088.3 0.692383H1093.48C1146.54 11.0314 1203.1 5.32638 1247.53 0.692383H1257.63C1254.9 0.972383 1252.15 1.25938 1249.35 1.55338C1203.21 6.36938 1143.6 12.5854 1088.3 0.692383Z" fill="white"/>
<path d="M-270.492 1.66538C-315.292 48.6214 -357.761 137.682 -352.252 217.041C-346.288 302.987 -283.288 388.352 -210.334 487.199C-197.944 503.985 -185.127 521.352 -172.478 538.908C-150.428 569.512 -129.645 599.85 -109.548 629.187C-71.279 685.054 -34.613 738.569 3.88696 783.306H2.50098C-35.817 738.667 -72.322 685.383 -110.416 629.775C-130.513 600.445 -151.289 570.114 -173.332 539.517C-185.981 521.961 -198.791 504.608 -211.181 487.815C-247.084 439.172 -280.992 393.224 -306.822 348.473C-335.802 298.262 -350.572 256.521 -353.302 217.111C-355.955 178.884 -347.905 136.247 -330.027 93.8134C-315.026 58.2184 -293.606 24.3734 -271.255 0.944383C-271.178 0.860383 -271.094 0.776383 -271.017 0.692383H-269.589C-269.89 1.01438 -270.191 1.34338 -270.499 1.66538H-270.492Z" fill="white"/>
<path d="M787.227 725.186C815.577 691.054 817.502 648.606 814.128 619.01C807.646 562.191 775.677 502.95 734.573 471.59C707.049 450.59 668.206 437.178 627.088 422.975C552.769 397.306 468.538 368.221 423.948 285.194C388.549 219.289 397.152 159.684 449.519 108.038C450.905 106.673 452.417 105.322 454.02 103.894C463.953 95.0322 475.209 84.9942 463.757 64.9812C449.827 40.6422 447.37 19.3272 456.449 1.6312C456.61 1.3162 456.785 1.0082 456.953 0.700195H458.15C457.891 1.1692 457.625 1.6312 457.387 2.1072C448.476 19.4742 450.926 40.4532 464.674 64.4632C476.539 85.1972 464.443 95.9912 454.727 104.664C453.131 106.085 451.626 107.429 450.261 108.773C398.265 160.062 389.725 219.247 424.879 284.697C469.28 367.36 553.301 396.382 627.438 421.981C668.64 436.212 707.553 449.652 735.217 470.757C776.531 502.278 808.661 561.806 815.178 618.884C818.58 648.683 816.634 691.432 788.046 725.844C769.587 748.062 751.569 767.123 733.67 783.293H731.941C749.644 767.452 768.026 748.307 787.241 725.179L787.227 725.186Z" fill="white"/>
<path d="M734.63 702.862C759.613 673.707 770.589 635.172 765.528 594.369C760.054 550.255 735.736 508.983 700.47 483.972C650.805 448.741 620.761 439.48 588.953 429.673C557.453 419.964 524.889 409.919 470.289 374.345C435.723 351.819 410.327 321.866 394.808 285.312C380.353 251.264 374.683 212.183 377.959 169.14C379.401 150.191 387.479 134.84 395.291 120C404.167 103.137 413.344 85.6999 412.693 62.9639C412.028 39.9129 417.544 18.6399 428.296 0.712891H429.521C418.657 18.5839 413.071 39.8569 413.736 62.9359C414.401 85.9449 405.154 103.508 396.215 120.49C388.452 135.239 380.423 150.492 379.002 169.231C374.228 232 386.296 318.387 470.863 373.491C525.337 408.988 557.838 419.005 589.261 428.693C621.153 438.528 651.274 447.81 701.079 483.139C719.195 495.991 734.203 512.546 745.69 532.356C756.673 551.298 763.897 572.704 766.571 594.264C771.667 635.361 760.614 674.183 735.435 703.562C701.8 743.742 662.327 767.549 618.157 783.334H615C660.157 767.605 700.435 743.735 734.63 702.89V702.862Z" fill="white"/>
<path d="M-198.12 4.50038C-202.691 11.8014 -207.416 19.3474 -212.631 26.7254C-212.645 26.7464 -212.659 26.7674 -212.68 26.7814C-220.723 35.3144 -230.075 42.6504 -239.966 50.4204C-263.045 68.5364 -289.211 89.0604 -305.577 131.592C-325.751 184.001 -333.199 222.522 -314.838 275.876C-296.302 329.72 -250.193 399.097 -160.642 507.856C-140.79 531.964 -119.741 564.864 -95.3668 602.958C-58.0708 661.247 -15.0068 728.531 36.7162 783.306H35.2742C-16.2178 728.601 -59.0928 661.597 -96.2488 603.518C-120.602 565.452 -141.637 532.58 -161.454 508.514C-251.082 399.657 -297.254 330.182 -315.832 276.212C-324.806 250.137 -327.886 226.624 -325.534 202.215C-323.574 181.894 -317.897 160.656 -306.564 131.214C-290.093 88.4164 -263.808 67.7944 -240.624 49.5944C-230.768 41.8594 -221.458 34.5584 -213.478 26.0884C-208.291 18.7454 -203.58 11.2204 -199.023 3.94038C-198.344 2.85538 -197.665 1.77038 -196.986 0.692383H-195.747C-196.538 1.95238 -197.336 3.21938 -198.127 4.49338L-198.12 4.50038Z" fill="white"/>
<path d="M-154.804 4.11701C-166.536 27.049 -179.836 53.04 -227.828 93.92C-325.338 176.975 -293.873 273.547 -266.44 323.723C-231.279 388.032 -190.483 432.594 -154.489 471.913C-125.684 503.378 -100.806 530.559 -83.2219 562.262C-13.5858 687.828 13.8612 737.325 70.6382 783.315H69.0002C52.0672 769.434 37.0802 754.629 22.6742 736.968C-7.77585 699.644 -34.8939 651.568 -84.1389 562.766C-101.66 531.175 -126.503 504.036 -155.266 472.62C-191.295 433.259 -232.14 388.648 -267.364 324.227C-281.238 298.852 -297.219 259.337 -294.559 215.167C-291.787 169.156 -269.569 128.101 -228.514 93.136C-180.676 52.396 -167.432 26.503 -155.742 3.65501C-155.238 2.66801 -154.734 1.68801 -154.23 0.708008H-153.054C-153.635 1.84201 -154.216 2.97601 -154.804 4.12401V4.11701Z" fill="white"/>
<path d="M433.329 781.165C592.565 755.762 670.335 729.624 710.235 641.879C724.011 611.59 725.971 584.99 716.241 560.567C693.834 504.329 612.788 471.051 534.409 438.865C508.327 428.155 483.687 418.04 461.028 407.085C424.061 389.221 397.244 365.169 379.03 333.564C362.713 305.249 353.144 270.277 349.777 226.688C340.096 156.562 345.724 135.373 354.243 103.306C357.085 92.5962 360.312 80.4512 363.287 64.9322C366.584 37.9472 371.358 17.0522 378.687 0.700195H379.87C372.443 17.0242 367.634 37.9612 364.323 65.0932C361.334 80.6822 358.107 92.8412 355.258 103.572C346.774 135.52 341.167 156.625 350.82 226.576C357.827 317.156 391.952 372.54 461.483 406.147C484.114 417.088 508.74 427.196 534.808 437.899C613.383 470.169 694.639 503.531 717.214 560.182C727.056 584.878 725.089 611.744 711.187 642.306C671.091 730.485 593.118 756.728 433.476 782.194C431.075 782.502 428.667 782.873 426.252 783.3H420.687C424.915 782.418 429.129 781.697 433.322 781.165H433.329Z" fill="white"/>
<path d="M380.562 766.037C413.497 752.555 445.704 746.577 476.847 740.802C510.58 734.544 542.444 728.636 573.272 713.88C646.135 678.992 681.135 645.245 657.468 566.971C635.915 495.697 569.709 474.886 503.755 459.682C464.562 450.645 428.442 437.072 399.294 420.419C368.242 402.681 346.003 381.807 334.985 360.065C316.407 323.399 317.912 285.991 319.368 249.822C319.9 236.641 320.446 223.005 319.956 209.831C318.311 149.267 321.44 98.2296 329.273 58.1336C333.578 36.0906 339.402 16.8826 346.675 0.68457H347.767C327.194 45.9326 318.423 114.785 321.006 209.796C321.496 223.005 320.943 236.662 320.418 249.864C318.969 285.907 317.471 323.168 335.923 359.596C346.843 381.156 368.942 401.869 399.819 419.509C428.876 436.106 464.898 449.644 503.993 458.66C570.255 473.934 636.762 494.857 658.476 566.663C669.837 604.218 668.234 632.554 653.443 655.822C640.101 676.815 616.259 694.455 573.734 714.818C542.78 729.637 510.853 735.559 477.043 741.824C445.949 747.592 413.798 753.549 380.968 766.996C374.437 769.67 368.039 772.309 361.767 774.899C354.823 777.769 348.033 780.569 341.362 783.292H338.597C346.017 780.275 353.598 777.139 361.361 773.933C367.633 771.343 374.031 768.704 380.562 766.03V766.037Z" fill="white"/>
<path d="M-123.087 34.1454C-145.627 81.3394 -178.359 112.804 -207.241 140.573C-244.292 176.196 -273.566 204.329 -264.851 249.878C-242.899 364.622 -170.722 428.833 -112.734 480.423C-105.09 487.22 -97.873 493.646 -90.866 500.072C-56.496 531.621 -44.8481 563.149 -32.5141 596.532C-23.7291 620.311 -14.643 644.895 3.38196 670.011C40.811 722.154 74.775 759.247 107.717 783.299H105.953C73.27 759.149 39.5859 722.238 2.52795 670.613C-15.5811 645.385 -24.695 620.731 -33.501 596.889C-45.793 563.632 -57.399 532.209 -91.587 500.835C-98.587 494.409 -105.804 487.99 -113.441 481.193C-142.561 455.286 -175.559 425.928 -203.538 389.101C-235.696 346.779 -256.087 301.3 -265.894 250.06C-274.714 203.965 -245.265 175.65 -207.983 139.81C-179.171 112.111 -146.509 80.7094 -124.046 33.6904C-118.278 21.6154 -112.188 10.6324 -105.769 0.692383H-104.488C-110.872 10.4784 -117.088 21.5664 -123.101 34.1384L-123.087 34.1454Z" fill="white"/>
<path d="M-12.7659 16.4774C-36.9299 37.7014 -39.1559 56.3704 -41.116 72.8414C-42.2219 82.1024 -43.2649 90.8454 -48.4029 98.3984C-80.0569 150.415 -114.084 170.288 -141.419 186.255C-162.489 198.561 -179.135 208.284 -186.135 228.654C-202.991 277.717 -199.302 316.91 -174.844 348.494C-153.186 376.466 -118.298 395.324 -84.5649 413.566C-40.192 437.555 1.71704 460.214 10.621 501.101C13.5891 514.73 15.9761 527.043 18.2861 538.95C31.1241 605.156 38.8731 645.112 111.708 707.643C146.491 738.891 185.383 754.501 228.181 754.501C285.581 754.501 349.995 726.41 420.856 670.305C458.495 640.506 444.327 622.607 427.926 601.88C418.203 589.595 408.151 576.89 407.234 560.335C402.166 522.969 381.754 493.954 348.245 476.454C282.774 448.048 246.388 405.67 236.994 346.898C228.783 295.525 241.691 240.169 254.179 186.64C267.29 130.43 279.673 77.3354 261.809 42.0204C253.584 25.7524 243.651 11.9764 232.087 0.699383H233.599C244.911 11.9064 254.648 25.5354 262.747 41.5514C280.779 77.2094 268.354 130.479 255.201 186.878C242.741 240.309 229.854 295.567 238.03 346.737C247.361 405.131 283.551 447.25 348.693 475.516C382.552 493.198 403.153 522.479 408.27 560.237C409.173 576.498 419.12 589.07 428.738 601.229C436.977 611.638 444.754 621.473 445.685 632.561C446.728 644.972 439.035 657.222 421.493 671.117C367.628 713.761 317.067 740.585 271.203 750.847C256.58 754.116 242.265 755.754 228.349 755.754C215.245 755.754 202.498 754.305 190.192 751.4C161.975 744.75 135.326 730.288 110.994 708.42C37.8931 645.658 30.1161 605.569 17.2361 539.139C14.9261 527.239 12.539 514.933 9.57104 501.311C0.765045 460.893 -40.9409 438.346 -85.09 414.476C-118.921 396.185 -153.907 377.271 -175.698 349.124C-200.387 317.246 -204.132 277.724 -187.15 228.311C-180.024 207.577 -163.231 197.77 -141.972 185.352C-114.735 169.441 -80.834 149.645 -49.306 97.8314C-44.3009 90.4674 -43.314 82.2424 -42.18 72.7154C-40.192 56.0624 -37.9449 37.1834 -13.4799 15.6934C-7.87994 10.7724 -0.991943 5.69038 6.91106 0.692383H8.87105C0.429047 5.93538 -6.89996 11.2974 -12.787 16.4704L-12.7659 16.4774Z" fill="white"/>
<path d="M77.6866 23.0294C44.9196 46.0524 12.9996 83.9504 -17.1914 135.666C-37.6314 170.68 -65.4424 191.61 -89.9774 210.076C-123.304 235.157 -149.624 254.967 -144.661 298.535C-140.538 333.668 -125.572 357.678 -98.9024 371.951C-75.5364 384.46 -45.9824 387.974 -19.9004 391.075C12.9436 394.981 41.3146 398.355 53.7326 416.87C53.7466 416.898 53.7676 416.926 53.7746 416.954C64.9956 442.651 64.0716 462.923 63.0986 484.392C61.5586 518.146 59.8156 556.408 102.446 627.941C116.838 652.091 153.308 679.055 195.35 696.625C242.327 716.26 287.169 720.761 318.382 708.98C339.578 700.979 354.516 685.789 362.783 663.837C372.17 638.917 372.863 605.345 364.841 564.052C358.002 528.842 336.764 516.928 309.877 501.85C278.258 484.119 238.904 462.048 202.35 394.428C187.874 367.646 182.694 337.924 186.509 303.561C189.911 272.922 200.012 241.373 209.777 210.86C223.462 168.118 237.609 123.92 234.179 80.5904C225.989 39.2554 200.383 9.26038 166.587 0.699383H170.465C185.046 5.15138 198.241 13.7264 209.077 25.8784C221.971 40.3334 231.001 59.1844 235.215 80.4434C238.666 124.032 224.491 168.328 210.771 211.168C190.436 274.679 171.235 334.669 203.267 393.931C239.674 461.285 278.881 483.272 310.388 500.94C337.513 516.151 358.94 528.17 365.87 563.849C373.927 605.331 373.22 639.092 363.763 664.201C355.384 686.447 340.243 701.84 318.753 709.953C307.203 714.314 293.812 716.463 279.147 716.463C253.877 716.463 224.827 710.072 194.944 697.584C152.706 679.93 116.04 652.805 101.543 628.466C58.7586 556.667 60.5086 518.237 62.0486 484.336C63.0216 463.007 63.9386 442.861 52.8296 417.402C40.6636 399.321 12.5376 395.975 -20.0264 392.104C-46.1924 388.989 -75.8584 385.468 -99.3994 372.868C-126.391 358.42 -141.539 334.144 -145.704 298.647C-148.014 278.382 -143.779 261.862 -132.376 246.651C-122.1 232.938 -106.805 221.423 -90.6074 209.236C-66.1494 190.826 -38.4294 169.966 -18.0944 135.134C12.1666 83.2924 44.1846 45.2824 77.0846 22.1684C91.8196 11.8154 106.646 4.61938 121.129 0.692383H125.385C109.761 4.29738 93.6676 11.7944 77.6866 23.0224V23.0294Z" fill="white"/>
<path d="M179.299 54.382C172.18 47.221 163.073 43.287 152.23 42.678C140.442 42.02 126.561 45.31 110.951 52.464C86.8288 64 69.6578 90.054 51.4858 117.634C33.6918 144.64 15.2888 172.563 -10.9472 188.306C-39.2482 210.097 -59.5272 230.775 -71.2662 249.815C-81.8502 266.972 -85.5602 282.855 -82.3052 297.023C-76.6912 321.425 -49.6712 340.444 -8.16119 349.201C6.98682 352.4 23.3458 354.017 39.4178 354.017C50.9608 354.017 62.3568 353.184 73.0458 351.49C100.164 347.206 120.303 337.938 129.76 325.394C158.306 287.524 159.671 271.536 161.246 253.021C162.436 239.049 163.78 223.215 177.262 194.998C188.532 171.401 195.602 143.086 196.666 117.305C197.828 89.158 191.661 66.814 179.299 54.382ZM178.55 55.117C190.702 67.339 196.764 89.41 195.616 117.263C194.559 142.911 187.524 171.079 176.31 194.55C162.751 222.942 161.393 238.874 160.196 252.937C158.635 271.291 157.284 287.146 128.92 324.771C119.624 337.098 99.7228 346.219 72.8778 350.461C47.4328 354.479 17.9698 353.646 -7.94418 348.179C-49.0342 339.506 -75.7672 320.774 -81.2832 296.785C-84.4752 282.897 -80.8072 267.28 -70.3702 250.354C-58.7012 231.426 -38.5062 210.839 -10.3522 189.16C16.0308 173.326 34.5038 145.305 52.3608 118.201C70.4558 90.747 87.5428 64.819 111.399 53.402C125.714 46.836 138.37 43.56 149.283 43.56C161.113 43.56 170.892 47.41 178.55 55.117Z" fill="white"/>
<path d="M112.694 221.809C113.044 207.144 108.704 195.587 100.472 189.28C92.0935 182.861 67.2505 173.551 17.6905 225.694C-2.76352 246.596 -3.9465 261.548 -1.3285 270.403C1.6395 280.476 11.2435 288.071 25.0055 291.256C29.5555 292.306 34.5675 292.873 39.8455 292.873C58.8505 292.873 81.2925 285.565 98.0225 267.421C98.0435 267.4 98.0645 267.372 98.0785 267.344C107.15 252.833 112.337 236.663 112.694 221.809ZM111.644 221.781C111.294 236.439 106.17 252.406 97.2175 266.749C76.1335 289.59 45.8795 295.008 25.2435 290.241C11.8595 287.147 2.54246 279.811 -0.320545 270.116C-2.85455 261.527 -1.65754 246.967 18.4535 226.415C67.4255 174.888 91.6735 183.862 99.8285 190.106C107.675 196.119 111.98 207.662 111.644 221.781Z" fill="white"/>
<path d="M898.22 186.753C902.371 167.468 895.048 144.83 875.182 115.5C875.175 115.486 875.162 115.472 875.155 115.458C861.554 98.9383 843.025 90.3633 821.528 90.6783C802.453 90.9513 782.607 98.1893 765.646 111.048C749.7 123.144 738.291 138.859 733.517 155.309C728.134 173.845 731.424 192.227 743.03 208.481C761.601 231.056 780.353 243.418 800.373 246.295C803.404 246.729 806.478 246.946 809.607 246.946C826.064 246.946 843.893 240.891 863.801 228.571C883.527 216.37 894.783 202.685 898.22 186.739V186.753ZM897.19 186.536C893.823 202.188 882.722 215.649 863.248 227.696C843.543 239.883 825.889 246.05 809.453 246.057C785.954 246.057 764.932 233.464 743.862 207.858C718.606 172.48 736.919 134.155 766.284 111.881C798.267 87.6193 845.649 81.2843 874.328 116.102C894.012 145.173 901.278 167.552 897.197 186.536H897.19Z" fill="white"/>
<path d="M838.02 168.897C840.344 160.126 838.727 150.795 833.806 144.537C829.963 139.651 824.517 137.117 818.098 137.215C797.028 138.048 784.092 145.776 782.601 158.418C781.103 171.081 791.666 185.501 805.204 189.274C807.43 189.897 809.614 190.198 811.756 190.198C822.305 190.198 831.643 182.764 837.999 168.981C838.013 168.953 838.02 168.925 838.027 168.897H838.02ZM837.019 168.589C829.613 184.619 818.119 191.794 805.484 188.273C792.408 184.626 782.202 170.738 783.644 158.544C784.484 151.446 790.077 139.378 818.14 138.265C824.216 138.16 829.347 140.568 832.987 145.188C837.705 151.18 839.252 160.147 837.026 168.596L837.019 168.589Z" fill="white"/>
<path d="M1605.53 559.517C1604.77 555.443 1604.04 551.593 1603.53 548.331C1596.25 502.558 1557.9 458.094 1527.09 422.373C1515.63 409.08 1504.8 396.522 1497.47 385.959C1473.54 349.559 1453.44 325.64 1434.21 310.681C1415.32 295.988 1395.91 288.946 1373.13 288.519C1333.82 287.791 1290.59 298.095 1254.54 316.834C1225.03 332.171 1186.15 360.549 1168.5 408.632C1157.16 439.523 1165.27 487.557 1190.18 537.109C1214.82 586.103 1249.46 623.384 1278.43 632.092C1312.3 643.733 1347.23 645.582 1381.01 647.374C1413.04 649.068 1446.17 650.824 1479.23 660.743C1505.6 668.66 1528.14 672.616 1546.71 672.616C1567.08 672.616 1582.69 667.849 1593.38 658.322C1619.7 634.851 1610.84 587.691 1605.55 559.509L1605.53 559.517ZM1592.67 657.544C1572.54 675.499 1534.48 676.234 1479.53 659.742C1446.35 649.781 1413.16 648.025 1381.07 646.331C1347.36 644.546 1312.5 642.704 1278.75 631.099C1250.03 622.467 1215.63 585.389 1191.12 536.641C1166.33 487.34 1158.24 439.621 1169.48 408.989C1198.18 330.827 1292.89 289.527 1369.17 289.527C1370.49 289.527 1371.79 289.541 1373.1 289.562C1417.77 290.402 1450.08 315.784 1496.59 386.54C1503.96 397.152 1514.81 409.731 1526.29 423.052C1557.02 458.675 1595.25 503.013 1602.49 548.492C1603.01 551.768 1603.74 555.625 1604.5 559.706C1609.75 587.671 1618.54 634.465 1592.66 657.551L1592.67 657.544Z" fill="white"/>
<path d="M1459.58 541.443C1469.56 525.798 1472.35 491.869 1466.53 457.016C1462.54 433.125 1451.11 388.633 1419.4 359.016C1388.33 330.001 1330.78 310.212 1233.05 380.758C1215.78 394.051 1204.79 412.545 1201.28 434.259C1198.08 454.027 1201 475.846 1209.71 497.35C1219.63 521.794 1236.18 543.592 1256.33 558.719C1275.45 573.083 1296.44 580.524 1317.56 580.524C1320.76 580.524 1323.97 580.349 1327.17 580.006C1338.37 579.278 1349.69 579.621 1360.63 579.95C1398.17 581.077 1433.62 582.134 1459.57 541.457L1459.58 541.443ZM1458.69 540.883C1433.06 581.063 1397.9 580.006 1360.67 578.893C1354.5 578.711 1348.21 578.522 1341.89 578.522C1336.96 578.522 1332.02 578.634 1327.08 578.956C1272.34 584.836 1228.38 540.575 1210.69 496.951C1196.1 460.964 1194.48 411.761 1233.68 381.584C1330.8 311.479 1387.89 331.03 1418.67 359.779C1450.16 389.186 1461.52 433.433 1465.49 457.191C1471.27 491.806 1468.54 525.441 1458.68 540.89L1458.69 540.883Z" fill="white"/>
<path d="M1075.82 293.974C1093.78 279.295 1110.73 274.122 1130.35 268.13C1148.57 262.565 1169.22 256.258 1196.57 241.11C1218.37 229.028 1237.15 215.182 1253.73 202.967C1271.63 189.772 1287.09 178.376 1302.76 171.411C1335.99 156.655 1364.05 149.788 1391.08 149.788C1395.97 149.788 1400.94 150.012 1405.87 150.46C1436.3 153.218 1465.37 164.187 1502.4 180.994C1530.01 193.517 1551.13 214.202 1573.49 236.105C1591.12 253.367 1609.34 271.21 1632.25 286.687L1639.48 291.573C1697.07 330.43 1723.34 348.161 1754.18 403.818C1801.6 489.414 1839.87 535.467 1917.46 549.607C1944.27 554.493 1962.25 571.104 1979.81 589.157L1980.01 589.36V595.373L1978.8 594.134C1961.95 576.753 1944.52 558.784 1916.71 553.716C1837.47 539.275 1798.57 492.585 1750.5 405.841C1720.15 351.059 1694.14 333.503 1637.12 295.031L1629.89 290.145C1606.68 274.458 1588.31 256.482 1570.55 239.08C1548.46 217.45 1527.6 197.017 1500.67 184.795C1424.72 150.341 1380.67 141.395 1304.48 175.226C1289.22 182.002 1273.94 193.265 1256.23 206.32C1239.56 218.612 1220.66 232.549 1198.62 244.757C1170.88 260.115 1150.01 266.492 1131.59 272.12C1111.6 278.224 1095.81 283.047 1078.49 297.201C1042.1 326.923 1026.42 357.408 1027.63 396.048C1028.75 431.699 1044.48 471.725 1062.68 518.065C1069.62 535.726 1076.8 553.982 1083.88 573.715C1102.24 624.871 1127.38 694.934 1126.66 783.316V784.009H1122.44V783.309C1123.16 695.592 1098.17 625.963 1079.92 575.122C1072.87 555.459 1065.7 537.224 1058.77 519.584C1040.42 472.887 1024.58 432.553 1023.44 396.188C1022.83 376.868 1026.37 359.641 1034.26 343.52C1042.79 326.069 1056.39 309.864 1075.83 293.988L1075.82 293.974Z" fill="white"/>
<path d="M993.552 695.248C995.68 613.971 953.365 516.993 852.082 370.987C835.933 349.714 808.339 343.197 781.648 336.897C762.713 332.431 743.141 327.811 727.412 318.018C658.763 282.955 621.523 233.087 625.24 181.196C626.927 157.676 637.259 135.01 655.116 115.648C673.393 95.8453 699.391 79.7733 730.31 69.1753C736.078 67.2013 742.987 65.0663 750.295 62.8053C772.499 55.9453 800.128 47.4053 816.207 36.9613C846.307 17.4103 869.386 12.1533 888.846 20.4203C906.066 27.7353 917.854 44.4793 930.328 62.2033C943.565 81.0053 957.25 100.444 978.39 109.957C1002.39 120.751 1032.92 116.803 1071.72 97.8683C1101.53 83.3223 1115.76 92.1703 1128.32 99.9753C1142.52 108.802 1153.73 115.767 1185.72 84.2743C1207.61 62.7283 1223.52 65.5773 1238.92 68.3283C1242.32 68.9373 1245.83 69.5673 1249.32 69.8893C1290.51 73.7043 1320.2 67.3063 1348.91 61.1253C1378.64 54.7203 1406.73 48.6793 1444.44 54.6293C1486.53 61.2723 1534.76 82.0063 1596.2 119.883C1625.38 137.873 1651.63 156.185 1677.02 173.895C1721.03 204.597 1762.59 233.598 1815.42 258.623C1843.37 271.867 1878.42 268.395 1906.89 249.565C1937.99 228.999 1954.79 195.532 1952.97 157.732C1952.97 157.634 1952.97 157.536 1952.97 157.438C1954.36 142.626 1944.32 130.348 1934.61 118.469C1926.77 108.879 1918.67 98.9673 1916.4 87.5503C1913.85 72.5143 1921.84 59.2283 1930.3 45.1583C1937.92 32.4953 1946.54 18.1453 1948.11 0.624305L1948.17 -0.0126953H1952.36L1952.3 0.743305C1950.75 19.2793 1941.8 34.1613 1933.9 47.3003C1925.5 61.2723 1918.25 73.3333 1920.53 86.7943C1922.59 97.1333 1930.01 106.219 1937.87 115.83C1948.09 128.318 1958.64 141.233 1957.17 157.676C1958.12 177.941 1953.97 196.89 1944.86 214.005C1936.55 229.608 1924.22 243.104 1909.22 253.03C1879.52 272.665 1842.89 276.249 1813.61 262.382C1760.48 237.21 1718.77 208.111 1674.6 177.297C1649.26 159.622 1623.07 141.352 1593.99 123.425C1460.78 41.3013 1409.35 52.3753 1349.8 65.1993C1320.77 71.4503 1290.76 77.9113 1248.93 74.0403C1245.27 73.6973 1241.65 73.0533 1238.17 72.4303C1223.17 69.7493 1209.01 67.2153 1188.67 87.2353C1173.13 102.537 1160.97 110.223 1150.41 111.434C1140.63 112.554 1133.57 108.158 1126.08 103.51C1114.46 96.2793 1101.28 88.0893 1073.56 101.613C1048.12 114.024 1026.47 120.058 1007.38 120.058C965.916 120.058 945.175 90.5883 926.877 64.5973C914.662 47.2443 903.119 30.8503 886.97 24.0953C869.001 16.5843 847.238 21.7783 818.489 40.4543C801.927 51.2133 773.983 59.8513 751.527 66.7883C744.254 69.0353 737.387 71.1563 731.661 73.1163C671.006 93.9063 632.779 134.415 629.405 181.49C625.807 231.645 662.242 280.064 729.358 314.322C729.414 314.35 729.463 314.378 729.519 314.413C744.723 323.884 763.98 328.434 782.6 332.83C810.012 339.298 838.355 345.99 855.463 368.537C903.147 437.277 936.033 492.29 958.951 541.689C986.216 600.447 998.9 650.714 997.731 695.353C996.933 725.908 989.961 753.978 976.43 781.152C976.017 781.978 975.604 782.797 975.177 783.616L974.981 783.994H970.403L970.928 782.979C985.313 755.315 992.705 726.615 993.531 695.241L993.552 695.248Z" fill="white"/>
<path d="M472.458 304.494C456.05 283.081 445.039 260.016 440.615 237.791C434.924 209.217 440.041 182.554 455.413 160.672C497.21 101.172 497.392 98.8763 500.36 60.4743C501.067 51.3673 501.942 40.0413 503.552 25.5163C504.567 16.3673 506.758 7.9183 510.062 0.407305L510.244 -0.0126953H514.864L514.409 0.974305C510.993 8.3733 508.746 16.7873 507.724 25.9783C506.114 40.4403 505.246 51.7383 504.539 60.8313C501.494 100.269 501.312 102.628 458.85 163.059C444.15 183.982 439.271 209.539 444.731 236.972C453.565 281.366 488.929 327.048 539.322 359.178C581.63 386.149 607.299 397.433 662.963 417.649C669.13 419.889 675.29 422.038 681.254 424.124C723.387 438.845 763.189 452.747 794.486 494.271C807.772 511.897 832.37 547.954 847.868 591.375C863.317 634.656 865.053 672.148 853.048 702.822C843.696 726.713 823.816 755.462 797.069 783.777L796.859 783.994H791.084L792.211 782.818C819.518 754.265 839.734 725.313 849.135 701.31C860.769 671.595 859.012 635.076 843.913 592.768C828.597 549.865 804.272 514.207 791.126 496.77C760.599 456.261 723.184 443.192 679.861 428.058C674.205 426.084 667.793 423.844 661.521 421.569C605.528 401.241 579.691 389.88 537.054 362.692C511.476 346.382 489.139 326.257 472.458 304.487V304.494Z" fill="white"/>
<path d="M-105.336 451.934C-117.327 442.988 -128.66 434.539 -138.369 425.845L-140.728 423.731C-175.931 392.21 -201.369 369.439 -219.814 319.809C-228.487 296.464 -232.659 276.08 -232.561 257.481C-232.477 240.786 -228.935 225.939 -221.732 212.079C-208.425 186.452 -184.352 168.371 -161.07 150.878C-130.109 127.617 -98.0978 103.565 -91.3288 61.488C-91.4478 39.48 -87.9198 21.812 -80.5348 7.483C-79.2608 5.012 -77.8398 2.597 -76.3208 0.308L-76.1108 0H-71.0428L-71.8198 1.099C-82.2918 15.918 -87.3038 35.721 -87.1358 61.635C-87.1358 61.747 -87.1429 61.859 -87.1638 61.978C-94.1499 105.819 -126.889 130.424 -158.557 154.21C-206.129 189.952 -251.062 223.713 -215.887 318.367C-197.799 367.031 -173.985 388.353 -137.928 420.637L-135.569 422.751C-126 431.319 -114.744 439.719 -102.823 448.602C-69.8669 473.179 -32.5078 501.039 -20.9858 541.765C11.9702 658.245 74.7041 742.413 151.13 772.688C162.484 777.182 174.251 780.528 186.109 782.621L185.99 784H172.655L172.571 783.979C164.78 782.012 157.045 779.513 149.583 776.559C108.591 760.326 71.8271 729.379 40.3132 684.586C12.6912 645.323 -9.90485 596.323 -25.0178 542.892C-36.1548 503.524 -72.9118 476.119 -105.336 451.934Z" fill="white"/>
<path d="M453.643 709.648C477.779 704.797 502.741 699.778 530.349 690.447C566.392 678.267 610.898 641.643 619.949 603.717C624.793 583.431 619.284 565.091 603.576 549.215C584.935 530.371 560.288 529.692 536.453 529.034C513.241 528.397 489.245 527.732 471.983 509.77C450.101 486.999 420.582 472.866 392.029 459.195C370.581 448.926 348.398 438.307 330.044 424.181C309.359 408.27 295.716 389.426 288.338 366.571C268.99 306.686 271.797 286.057 281.1 217.632C284.551 192.222 288.856 160.596 293.266 117.896C294.904 66.8171 296.248 28.4991 298.712 0.632117L298.768 -0.00488281H302.975L302.905 0.751117C300.448 28.4641 299.097 66.8591 297.459 118.071C297.459 118.12 297.459 118.169 297.452 118.225C293.021 161.086 288.716 192.768 285.251 218.241C276.053 285.896 273.281 306.308 292.335 365.29C308.211 414.423 349.812 434.338 393.849 455.429C422.738 469.261 452.614 483.562 475.021 506.879C491.093 523.602 513.185 524.211 536.579 524.855C561.247 525.534 586.748 526.241 606.579 546.282C623.365 563.25 629.238 582.899 624.044 604.676C618.423 628.231 601.378 647.733 588.064 659.941C571.159 675.446 550.621 688.004 531.714 694.395C503.84 703.817 478.745 708.857 454.483 713.736C418.223 721.023 383.972 727.904 348.909 748.729C320.167 765.795 291.789 777.66 264.559 783.981L250.132 784.002L250.02 782.623C281.044 777.464 313.587 764.857 346.767 745.152C382.446 723.963 417.04 717.012 453.664 709.655L453.643 709.648Z" fill="white"/>
<path d="M1147.48 406.968C1140.53 432.714 1141.31 468.134 1149.61 504.149C1156.25 532.968 1170.76 575.395 1202.19 613.881C1223.24 639.655 1248.57 659.43 1277.48 672.653C1310.18 687.605 1347.36 694.059 1387.97 691.819C1424.85 690.531 1452.17 712.287 1481.09 735.345C1503.95 753.566 1527.57 772.389 1556.76 779.627C1556.86 779.648 1556.94 779.662 1557.03 779.676C1559.25 779.935 1561.48 780.068 1563.63 780.068C1599.64 780.068 1620.28 744.459 1640.23 710.019C1643.82 703.838 1647.51 697.461 1651.18 691.518C1655.45 684.637 1660.08 678.33 1664.57 672.226C1681.92 648.608 1696.9 628.21 1679.52 591.355C1648.31 528.32 1621.19 490.534 1553.35 415.585C1543.39 402.033 1533.99 386.444 1524.91 371.366C1496.35 324.004 1466.84 275.032 1410.72 267.171C1353.09 259.093 1292.04 272.071 1238.81 303.704C1192.2 331.41 1157.2 370.981 1147.49 406.975L1147.48 406.968ZM1675.74 593.161C1692.04 627.748 1677.74 647.222 1661.18 669.762C1656.64 675.936 1651.96 682.313 1647.6 689.327C1643.89 695.34 1640.18 701.738 1636.6 707.919C1617.22 741.358 1597.21 775.875 1563.49 775.882C1561.59 775.882 1559.64 775.77 1557.65 775.546C1529.4 768.504 1506.19 750.003 1483.74 732.111C1454.18 708.549 1426.26 686.31 1387.78 687.654C1292.91 692.883 1236.26 648.993 1205.45 611.256C1154.29 548.606 1137.86 458.74 1151.54 408.053C1160.98 373.067 1195.25 334.455 1240.96 307.281C1293.37 276.138 1353.45 263.356 1410.13 271.301C1464.25 278.882 1493.25 326.986 1521.3 373.501C1530.46 388.698 1539.92 404.406 1550.02 418.126C1550.06 418.182 1550.11 418.238 1550.16 418.294C1617.74 492.956 1644.73 530.546 1675.74 593.161Z" fill="white"/>
<path d="M1361.9 457.261C1367.01 437.073 1361.87 417.116 1348.5 405.181C1348.45 405.132 1348.39 405.09 1348.33 405.048C1326.03 389.41 1285.2 392.686 1265.91 411.663C1257.56 419.888 1246.57 438.067 1266.89 467.376C1266.94 467.432 1266.98 467.488 1267.02 467.537C1284.24 486.913 1301.39 496.734 1318.01 496.734C1321.16 496.734 1324.29 496.363 1327.3 495.635C1343.66 491.68 1356.91 476.973 1361.91 457.254L1361.9 457.261ZM1358.51 456.414C1353.83 474.88 1341.56 488.614 1326.47 492.261C1314.17 495.243 1294.33 492.982 1269.72 465.318C1255.78 445.172 1255.31 427 1268.38 414.141C1276.97 405.685 1290.79 400.12 1306.3 398.881C1321.75 397.649 1336.31 400.911 1346.25 407.841C1358.59 418.922 1363.29 437.535 1358.51 456.421V456.414Z" fill="white"/>
<path d="M1429.7 477.176C1433.22 452.935 1427.83 425.145 1414.88 400.932C1402.19 377.195 1384.1 361.151 1366.5 358.015C1311.4 348.208 1291.82 361.942 1248.91 392.042C1230.79 404.747 1224.29 429.352 1231.06 459.557C1235.47 479.213 1245.35 499.66 1258.18 515.662C1271.87 532.756 1287.91 543.669 1303.35 546.385C1312.54 547.4 1321.29 547.904 1329.57 547.904C1356.91 547.904 1379.21 542.381 1396.08 531.405C1414.66 519.323 1426.28 500.57 1429.69 477.169L1429.7 477.176ZM1428.66 477.022C1425.29 500.122 1413.83 518.623 1395.52 530.537C1373.73 544.705 1342.77 549.689 1303.5 545.356C1288.35 542.682 1272.54 531.909 1259 515.011C1246.28 499.128 1236.47 478.835 1232.09 459.326C1225.42 429.555 1231.76 405.342 1249.52 392.896C1283 369.411 1302.21 355.943 1335.35 355.943C1344.44 355.943 1354.56 356.951 1366.32 359.044C1383.6 362.117 1401.41 377.965 1413.95 401.422C1426.8 425.446 1432.16 452.998 1428.66 477.029V477.022Z" fill="white"/>
<path d="M1516.26 552.593C1527.18 516.837 1518.46 472.226 1492.94 433.25C1484.27 420.006 1476.69 406.958 1469.36 394.344C1439.99 343.769 1416.8 303.827 1356.76 312.311C1272.48 324.218 1217.42 352.848 1193.09 397.403C1170.78 438.255 1183.19 482.804 1197.53 512.981C1221.09 562.548 1261.24 599.003 1278.57 602.377C1304.51 611.792 1339.94 617.756 1375.8 618.743C1379.32 618.841 1382.81 618.891 1386.25 618.891C1419.71 618.891 1448.69 614.333 1468.66 605.849C1492.21 595.84 1508.68 577.43 1516.26 552.6V552.593ZM1515.25 552.292C1507.76 576.82 1491.5 595.007 1468.24 604.883C1420.83 625.022 1329.16 619.646 1278.89 601.383C1278.86 601.376 1278.83 601.37 1278.8 601.363C1261.7 598.087 1221.91 561.855 1198.47 512.54C1184.23 482.579 1171.9 438.374 1194 397.907C1218.16 353.66 1272.97 325.212 1356.89 313.354C1362.25 312.598 1367.33 312.227 1372.13 312.227C1420.45 312.227 1441.91 349.18 1468.44 394.876C1475.78 407.504 1483.36 420.566 1492.04 433.831C1517.4 472.548 1526.07 516.837 1515.24 552.299L1515.25 552.292Z" fill="white"/>
</g>
<defs>
<clipPath id="clip0_47307_1493">
<rect width="2520" height="784" fill="white" transform="translate(-540)"/>
</clipPath>
</defs>
</svg>
