<svg width="100" height="100" viewBox="0 0 100 100" fill="none" xmlns="http://www.w3.org/2000/svg">
<rect width="100" height="100" fill="#212121"/>
<path d="M51.4954 90C51.336 90 51.1764 89.9668 51.0275 89.9006C41.71 85.7568 34.3621 80.9377 29.1881 75.5766C23.8302 70.025 20.7366 63.8314 19.9936 57.1678C19.9888 57.1252 19.9863 57.0821 19.9863 57.0393V24.2239C19.9863 23.7494 20.2753 23.3229 20.7151 23.1481L51.0701 11.0815C51.3432 10.9728 51.6477 10.9728 51.9206 11.0815L82.28 23.1481C82.72 23.3229 83.0088 23.7494 83.0088 24.2239V37.3906C83.0088 38.0297 82.4922 38.5479 81.8547 38.5479C81.2173 38.5479 80.7006 38.0297 80.7006 37.3906V25.01L51.4954 13.4021L22.2945 25.01V56.974C23.6859 69.1826 33.509 79.476 51.4954 87.5755C69.4801 79.4787 79.3048 69.1852 80.7006 56.9738V42.7855C80.7006 42.1464 81.2173 41.6282 81.8547 41.6282C82.4922 41.6282 83.0088 42.1464 83.0088 42.7855V57.0393C83.0088 57.0823 83.0065 57.1254 83.0017 57.1682C82.2562 63.8325 79.1618 70.026 73.8049 75.5766C68.6302 80.9383 61.2816 85.7575 51.9634 89.9006C51.8142 89.967 51.6548 90 51.4954 90Z" fill="#EE7700"/>
<path d="M52.6036 77.932V56.2982C54.9757 55.8475 56.849 53.9757 57.3002 51.6054H73.5382V55.4087C72.5126 64.3313 65.4719 71.9026 52.6036 77.932ZM29.4585 55.4085V51.6054H45.7006C46.1515 53.9754 48.0232 55.8471 50.3932 56.298V77.9318C37.5294 71.9026 30.4887 64.3306 29.4585 55.4085ZM51.4984 46.8033C53.5367 46.8033 55.1951 48.4617 55.1951 50.5002C55.1951 52.5364 53.5367 54.1929 51.4984 54.1929C49.4623 54.1929 47.8057 52.5364 47.8057 50.5002C47.8057 48.4617 49.4623 46.8033 51.4984 46.8033ZM73.5382 49.395H57.3004C56.8494 47.0226 54.976 45.1492 52.6036 44.6981V22.9725L73.5382 31.2702V49.395ZM75.0506 29.492L51.9291 20.3275L51.9269 20.3266L51.9056 20.3181C51.8963 20.3144 51.8867 20.3119 51.8773 20.3085C51.8562 20.3008 51.8351 20.293 51.8135 20.2865C51.7993 20.2824 51.785 20.2792 51.7709 20.2756C51.751 20.2705 51.7314 20.2652 51.7112 20.2612C51.692 20.2575 51.6729 20.2551 51.6536 20.2525C51.6378 20.2503 51.6223 20.2473 51.6063 20.2459C51.5347 20.2388 51.4623 20.2388 51.3905 20.2459C51.374 20.2473 51.358 20.2504 51.3418 20.2526C51.323 20.2553 51.3043 20.2576 51.2858 20.2612C51.2653 20.2652 51.2454 20.2706 51.2253 20.2758C51.2113 20.2793 51.1972 20.2824 51.1833 20.2865C51.1618 20.2929 51.1411 20.3005 51.1201 20.3082C51.1104 20.3117 51.1007 20.3142 51.0911 20.3181L51.0686 20.3269C51.0684 20.3271 51.0683 20.3272 51.068 20.3272L27.946 29.492C27.5246 29.6589 27.248 30.0662 27.248 30.5194V37.98C27.248 38.5904 27.7429 39.0852 28.3533 39.0852C28.9636 39.0852 29.4585 38.5904 29.4585 37.98V31.2702L50.3932 22.9725V44.6983C48.0229 45.1495 46.1511 47.0227 45.7004 49.395H29.4585V43.1324C29.4585 42.522 28.9636 42.0272 28.3533 42.0272C27.7429 42.0272 27.248 42.522 27.248 43.1324V55.4712C27.248 55.5124 27.2504 55.5535 27.255 55.5945C27.8297 60.7121 30.2097 65.4653 34.3291 69.7221C38.2945 73.8198 43.9205 77.5002 51.0504 80.6611C51.0522 80.6618 51.0541 80.6624 51.056 80.6632C51.0848 80.6758 51.1145 80.6867 51.1444 80.6969C51.1502 80.6988 51.1556 80.7013 51.1614 80.7031C51.1954 80.714 51.2301 80.7231 51.2654 80.7308C51.2673 80.7312 51.2691 80.7318 51.271 80.7323C51.3444 80.7476 51.4205 80.7559 51.4984 80.7559C51.5762 80.7559 51.6523 80.7476 51.7256 80.7323C51.7274 80.7318 51.7289 80.7314 51.7307 80.731C51.7662 80.7233 51.8011 80.714 51.8351 80.7031C51.8409 80.7013 51.8463 80.6988 51.8521 80.6971C51.8821 80.6869 51.9118 80.6758 51.9405 80.6633C51.9424 80.6624 51.9442 80.6618 51.9461 80.6611C59.0783 77.5003 64.7053 73.8198 68.6708 69.7221C72.7902 65.4651 75.1692 60.7118 75.7417 55.5941C75.7463 55.5532 75.7486 55.5123 75.7486 55.4712V30.5194C75.7486 30.0662 75.472 29.6589 75.0506 29.492Z" fill="white"/>
</svg>
