<svg width="100" height="100" viewBox="0 0 100 100" fill="none" xmlns="http://www.w3.org/2000/svg">
<rect width="100" height="100" fill="#212121"/>
<path d="M70.2747 37.8589C70.2747 36.3865 70.1157 34.9515 69.8166 33.5687L75.1196 29.6471L69.7409 20.331L63.7111 22.955C61.5774 21.0011 59.0229 19.4999 56.1992 18.6019L55.4488 12H44.6915L43.9413 18.6021C41.1468 19.4907 38.6155 20.9699 36.4952 22.8943L30.3305 20.2116L24.9519 29.5278L30.3365 33.5097C30.0292 34.9107 29.8657 36.3656 29.8657 37.8589C29.8657 39.3001 30.0177 40.7055 30.3045 42.0613L24.8828 46.0707L30.2615 55.3869L36.3853 52.722C38.4917 54.6625 41.0115 56.1603 43.798 57.0694L44.5537 63.7178H55.311L56.0561 57.1617C58.8878 56.2845 61.4525 54.8012 63.5999 52.8637L69.672 55.5061L75.0507 46.1899L69.7848 42.2958C70.1047 40.868 70.2747 39.3833 70.2747 37.8589Z" stroke="#EE7700" stroke-width="2" stroke-miterlimit="10" stroke-linecap="round" stroke-linejoin="round"/>
<path d="M50.0013 48.5797C55.9229 48.5797 60.7233 43.7793 60.7233 37.8577C60.7233 31.9361 55.9229 27.1357 50.0013 27.1357C44.0797 27.1357 39.2793 31.9361 39.2793 37.8577C39.2793 43.7793 44.0797 48.5797 50.0013 48.5797Z" stroke="#EE7700" stroke-width="2" stroke-miterlimit="10" stroke-linecap="round" stroke-linejoin="round"/>
<path d="M76.5 24.4883H80.1162H88V76.7738H12V24.4883H23" stroke="white" stroke-width="2" stroke-miterlimit="10" stroke-linecap="round" stroke-linejoin="round"/>
<path d="M21.6602 87.9987C29.0741 81.0547 39.0408 76.8037 49.9993 76.8037C60.9578 76.8037 70.9261 81.0562 78.3401 87.9987" stroke="white" stroke-width="2" stroke-miterlimit="10" stroke-linecap="round" stroke-linejoin="round"/>
</svg>
